  0
SECTION
  2
HEADER
  9
$ACADVER
  1
AC1027
  9
$ACADMAINTVER
 70
   105
  9
$DWGCODEPAGE
  3
ANSI_1252
  9
$REQUIREDVERSIONS
160
                 0
  9
$INSBASE
 10
0.0
 20
0.0
 30
0.0
  9
$EXTMIN
 10
1.000000000000000E+20
 20
1.000000000000000E+20
 30
1.000000000000000E+20
  9
$EXTMAX
 10
-1.000000000000000E+20
 20
-1.000000000000000E+20
 30
-1.000000000000000E+20
  9
$LIMMIN
 10
0.0
 20
0.0
  9
$LIMMAX
 10
12.0
 20
9.0
  9
$ORTHOMODE
 70
     0
  9
$REGENMODE
 70
     1
  9
$FILLMODE
 70
     1
  9
$QTEXTMODE
 70
     0
  9
$MIRRTEXT
 70
     1
  9
$LTSCALE
 40
1.0
  9
$ATTMODE
 70
     1
  9
$TEXTSIZE
 40
0.2
  9
$TRACEWID
 40
0.05
  9
$TEXTSTYLE
  7
Standard
  9
$CLAYER
  8
0
  9
$CELTYPE
  6
ByLayer
  9
$CECOLOR
 62
   256
  9
$CELTSCALE
 40
1.0
  9
$DISPSILH
 70
     0
  9
$DIMSCALE
 40
1.0
  9
$DIMASZ
 40
2.5
  9
$DIMEXO
 40
0.625
  9
$DIMDLI
 40
0.38
  9
$DIMRND
 40
0.0
  9
$DIMDLE
 40
0.0
  9
$DIMEXE
 40
1.25
  9
$DIMTP
 40
0.0
  9
$DIMTM
 40
0.0
  9
$DIMTXT
 40
2.5
  9
$DIMCEN
 40
0.09
  9
$DIMTSZ
 40
0.0
  9
$DIMTOL
 70
     0
  9
$DIMLIM
 70
     0
  9
$DIMTIH
 70
     1
  9
$DIMTOH
 70
     1
  9
$DIMSE1
 70
     0
  9
$DIMSE2
 70
     0
  9
$DIMTAD
 70
     0
  9
$DIMZIN
 70
     8
  9
$DIMBLK
  1

  9
$DIMASO
 70
     1
  9
$DIMSHO
 70
     1
  9
$DIMPOST
  1

  9
$DIMAPOST
  1

  9
$DIMALT
 70
     0
  9
$DIMALTD
 70
     2
  9
$DIMALTF
 40
25.4
  9
$DIMLFAC
 40
1.0
  9
$DIMTOFL
 70
     0
  9
$DIMTVP
 40
0.0
  9
$DIMTIX
 70
     0
  9
$DIMSOXD
 70
     0
  9
$DIMSAH
 70
     0
  9
$DIMBLK1
  1

  9
$DIMBLK2
  1

  9
$DIMSTYLE
  2
Standard
  9
$DIMCLRD
 70
     0
  9
$DIMCLRE
 70
     0
  9
$DIMCLRT
 70
     0
  9
$DIMTFAC
 40
1.0
  9
$DIMGAP
 40
0.625
  9
$DIMJUST
 70
     0
  9
$DIMSD1
 70
     0
  9
$DIMSD2
 70
     0
  9
$DIMTOLJ
 70
     1
  9
$DIMTZIN
 70
     0
  9
$DIMALTZ
 70
     0
  9
$DIMALTTZ
 70
     0
  9
$DIMUPT
 70
     0
  9
$DIMDEC
 70
     4
  9
$DIMTDEC
 70
     4
  9
$DIMALTU
 70
     2
  9
$DIMALTTD
 70
     2
  9
$DIMTXSTY
  7
Standard
  9
$DIMAUNIT
 70
     0
  9
$DIMADEC
 70
     0
  9
$DIMALTRND
 40
0.0
  9
$DIMAZIN
 70
     2
  9
$DIMDSEP
 70
    46
  9
$DIMATFIT
 70
     3
  9
$DIMFRAC
 70
     0
  9
$DIMLDRBLK
  1

  9
$DIMLUNIT
 70
     2
  9
$DIMLWD
 70
    -2
  9
$DIMLWE
 70
    -2
  9
$DIMTMOVE
 70
     0
  9
$DIMFXL
 40
1.0
  9
$DIMFXLON
 70
     0
  9
$DIMJOGANG
 40
0.7853981633974483
  9
$DIMTFILL
 70
     0
  9
$DIMTFILLCLR
 70
     0
  9
$DIMARCSYM
 70
     0
  9
$DIMLTYPE
  6

  9
$DIMLTEX1
  6

  9
$DIMLTEX2
  6

  9
$DIMTXTDIRECTION
 70
     0
  9
$LUNITS
 70
     2
  9
$LUPREC
 70
     4
  9
$SKETCHINC
 40
0.1
  9
$FILLETRAD
 40
0.5
  9
$AUNITS
 70
     0
  9
$AUPREC
 70
     0
  9
$MENU
  1
.
  9
$ELEVATION
 40
0.0
  9
$PELEVATION
 40
0.0
  9
$THICKNESS
 40
0.0
  9
$LIMCHECK
 70
     0
  9
$CHAMFERA
 40
0.0
  9
$CHAMFERB
 40
0.0
  9
$CHAMFERC
 40
0.0
  9
$CHAMFERD
 40
0.0
  9
$SKPOLY
 70
     0
  9
$TDCREATE
 40
2459761.554187697
  9
$TDUCREATE
 40
2459761.470854363
  9
$TDUPDATE
 40
2459761.554188067
  9
$TDUUPDATE
 40
2459761.470854734
  9
$TDINDWG
 40
0.0000000116
  9
$TDUSRTIMER
 40
0.0000000116
  9
$USRTIMER
 70
     1
  9
$ANGBASE
 50
0.0
  9
$ANGDIR
 70
     0
  9
$PDMODE
 70
     0
  9
$PDSIZE
 40
0.0
  9
$PLINEWID
 40
0.0
  9
$SPLFRAME
 70
     0
  9
$SPLINETYPE
 70
     6
  9
$SPLINESEGS
 70
     8
  9
$HANDSEED
  5
310
  9
$SURFTAB1
 70
     6
  9
$SURFTAB2
 70
     6
  9
$SURFTYPE
 70
     6
  9
$SURFU
 70
     6
  9
$SURFV
 70
     6
  9
$UCSBASE
  2

  9
$UCSNAME
  2

  9
$UCSORG
 10
0.0
 20
0.0
 30
0.0
  9
$UCSXDIR
 10
1.0
 20
0.0
 30
0.0
  9
$UCSYDIR
 10
0.0
 20
1.0
 30
0.0
  9
$UCSORTHOREF
  2

  9
$UCSORTHOVIEW
 70
     0
  9
$UCSORGTOP
 10
0.0
 20
0.0
 30
0.0
  9
$UCSORGBOTTOM
 10
0.0
 20
0.0
 30
0.0
  9
$UCSORGLEFT
 10
0.0
 20
0.0
 30
0.0
  9
$UCSORGRIGHT
 10
0.0
 20
0.0
 30
0.0
  9
$UCSORGFRONT
 10
0.0
 20
0.0
 30
0.0
  9
$UCSORGBACK
 10
0.0
 20
0.0
 30
0.0
  9
$PUCSBASE
  2

  9
$PUCSNAME
  2

  9
$PUCSORG
 10
0.0
 20
0.0
 30
0.0
  9
$PUCSXDIR
 10
1.0
 20
0.0
 30
0.0
  9
$PUCSYDIR
 10
0.0
 20
1.0
 30
0.0
  9
$PUCSORTHOREF
  2

  9
$PUCSORTHOVIEW
 70
     0
  9
$PUCSORGTOP
 10
0.0
 20
0.0
 30
0.0
  9
$PUCSORGBOTTOM
 10
0.0
 20
0.0
 30
0.0
  9
$PUCSORGLEFT
 10
0.0
 20
0.0
 30
0.0
  9
$PUCSORGRIGHT
 10
0.0
 20
0.0
 30
0.0
  9
$PUCSORGFRONT
 10
0.0
 20
0.0
 30
0.0
  9
$PUCSORGBACK
 10
0.0
 20
0.0
 30
0.0
  9
$USERI1
 70
     0
  9
$USERI2
 70
     0
  9
$USERI3
 70
     0
  9
$USERI4
 70
     0
  9
$USERI5
 70
     0
  9
$USERR1
 40
0.0
  9
$USERR2
 40
0.0
  9
$USERR3
 40
0.0
  9
$USERR4
 40
0.0
  9
$USERR5
 40
0.0
  9
$WORLDVIEW
 70
     1
  9
$SHADEDGE
 70
     3
  9
$SHADEDIF
 70
    70
  9
$TILEMODE
 70
     1
  9
$MAXACTVP
 70
    64
  9
$PINSBASE
 10
0.0
 20
0.0
 30
0.0
  9
$PLIMCHECK
 70
     0
  9
$PEXTMIN
 10
0.0
 20
0.0
 30
0.0
  9
$PEXTMAX
 10
0.0
 20
0.0
 30
0.0
  9
$PLIMMIN
 10
-20.0
 20
-7.5
  9
$PLIMMAX
 10
277.0
 20
202.5
  9
$UNITMODE
 70
     0
  9
$VISRETAIN
 70
     1
  9
$PLINEGEN
 70
     0
  9
$PSLTSCALE
 70
     1
  9
$TREEDEPTH
 70
  3020
  9
$CMLSTYLE
  2
Standard
  9
$CMLJUST
 70
     0
  9
$CMLSCALE
 40
1.0
  9
$PROXYGRAPHICS
 70
     1
  9
$MEASUREMENT
 70
     1
  9
$CELWEIGHT
370
    -1
  9
$ENDCAPS
280
     0
  9
$JOINSTYLE
280
     0
  9
$LWDISPLAY
290
     0
  9
$INSUNITS
 70
     4
  9
$HYPERLINKBASE
  1

  9
$STYLESHEET
  1

  9
$XEDIT
290
     1
  9
$CEPSNTYPE
380
     0
  9
$PSTYLEMODE
290
     1
  9
$FINGERPRINTGUID
  2
{7f659fdd-2c17-4b02-9912-852f08a7e43c}
  9
$VERSIONGUID
  2
{FAEB1C32-E019-11D5-929B-00C0DF256EC4}
  9
$EXTNAMES
290
     1
  9
$PSVPSCALE
 40
0.0
  9
$OLESTARTUP
290
     0
  9
$SORTENTS
280
   127
  9
$INDEXCTL
280
     0
  9
$HIDETEXT
280
     1
  9
$XCLIPFRAME
280
     2
  9
$HALOGAP
280
     0
  9
$OBSCOLOR
 70
   257
  9
$OBSLTYPE
280
     0
  9
$INTERSECTIONDISPLAY
280
     0
  9
$INTERSECTIONCOLOR
 70
   257
  9
$DIMASSOC
280
     2
  9
$PROJECTNAME
  1

  9
$CAMERADISPLAY
290
     0
  9
$LENSLENGTH
 40
50.0
  9
$CAMERAHEIGHT
 40
0.0
  9
$STEPSPERSEC
 40
2.0
  9
$STEPSIZE
 40
6.0
  9
$3DDWFPREC
 40
2.0
  9
$PSOLWIDTH
 40
0.25
  9
$PSOLHEIGHT
 40
4.0
  9
$LOFTANG1
 40
1.570796326794897
  9
$LOFTANG2
 40
1.570796326794897
  9
$LOFTMAG1
 40
0.0
  9
$LOFTMAG2
 40
0.0
  9
$LOFTPARAM
 70
     7
  9
$LOFTNORMALS
280
     1
  9
$LATITUDE
 40
37.795
  9
$LONGITUDE
 40
-122.394
  9
$NORTHDIRECTION
 40
0.0
  9
$TIMEZONE
 70
 -8000
  9
$LIGHTGLYPHDISPLAY
280
     1
  9
$TILEMODELIGHTSYNCH
280
     1
  9
$CMATERIAL
347
269
  9
$SOLIDHIST
280
     0
  9
$SHOWHIST
280
     1
  9
$DWFFRAME
280
     2
  9
$DGNFRAME
280
     2
  9
$REALWORLDSCALE
290
     1
  9
$INTERFERECOLOR
 62
   256
  9
$CSHADOW
280
     0
  9
$SHADOWPLANELOCATION
 40
0.0
  0
ENDSEC
  0
SECTION
  2
CLASSES
  0
CLASS
  1
ACDBDICTIONARYWDFLT
  2
AcDbDictionaryWithDefault
  3
ObjectDBX Classes
 90
        0
 91
        3
280
     0
281
     0
  0
CLASS
  1
VISUALSTYLE
  2
AcDbVisualStyle
  3
ObjectDBX Classes
 90
     4095
 91
        3
280
     0
281
     0
  0
CLASS
  1
MATERIAL
  2
AcDbMaterial
  3
ObjectDBX Classes
 90
     1153
 91
        3
280
     0
281
     0
  0
CLASS
  1
SCALE
  2
AcDbScale
  3
ObjectDBX Classes
 90
     1153
 91
        3
280
     0
281
     0
  0
CLASS
  1
TABLESTYLE
  2
AcDbTableStyle
  3
ObjectDBX Classes
 90
     4095
 91
        3
280
     0
281
     0
  0
CLASS
  1
MLEADERSTYLE
  2
AcDbMLeaderStyle
  3
ACDB_MLEADERSTYLE_CLASS
 90
     4095
 91
        3
280
     0
281
     0
  0
CLASS
  1
SUN
  2
AcDbSun
  3
SCENEOE
 90
     1153
 91
        3
280
     0
281
     0
  0
CLASS
  1
DICTIONARYVAR
  2
AcDbDictionaryVar
  3
ObjectDBX Classes
 90
        0
 91
        3
280
     0
281
     0
  0
CLASS
  1
CELLSTYLEMAP
  2
AcDbCellStyleMap
  3
ObjectDBX Classes
 90
     1152
 91
        3
280
     0
281
     0
  0
ENDSEC
  0
SECTION
  2
TABLES
  0
TABLE
  2
VPORT
  5
22E
330
0
100
AcDbSymbolTable
 70
     1
  0
VPORT
  5
24E
330
22E
100
AcDbSymbolTableRecord
100
AcDbViewportTableRecord
  2
*Active
 70
     0
 10
0.0
 20
0.0
 11
1.0
 21
1.0
 12
43.54624662114634
 22
17.81845447038677
 13
0.0
 23
0.0
 14
0.5
 24
0.5
 15
0.5
 25
0.5
 16
0.0
 26
0.0
 36
1.0
 17
0.0
 27
0.0
 37
0.0
 40
1010.280596902972
 41
1.912820512820513
 42
50.0
 43
0.0
 44
0.0
 50
0.0
 51
0.0
 71
     0
 72
   100
 73
     1
 74
     3
 75
     0
 76
     0
 77
     0
 78
     0
281
     0
 65
     1
110
0.0
120
0.0
130
0.0
111
1.0
121
0.0
131
0.0
112
0.0
122
1.0
132
0.0
 79
     0
146
0.0
348
254
 60
     3
 61
     5
292
     1
282
     1
141
0.0
142
0.0
 63
   250
361
292
  0
ENDTAB
  0
TABLE
  2
LTYPE
  5
22B
330
0
100
AcDbSymbolTable
 70
    48
  0
LTYPE
  5
239
330
22B
100
AcDbSymbolTableRecord
100
AcDbLinetypeTableRecord
  2
ByBlock
 70
     0
  3

 72
    65
 73
     0
 40
0.0
  0
LTYPE
  5
23A
330
22B
100
AcDbSymbolTableRecord
100
AcDbLinetypeTableRecord
  2
ByLayer
 70
     0
  3

 72
    65
 73
     0
 40
0.0
  0
LTYPE
  5
23B
330
22B
100
AcDbSymbolTableRecord
100
AcDbLinetypeTableRecord
  2
Continuous
 70
     0
  3
Solid line
 72
    65
 73
     0
 40
0.0
  0
LTYPE
  5
2C7
330
22B
100
AcDbSymbolTableRecord
100
AcDbLinetypeTableRecord
  2
DASHDOT
 70
     0
  3
Dash dot __ . __ . __ . __ . __ . __ . __ . __
 72
    65
 73
     4
 40
25.4
 49
12.7
 74
     0
 49
-6.35
 74
     0
 49
0.0
 74
     0
 49
-6.35
 74
     0
  0
LTYPE
  5
2C8
330
22B
100
AcDbSymbolTableRecord
100
AcDbLinetypeTableRecord
  2
CENTERX2
 70
     0
  3
Center (2x) ________  __  ________  __  _____
 72
    65
 73
     4
 40
101.6
 49
63.5
 74
     0
 49
-12.7
 74
     0
 49
12.7
 74
     0
 49
-12.7
 74
     0
  0
LTYPE
  5
2C9
330
22B
100
AcDbSymbolTableRecord
100
AcDbLinetypeTableRecord
  2
ACAD_ISO13W100
 70
     0
  3
ISO double-dash double-dot __ __ . . __ __ . . _
 72
    65
 73
     8
 40
36.0
 49
12.0
 74
     0
 49
-3.0
 74
     0
 49
12.0
 74
     0
 49
-3.0
 74
     0
 49
0.0
 74
     0
 49
-3.0
 74
     0
 49
0.0
 74
     0
 49
-3.0
 74
     0
  0
LTYPE
  5
2CA
330
22B
100
AcDbSymbolTableRecord
100
AcDbLinetypeTableRecord
  2
ACAD_ISO12W100
 70
     0
  3
ISO dash double-dot __ . . __ . . __ . . __ . . 
 72
    65
 73
     6
 40
21.0
 49
12.0
 74
     0
 49
-3.0
 74
     0
 49
0.0
 74
     0
 49
-3.0
 74
     0
 49
0.0
 74
     0
 49
-3.0
 74
     0
  0
LTYPE
  5
2CB
330
22B
100
AcDbSymbolTableRecord
100
AcDbLinetypeTableRecord
  2
ACAD_ISO11W100
 70
     0
  3
ISO double-dash dot __ __ . __ __ . __ __ . __ _
 72
    65
 73
     6
 40
33.0
 49
12.0
 74
     0
 49
-3.0
 74
     0
 49
12.0
 74
     0
 49
-3.0
 74
     0
 49
0.0
 74
     0
 49
-3.0
 74
     0
  0
LTYPE
  5
2CC
330
22B
100
AcDbSymbolTableRecord
100
AcDbLinetypeTableRecord
  2
ACAD_ISO10W100
 70
     0
  3
ISO dash dot __ . __ . __ . __ . __ . __ . __ . 
 72
    65
 73
     4
 40
18.0
 49
12.0
 74
     0
 49
-3.0
 74
     0
 49
0.0
 74
     0
 49
-3.0
 74
     0
  0
LTYPE
  5
2CD
330
22B
100
AcDbSymbolTableRecord
100
AcDbLinetypeTableRecord
  2
BORDER
 70
     0
  3
Border __ __ . __ __ . __ __ . __ __ . __ __ .
 72
    65
 73
     6
 40
44.45
 49
12.7
 74
     0
 49
-6.35
 74
     0
 49
12.7
 74
     0
 49
-6.35
 74
     0
 49
0.0
 74
     0
 49
-6.35
 74
     0
  0
LTYPE
  5
2D0
330
22B
100
AcDbSymbolTableRecord
100
AcDbLinetypeTableRecord
  2
BATTING
 70
     0
  3
Batting SSSSSSSSSSSSSSSSSSSSSSSSSSSSSSSSSSSSSSSSSSSSSSS
 72
    65
 73
     4
 40
10.16254
 49
0.00254
 74
     0
 49
-2.54
 74
     2
 75
     0
340
2CE
 46
2.54
 50
0.0
 44
-2.54
 45
0.0
  9
BAT
 49
-5.08
 74
     2
 75
     0
340
2CF
 46
2.54
 50
180.0
 44
2.54
 45
0.0
  9
BAT
 49
-2.54
 74
     0
  0
LTYPE
  5
2D1
330
22B
100
AcDbSymbolTableRecord
100
AcDbLinetypeTableRecord
  2
ACAD_ISO15W100
 70
     0
  3
ISO double-dash triple-dot __ __ . . . __ __ . .
 72
    65
 73
    10
 40
39.0
 49
12.0
 74
     0
 49
-3.0
 74
     0
 49
12.0
 74
     0
 49
-3.0
 74
     0
 49
0.0
 74
     0
 49
-3.0
 74
     0
 49
0.0
 74
     0
 49
-3.0
 74
     0
 49
0.0
 74
     0
 49
-3.0
 74
     0
  0
LTYPE
  5
2D2
330
22B
100
AcDbSymbolTableRecord
100
AcDbLinetypeTableRecord
  2
ACAD_ISO14W100
 70
     0
  3
ISO dash triple-dot __ . . . __ . . . __ . . . _
 72
    65
 73
     8
 40
24.0
 49
12.0
 74
     0
 49
-3.0
 74
     0
 49
0.0
 74
     0
 49
-3.0
 74
     0
 49
0.0
 74
     0
 49
-3.0
 74
     0
 49
0.0
 74
     0
 49
-3.0
 74
     0
  0
LTYPE
  5
2D3
330
22B
100
AcDbSymbolTableRecord
100
AcDbLinetypeTableRecord
  2
ACAD_ISO05W100
 70
     0
  3
ISO long-dash double-dot ____ .. ____ .. ____ . 
 72
    65
 73
     6
 40
33.0
 49
24.0
 74
     0
 49
-3.0
 74
     0
 49
0.0
 74
     0
 49
-3.0
 74
     0
 49
0.0
 74
     0
 49
-3.0
 74
     0
  0
LTYPE
  5
2D4
330
22B
100
AcDbSymbolTableRecord
100
AcDbLinetypeTableRecord
  2
ACAD_ISO04W100
 70
     0
  3
ISO long-dash dot ____ . ____ . ____ . ____ . _
 72
    65
 73
     4
 40
30.0
 49
24.0
 74
     0
 49
-3.0
 74
     0
 49
0.0
 74
     0
 49
-3.0
 74
     0
  0
LTYPE
  5
2D5
330
22B
100
AcDbSymbolTableRecord
100
AcDbLinetypeTableRecord
  2
ACAD_ISO03W100
 70
     0
  3
ISO dash space __    __    __    __    __    __
 72
    65
 73
     2
 40
30.0
 49
12.0
 74
     0
 49
-18.0
 74
     0
  0
LTYPE
  5
2D6
330
22B
100
AcDbSymbolTableRecord
100
AcDbLinetypeTableRecord
  2
ACAD_ISO02W100
 70
     0
  3
ISO dash __ __ __ __ __ __ __ __ __ __ __ __ __
 72
    65
 73
     2
 40
15.0
 49
12.0
 74
     0
 49
-3.0
 74
     0
  0
LTYPE
  5
2D7
330
22B
100
AcDbSymbolTableRecord
100
AcDbLinetypeTableRecord
  2
ACAD_ISO09W100
 70
     0
  3
ISO long-dash double-short-dash ____ __ __ ____
 72
    65
 73
     6
 40
45.0
 49
24.0
 74
     0
 49
-3.0
 74
     0
 49
6.0
 74
     0
 49
-3.0
 74
     0
 49
6.0
 74
     0
 49
-3.0
 74
     0
  0
LTYPE
  5
2D8
330
22B
100
AcDbSymbolTableRecord
100
AcDbLinetypeTableRecord
  2
ACAD_ISO08W100
 70
     0
  3
ISO long-dash short-dash ____ __ ____ __ ____ _
 72
    65
 73
     4
 40
36.0
 49
24.0
 74
     0
 49
-3.0
 74
     0
 49
6.0
 74
     0
 49
-3.0
 74
     0
  0
LTYPE
  5
2D9
330
22B
100
AcDbSymbolTableRecord
100
AcDbLinetypeTableRecord
  2
ACAD_ISO07W100
 70
     0
  3
ISO dot . . . . . . . . . . . . . . . . . . . . 
 72
    65
 73
     2
 40
3.0
 49
0.0
 74
     0
 49
-3.0
 74
     0
  0
LTYPE
  5
2DA
330
22B
100
AcDbSymbolTableRecord
100
AcDbLinetypeTableRecord
  2
ACAD_ISO06W100
 70
     0
  3
ISO long-dash triple-dot ____ ... ____ ... ____
 72
    65
 73
     8
 40
36.0
 49
24.0
 74
     0
 49
-3.0
 74
     0
 49
0.0
 74
     0
 49
-3.0
 74
     0
 49
0.0
 74
     0
 49
-3.0
 74
     0
 49
0.0
 74
     0
 49
-3.0
 74
     0
  0
LTYPE
  5
2DB
330
22B
100
AcDbSymbolTableRecord
100
AcDbLinetypeTableRecord
  2
PHANTOM2
 70
     0
  3
Phantom (.5x) ___ _ _ ___ _ _ ___ _ _ ___ _ _
 72
    65
 73
     6
 40
31.75
 49
15.875
 74
     0
 49
-3.175
 74
     0
 49
3.175
 74
     0
 49
-3.175
 74
     0
 49
3.175
 74
     0
 49
-3.175
 74
     0
  0
LTYPE
  5
2DC
330
22B
100
AcDbSymbolTableRecord
100
AcDbLinetypeTableRecord
  2
PHANTOM
 70
     0
  3
Phantom ______  __  __  ______  __  __  ______ 
 72
    65
 73
     6
 40
63.50000000000001
 49
31.75
 74
     0
 49
-6.35
 74
     0
 49
6.35
 74
     0
 49
-6.35
 74
     0
 49
6.35
 74
     0
 49
-6.35
 74
     0
  0
LTYPE
  5
2DE
330
22B
100
AcDbSymbolTableRecord
100
AcDbLinetypeTableRecord
  2
HOT_WATER_SUPPLY
 70
     0
  3
Hot water supply ---- HW ---- HW ---- HW ----
 72
    65
 73
     3
 40
22.86
 49
12.7
 74
     0
 49
-5.08
 74
     2
 75
     0
340
2DD
 46
2.54
 50
0.0
 44
-2.54
 45
-1.27
  9
HW
 49
-5.08
 74
     0
  0
LTYPE
  5
2DF
330
22B
100
AcDbSymbolTableRecord
100
AcDbLinetypeTableRecord
  2
HIDDENX2
 70
     0
  3
Hidden (2x) ____ ____ ____ ____ ____ ____ ____ 
 72
    65
 73
     2
 40
19.05
 49
12.7
 74
     0
 49
-6.35
 74
     0
  0
LTYPE
  5
2E2
330
22B
100
AcDbSymbolTableRecord
100
AcDbLinetypeTableRecord
  2
ZIGZAG
 70
     0
  3
Zig zag /\/\/\/\/\/\/\/\/\/\/\/\/\/\/\/\/\/\/\/\/\/\/\/
 72
    65
 73
     4
 40
20.32254
 49
0.00254
 74
     0
 49
-5.08
 74
     2
 75
     0
340
2E0
 46
5.08
 50
0.0
 44
-5.08
 45
0.0
  9
ZIG
 49
-10.16
 74
     2
 75
     0
340
2E1
 46
5.08
 50
180.0
 44
5.08
 45
0.0
  9
ZIG
 49
-5.08
 74
     0
  0
LTYPE
  5
2E4
330
22B
100
AcDbSymbolTableRecord
100
AcDbLinetypeTableRecord
  2
TRACKS
 70
     0
  3
Tracks -|-|-|-|-|-|-|-|-|-|-|-|-|-|-|-|-|-|-|-|-|-|-|-|-
 72
    65
 73
     2
 40
7.62
 49
3.81
 74
     2
 75
     0
340
2E3
 46
6.35
 50
0.0
 44
0.0
 45
0.0
  9
TRACK1
 49
3.81
 74
     0
  0
LTYPE
  5
2E5
330
22B
100
AcDbSymbolTableRecord
100
AcDbLinetypeTableRecord
  2
PHANTOMX2
 70
     0
  3
Phantom (2x) ____________    ____    ____   _
 72
    65
 73
     6
 40
127.0
 49
63.5
 74
     0
 49
-12.7
 74
     0
 49
12.7
 74
     0
 49
-12.7
 74
     0
 49
12.7
 74
     0
 49
-12.7
 74
     0
  0
LTYPE
  5
2E7
330
22B
100
AcDbSymbolTableRecord
100
AcDbLinetypeTableRecord
  2
FENCELINE1
 70
     0
  3
Fenceline circle ----0-----0----0-----0----0-----0--
 72
    65
 73
     4
 40
36.83
 49
6.35
 74
     0
 49
-2.54
 74
     2
 75
     0
340
2E6
 46
2.54
 50
0.0
 44
-2.54
 45
0.0
  9
CIRC1
 49
-2.54
 74
     0
 49
25.4
 74
     0
  0
LTYPE
  5
2E9
330
22B
100
AcDbSymbolTableRecord
100
AcDbLinetypeTableRecord
  2
DRAINAGE2
 70
     0
  3
Drainage reversed----<----<----<----
 72
    65
 73
     2
 40
10.16
 49
5.08
 74
     2
 75
     0
340
2E8
 46
2.54
 50
0.0
 44
0.0
 45
0.0
  9
RIGHT_ARROW
 49
5.08
 74
     0
  0
LTYPE
  5
2EB
330
22B
100
AcDbSymbolTableRecord
100
AcDbLinetypeTableRecord
  2
DRAINAGE
 70
     0
  3
Drainage ---->---->---->----
 72
    65
 73
     2
 40
10.16
 49
5.08
 74
     2
 75
     0
340
2EA
 46
2.54
 50
180.0
 44
0.0
 45
0.0
  9
RIGHT_ARROW
 49
5.08
 74
     0
  0
LTYPE
  5
2EC
330
22B
100
AcDbSymbolTableRecord
100
AcDbLinetypeTableRecord
  2
DOTX2
 70
     0
  3
Dot (2x) .  .  .  .  .  .  .  .  .  .  .  .  .  .
 72
    65
 73
     2
 40
12.7
 49
0.0
 74
     0
 49
-12.7
 74
     0
  0
LTYPE
  5
2ED
330
22B
100
AcDbSymbolTableRecord
100
AcDbLinetypeTableRecord
  2
HIDDEN2
 70
     0
  3
Hidden (.5x) _ _ _ _ _ _ _ _ _ _ _ _ _ _ _ _ _ 
 72
    65
 73
     2
 40
4.762499999999999
 49
3.175
 74
     0
 49
-1.5875
 74
     0
  0
LTYPE
  5
2EE
330
22B
100
AcDbSymbolTableRecord
100
AcDbLinetypeTableRecord
  2
HIDDEN
 70
     0
  3
Hidden __ __ __ __ __ __ __ __ __ __ __ __ __ __
 72
    65
 73
     2
 40
9.524999999999999
 49
6.35
 74
     0
 49
-3.175
 74
     0
  0
LTYPE
  5
2F0
330
22B
100
AcDbSymbolTableRecord
100
AcDbLinetypeTableRecord
  2
GAS_LINE
 70
     0
  3
Gas line ----GAS----GAS----GAS----GAS----GAS----GAS--
 72
    65
 73
     3
 40
24.13
 49
12.7
 74
     0
 49
-5.08
 74
     2
 75
     0
340
2EF
 46
2.54
 50
0.0
 44
-2.54
 45
-1.27
  9
GAS
 49
-6.35
 74
     0
  0
LTYPE
  5
2F2
330
22B
100
AcDbSymbolTableRecord
100
AcDbLinetypeTableRecord
  2
FENCELINE2
 70
     0
  3
Fenceline square ----[]-----[]----[]-----[]----[]---
 72
    65
 73
     4
 40
36.83
 49
6.35
 74
     0
 49
-2.54
 74
     2
 75
     0
340
2F1
 46
2.54
 50
0.0
 44
-2.54
 45
0.0
  9
BOX
 49
-2.54
 74
     0
 49
25.4
 74
     0
  0
LTYPE
  5
2F3
330
22B
100
AcDbSymbolTableRecord
100
AcDbLinetypeTableRecord
  2
DIVIDE
 70
     0
  3
Divide ____ . . ____ . . ____ . . ____ . . ____
 72
    65
 73
     6
 40
31.75
 49
12.7
 74
     0
 49
-6.35
 74
     0
 49
0.0
 74
     0
 49
-6.35
 74
     0
 49
0.0
 74
     0
 49
-6.35
 74
     0
  0
LTYPE
  5
2F4
330
22B
100
AcDbSymbolTableRecord
100
AcDbLinetypeTableRecord
  2
DASHEDX2
 70
     0
  3
Dashed (2x) ____  ____  ____  ____  ____  ___
 72
    65
 73
     2
 40
38.09999999999999
 49
25.4
 74
     0
 49
-12.7
 74
     0
  0
LTYPE
  5
2F5
330
22B
100
AcDbSymbolTableRecord
100
AcDbLinetypeTableRecord
  2
DASHED2
 70
     0
  3
Dashed (.5x) _ _ _ _ _ _ _ _ _ _ _ _ _ _ _ _ _ 
 72
    65
 73
     2
 40
9.524999999999999
 49
6.35
 74
     0
 49
-3.175
 74
     0
  0
LTYPE
  5
2F6
330
22B
100
AcDbSymbolTableRecord
100
AcDbLinetypeTableRecord
  2
DASHED
 70
     0
  3
Dashed __ __ __ __ __ __ __ __ __ __ __ __ __ _
 72
    65
 73
     2
 40
19.05
 49
12.7
 74
     0
 49
-6.35
 74
     0
  0
LTYPE
  5
2F7
330
22B
100
AcDbSymbolTableRecord
100
AcDbLinetypeTableRecord
  2
DOT2
 70
     0
  3
Dot (.5x) ........................................
 72
    65
 73
     2
 40
3.175
 49
0.0
 74
     0
 49
-3.175
 74
     0
  0
LTYPE
  5
2F8
330
22B
100
AcDbSymbolTableRecord
100
AcDbLinetypeTableRecord
  2
DOT
 70
     0
  3
Dot . . . . . . . . . . . . . . . . . . . . . . . .
 72
    65
 73
     2
 40
6.35
 49
0.0
 74
     0
 49
-6.35
 74
     0
  0
LTYPE
  5
2F9
330
22B
100
AcDbSymbolTableRecord
100
AcDbLinetypeTableRecord
  2
DIVIDEX2
 70
     0
  3
Divide (2x) ________  .  .  ________  .  .  _
 72
    65
 73
     6
 40
63.5
 49
25.4
 74
     0
 49
-12.7
 74
     0
 49
0.0
 74
     0
 49
-12.7
 74
     0
 49
0.0
 74
     0
 49
-12.7
 74
     0
  0
LTYPE
  5
2FA
330
22B
100
AcDbSymbolTableRecord
100
AcDbLinetypeTableRecord
  2
DIVIDE2
 70
     0
  3
Divide (.5x) __..__..__..__..__..__..__..__.._
 72
    65
 73
     6
 40
15.875
 49
6.35
 74
     0
 49
-3.175
 74
     0
 49
0.0
 74
     0
 49
-3.175
 74
     0
 49
0.0
 74
     0
 49
-3.175
 74
     0
  0
LTYPE
  5
2FB
330
22B
100
AcDbSymbolTableRecord
100
AcDbLinetypeTableRecord
  2
CENTER2
 70
     0
  3
Center (.5x) ___ _ ___ _ ___ _ ___ _ ___ _ ___
 72
    65
 73
     4
 40
28.575
 49
19.05
 74
     0
 49
-3.175
 74
     0
 49
3.175
 74
     0
 49
-3.175
 74
     0
  0
LTYPE
  5
2FC
330
22B
100
AcDbSymbolTableRecord
100
AcDbLinetypeTableRecord
  2
CENTER
 70
     0
  3
Center ____ _ ____ _ ____ _ ____ _ ____ _ ____
 72
    65
 73
     4
 40
50.8
 49
31.75
 74
     0
 49
-6.35
 74
     0
 49
6.35
 74
     0
 49
-6.35
 74
     0
  0
LTYPE
  5
2FD
330
22B
100
AcDbSymbolTableRecord
100
AcDbLinetypeTableRecord
  2
BORDERX2
 70
     0
  3
Border (2x) ____  ____  .  ____  ____  .  ___
 72
    65
 73
     6
 40
88.89999999999999
 49
25.4
 74
     0
 49
-12.7
 74
     0
 49
25.4
 74
     0
 49
-12.7
 74
     0
 49
0.0
 74
     0
 49
-12.7
 74
     0
  0
LTYPE
  5
2FE
330
22B
100
AcDbSymbolTableRecord
100
AcDbLinetypeTableRecord
  2
BORDER2
 70
     0
  3
Border (.5x) __.__.__.__.__.__.__.__.__.__.__.
 72
    65
 73
     6
 40
22.225
 49
6.35
 74
     0
 49
-3.175
 74
     0
 49
6.35
 74
     0
 49
-3.175
 74
     0
 49
0.0
 74
     0
 49
-3.175
 74
     0
  0
LTYPE
  5
2FF
330
22B
100
AcDbSymbolTableRecord
100
AcDbLinetypeTableRecord
  2
DASHDOTX2
 70
     0
  3
Dash dot (2x) ____  .  ____  .  ____  .  ___
 72
    65
 73
     4
 40
50.8
 49
25.4
 74
     0
 49
-12.7
 74
     0
 49
0.0
 74
     0
 49
-12.7
 74
     0
  0
LTYPE
  5
300
330
22B
100
AcDbSymbolTableRecord
100
AcDbLinetypeTableRecord
  2
DASHDOT2
 70
     0
  3
Dash dot (.5x) _._._._._._._._._._._._._._._.
 72
    65
 73
     4
 40
12.7
 49
6.35
 74
     0
 49
-3.175
 74
     0
 49
0.0
 74
     0
 49
-3.175
 74
     0
  0
ENDTAB
  0
TABLE
  2
LAYER
  5
229
330
0
100
AcDbSymbolTable
 70
     3
  0
LAYER
  5
236
330
229
100
AcDbSymbolTableRecord
100
AcDbLayerTableRecord
  2
0
 70
     0
 62
    18
420
        0
  6
Continuous
370
    25
390
235
347
26B
348
0
  0
LAYER
  5
301
330
229
100
AcDbSymbolTableRecord
100
AcDbLayerTableRecord
  2
layer 1
 70
     0
 62
     5
420
      255
  6
Continuous
370
    25
390
235
347
26B
348
0
  0
LAYER
  5
302
330
229
100
AcDbSymbolTableRecord
100
AcDbLayerTableRecord
  2
layer 2
 70
     0
 62
     1
420
 16711680
  6
Continuous
370
    25
390
235
347
26B
348
0
  0
ENDTAB
  0
TABLE
  2
STYLE
  5
22A
330
0
100
AcDbSymbolTable
 70
    14
  0
STYLE
  5
237
330
22A
100
AcDbSymbolTableRecord
100
AcDbTextStyleTableRecord
  2
Standard
 70
     0
 40
0.0
 41
1.0
 50
0.0
 71
     0
 42
0.2
  3
txt
  4

  0
STYLE
  5
2CE
330
22A
100
AcDbSymbolTableRecord
100
AcDbTextStyleTableRecord
  2
textstyle0
 70
     0
 40
0.0
 41
1.0
 50
0.0
 71
     0
 42
0.2
  3
ltypeshp.shx
  4

  0
STYLE
  5
2CF
330
22A
100
AcDbSymbolTableRecord
100
AcDbTextStyleTableRecord
  2
textstyle1
 70
     0
 40
0.0
 41
1.0
 50
0.0
 71
     0
 42
0.2
  3
ltypeshp.shx
  4

  0
STYLE
  5
2DD
330
22A
100
AcDbSymbolTableRecord
100
AcDbTextStyleTableRecord
  2
textstyle2
 70
     0
 40
0.0
 41
1.0
 50
0.0
 71
     0
 42
0.2
  3
STANDARD
  4

  0
STYLE
  5
2E0
330
22A
100
AcDbSymbolTableRecord
100
AcDbTextStyleTableRecord
  2
textstyle3
 70
     0
 40
0.0
 41
1.0
 50
0.0
 71
     0
 42
0.2
  3
ltypeshp.shx
  4

  0
STYLE
  5
2E1
330
22A
100
AcDbSymbolTableRecord
100
AcDbTextStyleTableRecord
  2
textstyle4
 70
     0
 40
0.0
 41
1.0
 50
0.0
 71
     0
 42
0.2
  3
ltypeshp.shx
  4

  0
STYLE
  5
2E3
330
22A
100
AcDbSymbolTableRecord
100
AcDbTextStyleTableRecord
  2
textstyle5
 70
     0
 40
0.0
 41
1.0
 50
0.0
 71
     0
 42
0.2
  3
ltypeshp.shx
  4

  0
STYLE
  5
2E6
330
22A
100
AcDbSymbolTableRecord
100
AcDbTextStyleTableRecord
  2
textstyle6
 70
     0
 40
0.0
 41
1.0
 50
0.0
 71
     0
 42
0.2
  3
ltypeshp.shx
  4

  0
STYLE
  5
2E8
330
22A
100
AcDbSymbolTableRecord
100
AcDbTextStyleTableRecord
  2
textstyle7
 70
     0
 40
0.0
 41
1.0
 50
0.0
 71
     0
 42
0.2
  3
qcadshp.shx
  4

  0
STYLE
  5
2EA
330
22A
100
AcDbSymbolTableRecord
100
AcDbTextStyleTableRecord
  2
textstyle8
 70
     0
 40
0.0
 41
1.0
 50
0.0
 71
     0
 42
0.2
  3
qcadshp.shx
  4

  0
STYLE
  5
2EF
330
22A
100
AcDbSymbolTableRecord
100
AcDbTextStyleTableRecord
  2
textstyle9
 70
     0
 40
0.0
 41
1.0
 50
0.0
 71
     0
 42
0.2
  3
STANDARD
  4

  0
STYLE
  5
2F1
330
22A
100
AcDbSymbolTableRecord
100
AcDbTextStyleTableRecord
  2
textstyle10
 70
     0
 40
0.0
 41
1.0
 50
0.0
 71
     0
 42
0.2
  3
ltypeshp.shx
  4

  0
STYLE
  5
305
330
22A
100
AcDbSymbolTableRecord
100
AcDbTextStyleTableRecord
  2
textstyle11
 70
     0
 40
0.0
 41
1.0
 50
0.0
 71
     0
 42
0.2
  3

  4

1001
ACAD
1000
Arial
1071
        0
  0
STYLE
  5
306
330
22A
100
AcDbSymbolTableRecord
100
AcDbTextStyleTableRecord
  2
textstyle12
 70
     0
 40
0.0
 41
1.0
 50
0.0
 71
     0
 42
0.2
  3

  4

1001
ACAD
1000
Arial
1071
        0
  0
ENDTAB
  0
TABLE
  2
VIEW
  5
22C
330
0
100
AcDbSymbolTable
 70
     0
  0
ENDTAB
  0
TABLE
  2
UCS
  5
22D
330
0
100
AcDbSymbolTable
 70
     0
  0
ENDTAB
  0
TABLE
  2
APPID
  5
22F
330
0
100
AcDbSymbolTable
 70
     2
  0
APPID
  5
238
330
22F
100
AcDbSymbolTableRecord
100
AcDbRegAppTableRecord
  2
ACAD
 70
     0
  0
APPID
  5
293
330
22F
100
AcDbSymbolTableRecord
100
AcDbRegAppTableRecord
  2
QCAD
 70
     0
  0
ENDTAB
  0
TABLE
  2
DIMSTYLE
  5
230
330
0
100
AcDbSymbolTable
 70
     2
100
AcDbDimStyleTable
  0
DIMSTYLE
105
24C
330
230
100
AcDbSymbolTableRecord
100
AcDbDimStyleTableRecord
  2
Standard
 70
     0
178
     0
340
237
  0
DIMSTYLE
105
2C6
330
230
100
AcDbSymbolTableRecord
100
AcDbDimStyleTableRecord
  2
QCADDimStyle
 70
     0
 41
2.5
 42
0.625
 44
1.25
 73
     0
 77
     1
140
2.5
147
0.625
178
     0
340
237
  0
ENDTAB
  0
TABLE
  2
BLOCK_RECORD
  5
228
330
0
100
AcDbSymbolTable
 70
     0
  0
BLOCK_RECORD
  5
244
330
228
100
AcDbSymbolTableRecord
100
AcDbBlockTableRecord
  2
*Model_Space
340
247
 70
     0
280
     1
281
     0
  0
BLOCK_RECORD
  5
240
330
228
100
AcDbSymbolTableRecord
100
AcDbBlockTableRecord
  2
*Paper_Space
340
243
 70
     0
280
     1
281
     0
  0
ENDTAB
  0
ENDSEC
  0
SECTION
  2
BLOCKS
  0
BLOCK
  5
245
330
244
100
AcDbEntity
  8
0
100
AcDbBlockBegin
  2
*Model_Space
 70
     0
 10
0.0
 20
0.0
 30
0.0
  3
*Model_Space
  1

  0
ENDBLK
  5
246
330
244
100
AcDbEntity
  8
0
100
AcDbBlockEnd
  0
BLOCK
  5
241
330
240
100
AcDbEntity
 67
     1
  8
0
100
AcDbBlockBegin
  2
*Paper_Space
 70
     0
 10
0.0
 20
0.0
 30
0.0
  3
*Paper_Space
  1

  0
ENDBLK
  5
242
330
240
100
AcDbEntity
 67
     1
  8
0
100
AcDbBlockEnd
  0
ENDSEC
  0
SECTION
  2
ENTITIES
  0
LINE
  5
39
330
244
100
AcDbEntity
  8
layer 1
100
AcDbLine
 10
-170.197919092306
 20
130.9137080376692
 30
0.0
 11
-118.1979190923061
 21
130.9137080376692
 31
0.0
  0
LINE
  5
1E1
330
244
100
AcDbEntity
  8
layer 1
100
AcDbLine
 10
173.8838943328385
 20
-68.970508100387
 30
0.0
 11
463.8838943328385
 21
-68.970508100387
 31
0.0
  0
LINE
  5
3A
330
244
100
AcDbEntity
  8
layer 1
100
AcDbLine
 10
99.80208090769406
 20
-49.08629196233079
 30
0.0
 11
99.80208090769406
 21
-69.08629196233079
 31
0.0
  0
LINE
  5
1E2
330
244
100
AcDbEntity
  8
layer 1
100
AcDbLine
 10
463.8838943328386
 20
131.029491899613
 30
0.0
 11
418.8838943328386
 21
131.029491899613
 31
0.0
  0
LINE
  5
3B
330
244
100
AcDbEntity
  8
layer 1
100
AcDbLine
 10
13.80208090769406
 20
-69.08629196233079
 30
0.0
 11
-170.197919092306
 21
-69.08629196233079
 31
0.0
  0
LINE
  5
1E3
330
244
100
AcDbEntity
  8
layer 1
100
AcDbLine
 10
403.8838943328386
 20
131.029491899613
 30
0.0
 11
358.8838943328386
 21
131.029491899613
 31
0.0
  0
LINE
  5
3C
330
244
100
AcDbEntity
  8
layer 1
100
AcDbLine
 10
-170.197919092306
 20
-69.08629196233079
 30
0.0
 11
-170.197919092306
 21
-64.08629196233079
 31
0.0
  0
LINE
  5
1E4
330
244
100
AcDbEntity
  8
layer 1
100
AcDbLine
 10
278.8838943328387
 20
131.029491899613
 30
0.0
 11
173.8838943328387
 21
131.029491899613
 31
0.0
  0
LINE
  5
3E
330
244
100
AcDbEntity
  8
layer 2
100
AcDbLine
 10
-150.197919092306
 20
109.9137080376692
 30
0.0
 11
-120.197919092306
 21
109.9137080376692
 31
0.0
  0
LINE
  5
1E5
330
244
100
AcDbEntity
  8
layer 1
100
AcDbLine
 10
173.8838943328387
 20
131.029491899613
 30
0.0
 11
173.8838943328387
 21
115.0294918996131
 31
0.0
  0
LINE
  5
3F
330
244
100
AcDbEntity
  8
layer 2
100
AcDbLine
 10
-120.197919092306
 20
109.9137080376692
 30
0.0
 11
-120.197919092306
 21
113.9137080376692
 31
0.0
  0
LINE
  5
1E6
330
244
100
AcDbEntity
  8
layer 1
100
AcDbLine
 10
173.8838943328387
 20
85.02949189961303
 30
0.0
 11
173.8838943328387
 21
63.02949189961303
 31
0.0
  0
LINE
  5
40
330
244
100
AcDbEntity
  8
layer 2
100
AcDbLine
 10
-120.197919092306
 20
113.9137080376692
 30
0.0
 11
-150.197919092306
 21
113.9137080376692
 31
0.0
  0
LINE
  5
1E7
330
244
100
AcDbEntity
  8
layer 1
100
AcDbLine
 10
173.8838943328385
 20
3.029491899613006
 30
0.0
 11
173.8838943328385
 21
-18.97050810038699
 31
0.0
  0
LINE
  5
41
330
244
100
AcDbEntity
  8
layer 2
100
AcDbLine
 10
-150.197919092306
 20
113.9137080376692
 30
0.0
 11
-150.197919092306
 21
109.9137080376692
 31
0.0
  0
LINE
  5
1E8
330
244
100
AcDbEntity
  8
layer 1
100
AcDbLine
 10
173.8838943328385
 20
-48.97050810038699
 30
0.0
 11
173.8838943328385
 21
-68.970508100387
 31
0.0
  0
LINE
  5
42
330
244
100
AcDbEntity
  8
layer 2
100
AcDbLine
 10
-93.19791909230605
 20
109.9137080376692
 30
0.0
 11
-63.19791909230605
 21
109.9137080376692
 31
0.0
  0
LINE
  5
1E9
330
244
100
AcDbEntity
  8
layer 1
100
AcDbLine
 10
463.8838943328386
 20
131.029491899613
 30
0.0
 11
463.8838943328386
 21
115.0294918996131
 31
0.0
  0
LINE
  5
43
330
244
100
AcDbEntity
  8
layer 2
100
AcDbLine
 10
-63.19791909230605
 20
109.9137080376692
 30
0.0
 11
-63.19791909230605
 21
113.9137080376692
 31
0.0
  0
LINE
  5
1EA
330
244
100
AcDbEntity
  8
layer 1
100
AcDbLine
 10
463.8838943328386
 20
85.02949189961303
 30
0.0
 11
463.8838943328386
 21
63.02949189961303
 31
0.0
  0
LINE
  5
44
330
244
100
AcDbEntity
  8
layer 2
100
AcDbLine
 10
-63.19791909230605
 20
113.9137080376692
 30
0.0
 11
-93.19791909230605
 21
113.9137080376692
 31
0.0
  0
LINE
  5
1EB
330
244
100
AcDbEntity
  8
layer 1
100
AcDbLine
 10
463.8838943328385
 20
3.029491899613006
 30
0.0
 11
463.8838943328385
 21
-18.97050810038699
 31
0.0
  0
LINE
  5
45
330
244
100
AcDbEntity
  8
layer 2
100
AcDbLine
 10
-93.19791909230605
 20
113.9137080376692
 30
0.0
 11
-93.19791909230605
 21
109.9137080376692
 31
0.0
  0
LINE
  5
1EC
330
244
100
AcDbEntity
  8
layer 1
100
AcDbLine
 10
463.8838943328385
 20
-48.97050810038699
 30
0.0
 11
463.8838943328385
 21
-68.970508100387
 31
0.0
  0
LINE
  5
46
330
244
100
AcDbEntity
  8
layer 2
100
AcDbLine
 10
-7.197919092305938
 20
109.9137080376692
 30
0.0
 11
22.80208090769406
 21
109.9137080376692
 31
0.0
  0
LINE
  5
1ED
330
244
100
AcDbEntity
  8
layer 1
100
AcDbLine
 10
169.8838943328387
 20
85.02949189961303
 30
0.0
 11
173.8838943328387
 21
85.02949189961303
 31
0.0
  0
LINE
  5
47
330
244
100
AcDbEntity
  8
layer 2
100
AcDbLine
 10
22.80208090769406
 20
109.9137080376692
 30
0.0
 11
22.80208090769406
 21
113.9137080376692
 31
0.0
  0
LINE
  5
1EE
330
244
100
AcDbEntity
  8
layer 1
100
AcDbLine
 10
467.8838943328386
 20
85.02949189961303
 30
0.0
 11
463.8838943328386
 21
85.02949189961303
 31
0.0
  0
LINE
  5
48
330
244
100
AcDbEntity
  8
layer 2
100
AcDbLine
 10
22.80208090769406
 20
113.9137080376692
 30
0.0
 11
-7.197919092305938
 21
113.9137080376692
 31
0.0
  0
LINE
  5
1EF
330
244
100
AcDbEntity
  8
layer 1
100
AcDbLine
 10
173.8838943328387
 20
115.0294918996131
 30
0.0
 11
169.8838943328387
 21
115.0294918996131
 31
0.0
  0
LINE
  5
49
330
244
100
AcDbEntity
  8
layer 2
100
AcDbLine
 10
-7.197919092305938
 20
113.9137080376692
 30
0.0
 11
-7.197919092305938
 21
109.9137080376692
 31
0.0
  0
LINE
  5
1F0
330
244
100
AcDbEntity
  8
layer 1
100
AcDbLine
 10
463.8838943328386
 20
115.0294918996131
 30
0.0
 11
467.8838943328386
 21
115.0294918996131
 31
0.0
  0
LINE
  5
4A
330
244
100
AcDbEntity
  8
layer 2
100
AcDbLine
 10
-150.197919092306
 20
-57.08629196233079
 30
0.0
 11
-120.197919092306
 21
-57.08629196233079
 31
0.0
  0
LINE
  5
1F1
330
244
100
AcDbEntity
  8
layer 1
100
AcDbLine
 10
169.8838943328387
 20
115.0294918996131
 30
0.0
 11
169.8838943328387
 21
85.02949189961303
 31
0.0
  0
LINE
  5
4B
330
244
100
AcDbEntity
  8
layer 2
100
AcDbLine
 10
-120.197919092306
 20
-57.08629196233079
 30
0.0
 11
-120.197919092306
 21
-53.08629196233079
 31
0.0
  0
LINE
  5
1F2
330
244
100
AcDbEntity
  8
layer 1
100
AcDbLine
 10
467.8838943328386
 20
115.0294918996131
 30
0.0
 11
467.8838943328386
 21
85.02949189961303
 31
0.0
  0
LINE
  5
4C
330
244
100
AcDbEntity
  8
layer 2
100
AcDbLine
 10
-120.197919092306
 20
-53.08629196233079
 30
0.0
 11
-150.197919092306
 21
-53.08629196233079
 31
0.0
  0
LINE
  5
1F3
330
244
100
AcDbEntity
  8
layer 1
100
AcDbLine
 10
169.8838943328385
 20
3.029491899613006
 30
0.0
 11
173.8838943328385
 21
3.029491899613006
 31
0.0
  0
LINE
  5
4D
330
244
100
AcDbEntity
  8
layer 2
100
AcDbLine
 10
-150.197919092306
 20
-53.08629196233079
 30
0.0
 11
-150.197919092306
 21
-57.08629196233079
 31
0.0
  0
LINE
  5
1F4
330
244
100
AcDbEntity
  8
layer 1
100
AcDbLine
 10
467.8838943328385
 20
3.029491899613006
 30
0.0
 11
463.8838943328385
 21
3.029491899613006
 31
0.0
  0
LINE
  5
4E
330
244
100
AcDbEntity
  8
layer 2
100
AcDbLine
 10
-93.19791909230594
 20
-57.08629196233079
 30
0.0
 11
-63.19791909230594
 21
-57.08629196233079
 31
0.0
  0
LINE
  5
1F5
330
244
100
AcDbEntity
  8
layer 1
100
AcDbLine
 10
173.8838943328387
 20
63.02949189961303
 30
0.0
 11
169.8838943328387
 21
63.02949189961303
 31
0.0
  0
LINE
  5
4F
330
244
100
AcDbEntity
  8
layer 2
100
AcDbLine
 10
-63.19791909230594
 20
-57.08629196233079
 30
0.0
 11
-63.19791909230594
 21
-53.08629196233079
 31
0.0
  0
LINE
  5
1F6
330
244
100
AcDbEntity
  8
layer 1
100
AcDbLine
 10
463.8838943328386
 20
63.02949189961303
 30
0.0
 11
467.8838943328386
 21
63.02949189961303
 31
0.0
  0
LINE
  5
50
330
244
100
AcDbEntity
  8
layer 2
100
AcDbLine
 10
-63.19791909230594
 20
-53.08629196233079
 30
0.0
 11
-93.19791909230594
 21
-53.08629196233079
 31
0.0
  0
LINE
  5
1F7
330
244
100
AcDbEntity
  8
layer 1
100
AcDbLine
 10
169.8838943328385
 20
-48.97050810038699
 30
0.0
 11
173.8838943328385
 21
-48.97050810038699
 31
0.0
  0
LINE
  5
51
330
244
100
AcDbEntity
  8
layer 2
100
AcDbLine
 10
-93.19791909230594
 20
-53.08629196233079
 30
0.0
 11
-93.19791909230594
 21
-57.08629196233079
 31
0.0
  0
LINE
  5
1F8
330
244
100
AcDbEntity
  8
layer 1
100
AcDbLine
 10
467.8838943328385
 20
-48.97050810038699
 30
0.0
 11
463.8838943328385
 21
-48.97050810038699
 31
0.0
  0
LINE
  5
52
330
244
100
AcDbEntity
  8
layer 2
100
AcDbLine
 10
-7.197919092305938
 20
-57.08629196233079
 30
0.0
 11
22.80208090769406
 21
-57.08629196233079
 31
0.0
  0
LINE
  5
1F9
330
244
100
AcDbEntity
  8
layer 1
100
AcDbLine
 10
173.8838943328385
 20
-18.97050810038699
 30
0.0
 11
169.8838943328385
 21
-18.97050810038699
 31
0.0
  0
LINE
  5
53
330
244
100
AcDbEntity
  8
layer 2
100
AcDbLine
 10
22.80208090769406
 20
-57.08629196233079
 30
0.0
 11
22.80208090769406
 21
-53.08629196233079
 31
0.0
  0
LINE
  5
1FA
330
244
100
AcDbEntity
  8
layer 1
100
AcDbLine
 10
463.8838943328385
 20
-18.97050810038699
 30
0.0
 11
467.8838943328385
 21
-18.97050810038699
 31
0.0
  0
LINE
  5
54
330
244
100
AcDbEntity
  8
layer 2
100
AcDbLine
 10
22.80208090769406
 20
-53.08629196233079
 30
0.0
 11
-7.197919092305938
 21
-53.08629196233079
 31
0.0
  0
LINE
  5
1FB
330
244
100
AcDbEntity
  8
layer 1
100
AcDbLine
 10
169.8838943328385
 20
-18.97050810038699
 30
0.0
 11
169.8838943328385
 21
-48.97050810038699
 31
0.0
  0
LINE
  5
55
330
244
100
AcDbEntity
  8
layer 2
100
AcDbLine
 10
-7.197919092305938
 20
-53.08629196233079
 30
0.0
 11
-7.197919092305938
 21
-57.08629196233079
 31
0.0
  0
LINE
  5
1FC
330
244
100
AcDbEntity
  8
layer 1
100
AcDbLine
 10
467.8838943328385
 20
-18.97050810038699
 30
0.0
 11
467.8838943328385
 21
-48.97050810038699
 31
0.0
  0
LINE
  5
56
330
244
100
AcDbEntity
  8
layer 1
100
AcDbLine
 10
95.80208090769395
 20
84.91370803766921
 30
0.0
 11
99.80208090769395
 21
84.91370803766921
 31
0.0
  0
LINE
  5
1FD
330
244
100
AcDbEntity
  8
layer 1
100
AcDbLine
 10
278.8838943328387
 20
127.0294918996131
 30
0.0
 11
358.8838943328386
 21
127.0294918996131
 31
0.0
  0
LINE
  5
57
330
244
100
AcDbEntity
  8
layer 1
100
AcDbLine
 10
99.80208090769395
 20
114.9137080376692
 30
0.0
 11
95.80208090769395
 21
114.9137080376692
 31
0.0
  0
LINE
  5
1FE
330
244
100
AcDbEntity
  8
layer 1
100
AcDbLine
 10
358.8838943328386
 20
127.0294918996131
 30
0.0
 11
358.8838943328386
 21
131.029491899613
 31
0.0
  0
LINE
  5
58
330
244
100
AcDbEntity
  8
layer 1
100
AcDbLine
 10
95.80208090769395
 20
114.9137080376692
 30
0.0
 11
95.80208090769395
 21
84.91370803766921
 31
0.0
  0
LINE
  5
1FF
330
244
100
AcDbEntity
  8
layer 1
100
AcDbLine
 10
278.8838943328387
 20
131.029491899613
 30
0.0
 11
278.8838943328387
 21
127.0294918996131
 31
0.0
  0
LINE
  5
59
330
244
100
AcDbEntity
  8
layer 1
100
AcDbLine
 10
95.80208090769406
 20
-49.08629196233079
 30
0.0
 11
99.80208090769406
 21
-49.08629196233079
 31
0.0
  0
LINE
  5
200
330
244
100
AcDbEntity
  8
layer 2
100
AcDbLine
 10
193.8838943328387
 20
110.029491899613
 30
0.0
 11
233.8838943328387
 21
110.029491899613
 31
0.0
  0
LINE
  5
5A
330
244
100
AcDbEntity
  8
layer 1
100
AcDbLine
 10
99.80208090769406
 20
-19.08629196233078
 30
0.0
 11
95.80208090769406
 21
-19.08629196233078
 31
0.0
  0
LINE
  5
201
330
244
100
AcDbEntity
  8
layer 2
100
AcDbLine
 10
233.8838943328387
 20
110.029491899613
 30
0.0
 11
233.8838943328387
 21
114.0294918996131
 31
0.0
  0
LINE
  5
5B
330
244
100
AcDbEntity
  8
layer 1
100
AcDbLine
 10
95.80208090769406
 20
-19.08629196233078
 30
0.0
 11
95.80208090769406
 21
-49.08629196233079
 31
0.0
  0
LINE
  5
202
330
244
100
AcDbEntity
  8
layer 2
100
AcDbLine
 10
233.8838943328387
 20
114.0294918996131
 30
0.0
 11
193.8838943328387
 21
114.0294918996131
 31
0.0
  0
LINE
  5
5C
330
244
100
AcDbEntity
  8
layer 1
100
AcDbLine
 10
47.80208090769395
 20
126.9137080376692
 30
0.0
 11
47.80208090769395
 21
130.9137080376692
 31
0.0
  0
LINE
  5
203
330
244
100
AcDbEntity
  8
layer 2
100
AcDbLine
 10
193.8838943328387
 20
114.0294918996131
 30
0.0
 11
193.8838943328387
 21
110.029491899613
 31
0.0
  0
LINE
  5
5D
330
244
100
AcDbEntity
  8
layer 1
100
AcDbLine
 10
-118.1979190923061
 20
130.9137080376692
 30
0.0
 11
-118.1979190923061
 21
126.9137080376692
 31
0.0
  0
LINE
  5
204
330
244
100
AcDbEntity
  8
layer 2
100
AcDbLine
 10
403.8838943328386
 20
110.029491899613
 30
0.0
 11
443.8838943328386
 21
110.029491899613
 31
0.0
  0
LINE
  5
5E
330
244
100
AcDbEntity
  8
layer 1
100
AcDbLine
 10
-170.197919092306
 20
-64.08629196233079
 30
0.0
 11
-166.197919092306
 21
-64.08629196233079
 31
0.0
  0
LINE
  5
205
330
244
100
AcDbEntity
  8
layer 2
100
AcDbLine
 10
443.8838943328386
 20
110.029491899613
 30
0.0
 11
443.8838943328386
 21
114.0294918996131
 31
0.0
  0
LINE
  5
5F
330
244
100
AcDbEntity
  8
layer 1
100
AcDbLine
 10
-166.197919092306
 20
-64.08629196233079
 30
0.0
 11
-166.197919092306
 21
-54.08629196233079
 31
0.0
  0
LINE
  5
206
330
244
100
AcDbEntity
  8
layer 2
100
AcDbLine
 10
443.8838943328386
 20
114.0294918996131
 30
0.0
 11
403.8838943328386
 21
114.0294918996131
 31
0.0
  0
LINE
  5
60
330
244
100
AcDbEntity
  8
layer 1
100
AcDbLine
 10
-166.197919092306
 20
-54.08629196233079
 30
0.0
 11
-170.197919092306
 21
-54.08629196233079
 31
0.0
  0
LINE
  5
207
330
244
100
AcDbEntity
  8
layer 2
100
AcDbLine
 10
403.8838943328386
 20
114.0294918996131
 30
0.0
 11
403.8838943328386
 21
110.029491899613
 31
0.0
  0
LINE
  5
61
330
244
100
AcDbEntity
  8
layer 1
100
AcDbLine
 10
99.80208090769395
 20
114.9137080376692
 30
0.0
 11
99.80208090769395
 21
130.9137080376692
 31
0.0
  0
LINE
  5
208
330
244
100
AcDbEntity
  8
layer 2
100
AcDbLine
 10
193.8838943328385
 20
-56.97050810038699
 30
0.0
 11
233.8838943328385
 21
-56.97050810038699
 31
0.0
  0
LINE
  5
62
330
244
100
AcDbEntity
  8
layer 1
100
AcDbLine
 10
-170.197919092306
 20
130.9137080376692
 30
0.0
 11
-170.197919092306
 21
124.4137080376692
 31
0.0
  0
LINE
  5
209
330
244
100
AcDbEntity
  8
layer 2
100
AcDbLine
 10
233.8838943328385
 20
-56.97050810038699
 30
0.0
 11
233.8838943328385
 21
-52.97050810038699
 31
0.0
  0
LINE
  5
63
330
244
100
AcDbEntity
  8
layer 1
100
AcDbLine
 10
-170.197919092306
 20
112.4137080376692
 30
0.0
 11
-166.197919092306
 21
112.4137080376692
 31
0.0
  0
LINE
  5
20A
330
244
100
AcDbEntity
  8
layer 2
100
AcDbLine
 10
233.8838943328385
 20
-52.97050810038699
 30
0.0
 11
193.8838943328385
 21
-52.97050810038699
 31
0.0
  0
LINE
  5
64
330
244
100
AcDbEntity
  8
layer 1
100
AcDbLine
 10
-166.197919092306
 20
112.4137080376692
 30
0.0
 11
-166.197919092306
 21
124.4137080376692
 31
0.0
  0
LINE
  5
20B
330
244
100
AcDbEntity
  8
layer 2
100
AcDbLine
 10
193.8838943328385
 20
-52.97050810038699
 30
0.0
 11
193.8838943328385
 21
-56.97050810038699
 31
0.0
  0
LINE
  5
65
330
244
100
AcDbEntity
  8
layer 1
100
AcDbLine
 10
-166.197919092306
 20
124.4137080376692
 30
0.0
 11
-170.197919092306
 21
124.4137080376692
 31
0.0
  0
LINE
  5
20C
330
244
100
AcDbEntity
  8
layer 2
100
AcDbLine
 10
403.8838943328385
 20
-56.97050810038699
 30
0.0
 11
443.8838943328385
 21
-56.97050810038699
 31
0.0
  0
LINE
  5
66
330
244
100
AcDbEntity
  8
layer 1
100
AcDbLine
 10
99.80208090769395
 20
84.91370803766921
 30
0.0
 11
99.80208090769395
 21
62.91370803766922
 31
0.0
  0
LINE
  5
20D
330
244
100
AcDbEntity
  8
layer 2
100
AcDbLine
 10
443.8838943328385
 20
-56.97050810038699
 30
0.0
 11
443.8838943328385
 21
-52.97050810038699
 31
0.0
  0
LINE
  5
67
330
244
100
AcDbEntity
  8
layer 1
100
AcDbLine
 10
99.80208090769406
 20
2.913708037669217
 30
0.0
 11
99.80208090769406
 21
-19.08629196233078
 31
0.0
  0
LINE
  5
20E
330
244
100
AcDbEntity
  8
layer 2
100
AcDbLine
 10
443.8838943328385
 20
-52.97050810038699
 30
0.0
 11
403.8838943328385
 21
-52.97050810038699
 31
0.0
  0
LINE
  5
68
330
244
100
AcDbEntity
  8
layer 1
100
AcDbLine
 10
95.80208090769406
 20
2.913708037669217
 30
0.0
 11
99.80208090769406
 21
2.913708037669217
 31
0.0
  0
LINE
  5
20F
330
244
100
AcDbEntity
  8
layer 2
100
AcDbLine
 10
403.8838943328385
 20
-52.97050810038699
 30
0.0
 11
403.8838943328385
 21
-56.97050810038699
 31
0.0
  0
LINE
  5
69
330
244
100
AcDbEntity
  8
layer 1
100
AcDbLine
 10
99.80208090769395
 20
62.91370803766922
 30
0.0
 11
95.80208090769395
 21
62.91370803766922
 31
0.0
  0
LINE
  5
210
330
244
100
AcDbEntity
  8
layer 2
100
AcDbLine
 10
298.8838943328386
 20
-56.97050810038699
 30
0.0
 11
338.8838943328385
 21
-56.97050810038699
 31
0.0
  0
LINE
  5
6A
330
244
100
AcDbEntity
  8
layer 1
100
AcDbLine
 10
-120.197919092306
 20
-149.0862919623308
 30
0.0
 11
-120.197919092306
 21
-145.0862919623308
 31
0.0
  0
LINE
  5
211
330
244
100
AcDbEntity
  8
layer 2
100
AcDbLine
 10
338.8838943328385
 20
-56.97050810038699
 30
0.0
 11
338.8838943328385
 21
-52.97050810038699
 31
0.0
  0
LINE
  5
6B
330
244
100
AcDbEntity
  8
layer 1
100
AcDbLine
 10
-120.197919092306
 20
-439.0862919623306
 30
0.0
 11
-120.197919092306
 21
-443.0862919623308
 31
0.0
  0
LINE
  5
212
330
244
100
AcDbEntity
  8
layer 2
100
AcDbLine
 10
338.8838943328385
 20
-52.97050810038699
 30
0.0
 11
298.8838943328386
 21
-52.97050810038699
 31
0.0
  0
LINE
  5
6C
330
244
100
AcDbEntity
  8
layer 1
100
AcDbLine
 10
-120.197919092306
 20
-145.0862919623308
 30
0.0
 11
-150.197919092306
 21
-145.0862919623308
 31
0.0
  0
LINE
  5
213
330
244
100
AcDbEntity
  8
layer 2
100
AcDbLine
 10
298.8838943328386
 20
-52.97050810038699
 30
0.0
 11
298.8838943328386
 21
-56.97050810038699
 31
0.0
  0
LINE
  5
6D
330
244
100
AcDbEntity
  8
layer 1
100
AcDbLine
 10
-120.197919092306
 20
-443.0862919623308
 30
0.0
 11
-150.197919092306
 21
-443.0862919623307
 31
0.0
  0
LINE
  5
214
330
244
100
AcDbEntity
  8
layer 2
100
AcDbLine
 10
298.8838943328387
 20
110.029491899613
 30
0.0
 11
338.8838943328387
 21
110.029491899613
 31
0.0
  0
LINE
  5
6E
330
244
100
AcDbEntity
  8
layer 1
100
AcDbLine
 10
-150.197919092306
 20
-145.0862919623308
 30
0.0
 11
-150.197919092306
 21
-149.0862919623308
 31
0.0
  0
LINE
  5
215
330
244
100
AcDbEntity
  8
layer 2
100
AcDbLine
 10
338.8838943328387
 20
110.029491899613
 30
0.0
 11
338.8838943328387
 21
114.0294918996131
 31
0.0
  0
LINE
  5
6F
330
244
100
AcDbEntity
  8
layer 1
100
AcDbLine
 10
-150.197919092306
 20
-443.0862919623307
 30
0.0
 11
-150.197919092306
 21
-439.0862919623307
 31
0.0
  0
LINE
  5
216
330
244
100
AcDbEntity
  8
layer 2
100
AcDbLine
 10
338.8838943328387
 20
114.0294918996131
 30
0.0
 11
298.8838943328387
 21
114.0294918996131
 31
0.0
  0
LINE
  5
70
330
244
100
AcDbEntity
  8
layer 1
100
AcDbLine
 10
-63.19791909230594
 20
-149.0862919623308
 30
0.0
 11
-63.19791909230594
 21
-145.0862919623308
 31
0.0
  0
LINE
  5
217
330
244
100
AcDbEntity
  8
layer 2
100
AcDbLine
 10
298.8838943328387
 20
114.0294918996131
 30
0.0
 11
298.8838943328387
 21
110.029491899613
 31
0.0
  0
LINE
  5
71
330
244
100
AcDbEntity
  8
layer 1
100
AcDbLine
 10
-63.19791909230594
 20
-439.0862919623307
 30
0.0
 11
-63.19791909230594
 21
-443.0862919623307
 31
0.0
  0
LINE
  5
218
330
244
100
AcDbEntity
  8
layer 1
100
AcDbLine
 10
403.8838943328386
 20
116.0294918996131
 30
0.0
 11
418.8838943328386
 21
116.0294918996131
 31
0.0
  0
LINE
  5
72
330
244
100
AcDbEntity
  8
layer 1
100
AcDbLine
 10
-63.19791909230594
 20
-145.0862919623308
 30
0.0
 11
-93.19791909230594
 21
-145.0862919623308
 31
0.0
  0
LINE
  5
219
330
244
100
AcDbEntity
  8
layer 1
100
AcDbLine
 10
418.8838943328386
 20
116.0294918996131
 30
0.0
 11
418.8838943328386
 21
131.029491899613
 31
0.0
  0
LINE
  5
73
330
244
100
AcDbEntity
  8
layer 1
100
AcDbLine
 10
-63.19791909230594
 20
-443.0862919623307
 30
0.0
 11
-93.19791909230594
 21
-443.0862919623307
 31
0.0
  0
LINE
  5
21A
330
244
100
AcDbEntity
  8
layer 1
100
AcDbLine
 10
403.8838943328386
 20
131.029491899613
 30
0.0
 11
403.8838943328386
 21
116.0294918996131
 31
0.0
  0
LINE
  5
74
330
244
100
AcDbEntity
  8
layer 1
100
AcDbLine
 10
-93.19791909230594
 20
-145.0862919623308
 30
0.0
 11
-93.19791909230594
 21
-149.0862919623308
 31
0.0
  0
LINE
  5
75
330
244
100
AcDbEntity
  8
layer 1
100
AcDbLine
 10
-93.19791909230594
 20
-443.0862919623307
 30
0.0
 11
-93.19791909230594
 21
-439.0862919623307
 31
0.0
  0
LINE
  5
1BB
330
244
100
AcDbEntity
  8
layer 1
100
AcDbLine
 10
172.6997856241456
 20
184.6492488258193
 30
0.0
 11
220.6997856241456
 21
184.6492488258193
 31
0.0
  0
LINE
  5
76
330
244
100
AcDbEntity
  8
layer 1
100
AcDbLine
 10
-120.197919092306
 20
-149.0862919623308
 30
0.0
 11
-93.19791909230594
 21
-149.0862919623308
 31
0.0
  0
LINE
  5
77
330
244
100
AcDbEntity
  8
layer 1
100
AcDbLine
 10
-120.197919092306
 20
-439.0862919623306
 30
0.0
 11
-93.19791909230594
 21
-439.0862919623307
 31
0.0
  0
LINE
  5
1BC
330
244
100
AcDbEntity
  8
layer 1
100
AcDbLine
 10
434.6997856241455
 20
184.6492488258194
 30
0.0
 11
434.6997856241455
 21
289.6492488258194
 31
0.0
  0
LINE
  5
78
330
244
100
AcDbEntity
  8
layer 1
100
AcDbLine
 10
-166.197919092306
 20
-149.0862919623308
 30
0.0
 11
-150.197919092306
 21
-149.0862919623308
 31
0.0
  0
LINE
  5
79
330
244
100
AcDbEntity
  8
layer 1
100
AcDbLine
 10
-166.197919092306
 20
-439.0862919623308
 30
0.0
 11
-150.197919092306
 21
-439.0862919623307
 31
0.0
  0
LINE
  5
1BD
330
244
100
AcDbEntity
  8
layer 1
100
AcDbLine
 10
434.6997856241455
 20
369.6492488258194
 30
0.0
 11
434.6997856241455
 21
474.6492488258194
 31
0.0
  0
LINE
  5
7A
330
244
100
AcDbEntity
  8
layer 1
100
AcDbLine
 10
95.80208090769406
 20
-419.0862919623308
 30
0.0
 11
99.80208090769406
 21
-419.0862919623308
 31
0.0
  0
LINE
  5
7B
330
244
100
AcDbEntity
  8
layer 1
100
AcDbLine
 10
99.80208090769406
 20
-419.0862919623308
 30
0.0
 11
99.80208090769406
 21
-379.0862919623308
 31
0.0
  0
LINE
  5
1BE
330
244
100
AcDbEntity
  8
layer 1
100
AcDbLine
 10
220.6997856241456
 20
474.6492488258193
 30
0.0
 11
172.6997856241456
 21
474.6492488258193
 31
0.0
  0
LINE
  5
7C
330
244
100
AcDbEntity
  8
layer 1
100
AcDbLine
 10
99.80208090769406
 20
-379.0862919623308
 30
0.0
 11
95.80208090769406
 21
-379.0862919623308
 31
0.0
  0
LINE
  5
7D
330
244
100
AcDbEntity
  8
layer 1
100
AcDbLine
 10
-170.197919092306
 20
-419.0862919623308
 30
0.0
 11
-166.197919092306
 21
-419.0862919623308
 31
0.0
  0
LINE
  5
1BF
330
244
100
AcDbEntity
  8
layer 1
100
AcDbLine
 10
172.6997856241456
 20
474.6492488258193
 30
0.0
 11
172.6997856241456
 21
369.6492488258193
 31
0.0
  0
LINE
  5
7E
330
244
100
AcDbEntity
  8
layer 1
100
AcDbLine
 10
-166.197919092306
 20
-379.0862919623308
 30
0.0
 11
-170.197919092306
 21
-379.0862919623308
 31
0.0
  0
LINE
  5
7F
330
244
100
AcDbEntity
  8
layer 1
100
AcDbLine
 10
-170.197919092306
 20
-379.0862919623308
 30
0.0
 11
-170.197919092306
 21
-419.0862919623308
 31
0.0
  0
LINE
  5
1C0
330
244
100
AcDbEntity
  8
layer 1
100
AcDbLine
 10
172.6997856241456
 20
289.6492488258193
 30
0.0
 11
172.6997856241456
 21
184.6492488258193
 31
0.0
  0
LINE
  5
80
330
244
100
AcDbEntity
  8
layer 1
100
AcDbLine
 10
-170.197919092306
 20
-209.0862919623308
 30
0.0
 11
-166.197919092306
 21
-209.0862919623308
 31
0.0
  0
LINE
  5
81
330
244
100
AcDbEntity
  8
layer 1
100
AcDbLine
 10
-166.197919092306
 20
-169.0862919623308
 30
0.0
 11
-170.197919092306
 21
-169.0862919623308
 31
0.0
  0
LINE
  5
82
330
244
100
AcDbEntity
  8
layer 1
100
AcDbLine
 10
-170.197919092306
 20
-169.0862919623308
 30
0.0
 11
-170.197919092306
 21
-209.0862919623308
 31
0.0
  0
LINE
  5
83
330
244
100
AcDbEntity
  8
layer 1
100
AcDbLine
 10
95.80208090769406
 20
-209.0862919623308
 30
0.0
 11
99.80208090769406
 21
-209.0862919623308
 31
0.0
  0
LINE
  5
84
330
244
100
AcDbEntity
  8
layer 1
100
AcDbLine
 10
99.80208090769406
 20
-209.0862919623308
 30
0.0
 11
99.80208090769406
 21
-169.0862919623308
 31
0.0
  0
LINE
  5
1C1
330
244
100
AcDbEntity
  8
layer 1
100
AcDbLine
 10
168.6997856241456
 20
289.6492488258193
 30
0.0
 11
172.6997856241456
 21
289.6492488258193
 31
0.0
  0
LINE
  5
85
330
244
100
AcDbEntity
  8
layer 1
100
AcDbLine
 10
99.80208090769406
 20
-169.0862919623308
 30
0.0
 11
95.80208090769406
 21
-169.0862919623308
 31
0.0
  0
LINE
  5
86
330
244
100
AcDbEntity
  8
layer 1
100
AcDbLine
 10
95.80208090769406
 20
-314.0862919623308
 30
0.0
 11
99.80208090769406
 21
-314.0862919623308
 31
0.0
  0
LINE
  5
1C2
330
244
100
AcDbEntity
  8
layer 1
100
AcDbLine
 10
172.6997856241456
 20
369.6492488258193
 30
0.0
 11
168.6997856241456
 21
369.6492488258193
 31
0.0
  0
LINE
  5
87
330
244
100
AcDbEntity
  8
layer 1
100
AcDbLine
 10
99.80208090769406
 20
-314.0862919623308
 30
0.0
 11
99.80208090769406
 21
-274.0862919623308
 31
0.0
  0
LINE
  5
88
330
244
100
AcDbEntity
  8
layer 1
100
AcDbLine
 10
99.80208090769406
 20
-274.0862919623308
 30
0.0
 11
95.80208090769406
 21
-274.0862919623308
 31
0.0
  0
LINE
  5
1C3
330
244
100
AcDbEntity
  8
layer 1
100
AcDbLine
 10
168.6997856241456
 20
369.6492488258193
 30
0.0
 11
168.6997856241456
 21
289.6492488258193
 31
0.0
  0
LINE
  5
89
330
244
100
AcDbEntity
  8
layer 1
100
AcDbLine
 10
-170.197919092306
 20
-314.0862919623308
 30
0.0
 11
-166.197919092306
 21
-314.0862919623308
 31
0.0
  0
LINE
  5
8A
330
244
100
AcDbEntity
  8
layer 1
100
AcDbLine
 10
-166.197919092306
 20
-274.0862919623308
 30
0.0
 11
-170.197919092306
 21
-274.0862919623308
 31
0.0
  0
LINE
  5
1C4
330
244
100
AcDbEntity
  8
layer 1
100
AcDbLine
 10
386.6997856241455
 20
474.6492488258193
 30
0.0
 11
386.6997856241455
 21
478.6492488258193
 31
0.0
  0
LINE
  5
8B
330
244
100
AcDbEntity
  8
layer 1
100
AcDbLine
 10
-170.197919092306
 20
-274.0862919623308
 30
0.0
 11
-170.197919092306
 21
-314.0862919623308
 31
0.0
  0
LINE
  5
8C
330
244
100
AcDbEntity
  8
layer 1
100
AcDbLine
 10
-166.197919092306
 20
-169.0862919623309
 30
0.0
 11
-166.197919092306
 21
-149.0862919623309
 31
0.0
  0
LINE
  5
1C5
330
244
100
AcDbEntity
  8
layer 1
100
AcDbLine
 10
220.6997856241456
 20
478.6492488258193
 30
0.0
 11
220.6997856241456
 21
474.6492488258193
 31
0.0
  0
LINE
  5
8D
330
244
100
AcDbEntity
  8
layer 1
100
AcDbLine
 10
-166.197919092306
 20
-274.0862919623308
 30
0.0
 11
-166.197919092306
 21
-209.0862919623307
 31
0.0
  0
LINE
  5
8E
330
244
100
AcDbEntity
  8
layer 1
100
AcDbLine
 10
-166.197919092306
 20
-379.0862919623308
 30
0.0
 11
-166.197919092306
 21
-314.0862919623308
 31
0.0
  0
LINE
  5
1C6
330
244
100
AcDbEntity
  8
layer 1
100
AcDbLine
 10
386.6997856241455
 20
180.6492488258193
 30
0.0
 11
386.6997856241455
 21
184.6492488258193
 31
0.0
  0
LINE
  5
8F
330
244
100
AcDbEntity
  8
layer 1
100
AcDbLine
 10
-166.197919092306
 20
-439.0862919623308
 30
0.0
 11
-166.197919092306
 21
-419.0862919623308
 31
0.0
  0
LINE
  5
90
330
244
100
AcDbEntity
  8
layer 1
100
AcDbLine
 10
95.80208090769406
 20
-274.0862919623308
 30
0.0
 11
95.80208090769406
 21
-209.0862919623308
 31
0.0
  0
LINE
  5
1C7
330
244
100
AcDbEntity
  8
layer 1
100
AcDbLine
 10
220.6997856241456
 20
184.6492488258193
 30
0.0
 11
220.6997856241456
 21
180.6492488258193
 31
0.0
  0
LINE
  5
91
330
244
100
AcDbEntity
  8
layer 1
100
AcDbLine
 10
95.80208090769406
 20
-169.0862919623308
 30
0.0
 11
95.80208090769406
 21
-149.0862919623309
 31
0.0
  0
LINE
  5
21B
330
244
100
AcDbEntity
  8
layer 1
100
AcDbLine
 10
169.8838943328387
 20
63.02949189961303
 30
0.0
 11
169.8838943328385
 21
3.029491899613006
 31
0.0
  0
LINE
  5
92
330
244
100
AcDbEntity
  8
layer 1
100
AcDbLine
 10
95.80208090769406
 20
-439.0862919623308
 30
0.0
 11
95.80208090769406
 21
-419.0862919623308
 31
0.0
  0
LINE
  5
21C
330
244
100
AcDbEntity
  8
layer 1
100
AcDbLine
 10
467.8838943328386
 20
63.02949189961303
 30
0.0
 11
467.8838943328385
 21
3.029491899613006
 31
0.0
  0
LINE
  5
93
330
244
100
AcDbEntity
  8
layer 1
100
AcDbLine
 10
95.80208090769406
 20
-379.0862919623308
 30
0.0
 11
95.80208090769406
 21
-314.0862919623308
 31
0.0
  0
LINE
  5
1C8
330
244
100
AcDbEntity
  8
layer 1
100
AcDbLine
 10
220.6997856241456
 20
478.6492488258193
 30
0.0
 11
386.6997856241455
 21
478.6492488258193
 31
0.0
  0
LINE
  5
1C9
330
244
100
AcDbEntity
  8
layer 1
100
AcDbLine
 10
386.6997856241455
 20
474.6492488258193
 30
0.0
 11
434.6997856241455
 21
474.6492488258194
 31
0.0
  0
LINE
  5
1CA
330
244
100
AcDbEntity
  8
layer 1
100
AcDbLine
 10
220.6997856241456
 20
180.6492488258193
 30
0.0
 11
386.6997856241455
 21
180.6492488258193
 31
0.0
  0
LINE
  5
1CB
330
244
100
AcDbEntity
  8
layer 1
100
AcDbLine
 10
386.6997856241455
 20
184.6492488258193
 30
0.0
 11
434.6997856241455
 21
184.6492488258194
 31
0.0
  0
LINE
  5
1CC
330
244
100
AcDbEntity
  8
layer 2
100
AcDbLine
 10
228.6997856241455
 20
390.6492488258193
 30
0.0
 11
378.6997856241455
 21
390.6492488258193
 31
0.0
  0
LINE
  5
1CD
330
244
100
AcDbEntity
  8
layer 2
100
AcDbLine
 10
378.6997856241455
 20
398.6492488258193
 30
0.0
 11
228.6997856241455
 21
398.6492488258193
 31
0.0
  0
LINE
  5
1CE
330
244
100
AcDbEntity
  8
layer 2
100
AcDbLine
 10
228.6997856241455
 20
360.6492488258193
 30
0.0
 11
378.6997856241455
 21
360.6492488258193
 31
0.0
  0
LINE
  5
1CF
330
244
100
AcDbEntity
  8
layer 2
100
AcDbLine
 10
378.6997856241455
 20
368.6492488258193
 30
0.0
 11
228.6997856241455
 21
368.6492488258193
 31
0.0
  0
LINE
  5
1D0
330
244
100
AcDbEntity
  8
layer 2
100
AcDbLine
 10
228.6997856241456
 20
260.6492488258193
 30
0.0
 11
378.6997856241456
 21
260.6492488258193
 31
0.0
  0
LINE
  5
1D1
330
244
100
AcDbEntity
  8
layer 2
100
AcDbLine
 10
378.6997856241456
 20
268.6492488258193
 30
0.0
 11
228.6997856241456
 21
268.6492488258193
 31
0.0
  0
LINE
  5
1D2
330
244
100
AcDbEntity
  8
layer 2
100
AcDbLine
 10
228.6997856241456
 20
290.6492488258192
 30
0.0
 11
378.6997856241456
 21
290.6492488258192
 31
0.0
  0
LINE
  5
1D3
330
244
100
AcDbEntity
  8
layer 2
100
AcDbLine
 10
378.6997856241456
 20
298.6492488258192
 30
0.0
 11
228.6997856241456
 21
298.6492488258192
 31
0.0
  0
LINE
  5
1D4
330
244
100
AcDbEntity
  8
layer 2
100
AcDbLine
 10
228.6997856241456
 20
325.6492488258192
 30
0.0
 11
378.6997856241456
 21
325.6492488258192
 31
0.0
  0
LINE
  5
1D5
330
244
100
AcDbEntity
  8
layer 2
100
AcDbLine
 10
378.6997856241456
 20
333.6492488258192
 30
0.0
 11
228.6997856241456
 21
333.6492488258192
 31
0.0
  0
ARC
  5
1D6
330
244
100
AcDbEntity
  8
layer 2
100
AcDbCircle
 10
228.6997856241455
 20
394.6492488258193
 30
0.0
 40
4.0
100
AcDbArc
 50
90.0
 51
270.0
  0
ARC
  5
1D7
330
244
100
AcDbEntity
  8
layer 2
100
AcDbCircle
 10
228.6997856241455
 20
364.6492488258193
 30
0.0
 40
4.0
100
AcDbArc
 50
90.0
 51
270.0
  0
ARC
  5
1D8
330
244
100
AcDbEntity
  8
layer 2
100
AcDbCircle
 10
228.6997856241456
 20
329.6492488258192
 30
0.0
 40
4.0
100
AcDbArc
 50
90.0
 51
270.0
  0
ARC
  5
1D9
330
244
100
AcDbEntity
  8
layer 2
100
AcDbCircle
 10
228.6997856241457
 20
294.6492488258192
 30
0.0
 40
4.0
100
AcDbArc
 50
90.0
 51
270.0
  0
ARC
  5
1DA
330
244
100
AcDbEntity
  8
layer 2
100
AcDbCircle
 10
228.6997856241457
 20
264.6492488258193
 30
0.0
 40
4.0
100
AcDbArc
 50
90.0
 51
270.0
  0
ARC
  5
1DB
330
244
100
AcDbEntity
  8
layer 2
100
AcDbCircle
 10
378.6997856241456
 20
264.6492488258193
 30
0.0
 40
4.0
100
AcDbArc
 50
270.0
 51
90.0
  0
ARC
  5
1DC
330
244
100
AcDbEntity
  8
layer 2
100
AcDbCircle
 10
378.6997856241456
 20
294.6492488258192
 30
0.0
 40
4.0
100
AcDbArc
 50
270.0
 51
90.0
  0
ARC
  5
1DD
330
244
100
AcDbEntity
  8
layer 2
100
AcDbCircle
 10
378.6997856241456
 20
329.6492488258192
 30
0.0
 40
4.0
100
AcDbArc
 50
270.0
 51
90.0
  0
ARC
  5
1DE
330
244
100
AcDbEntity
  8
layer 2
100
AcDbCircle
 10
378.6997856241455
 20
364.6492488258193
 30
0.0
 40
4.0
100
AcDbArc
 50
270.0
 51
90.0
  0
ARC
  5
1DF
330
244
100
AcDbEntity
  8
layer 2
100
AcDbCircle
 10
378.6997856241455
 20
394.6492488258193
 30
0.0
 40
4.0
100
AcDbArc
 50
270.0
 51
90.0
  0
CIRCLE
  5
21D
330
244
100
AcDbEntity
  8
layer 2
100
AcDbCircle
 10
193.8838943328387
 20
120.5294918996131
 30
0.0
 40
3.0
  0
CIRCLE
  5
21E
330
244
100
AcDbEntity
  8
layer 2
100
AcDbCircle
 10
230.8838943328386
 20
120.5294918996131
 30
0.0
 40
3.0
  0
CIRCLE
  5
21F
330
244
100
AcDbEntity
  8
layer 2
100
AcDbCircle
 10
268.8838943328386
 20
120.5294918996131
 30
0.0
 40
3.0
  0
CIRCLE
  5
220
330
244
100
AcDbEntity
  8
layer 2
100
AcDbCircle
 10
306.8838943328386
 20
120.5294918996131
 30
0.0
 40
3.0
  0
CIRCLE
  5
221
330
244
100
AcDbEntity
  8
layer 2
100
AcDbCircle
 10
344.8838943328386
 20
120.5294918996131
 30
0.0
 40
3.0
  0
CIRCLE
  5
222
330
244
100
AcDbEntity
  8
layer 2
100
AcDbCircle
 10
382.8838943328386
 20
120.5294918996131
 30
0.0
 40
3.0
  0
CIRCLE
  5
223
330
244
100
AcDbEntity
  8
layer 2
100
AcDbCircle
 10
441.3838943328386
 20
120.5294918996131
 30
0.0
 40
3.0
  0
LINE
  5
1E0
330
244
100
AcDbEntity
  8
layer 1
100
AcDbLine
 10
434.6997856241455
 20
369.6492488258194
 30
0.0
 11
434.6997856241455
 21
289.6492488258194
 31
0.0
  0
LINE
  5
CE
330
244
100
AcDbEntity
  8
layer 1
100
AcDbLine
 10
-166.197919092306
 20
185.6593684388398
 30
0.0
 11
-150.197919092306
 21
185.6593684388398
 31
0.0
  0
LINE
  5
CF
330
244
100
AcDbEntity
  8
layer 1
100
AcDbLine
 10
-120.197919092306
 20
185.6593684388398
 30
0.0
 11
-93.19791909230605
 21
185.6593684388398
 31
0.0
  0
LINE
  5
D0
330
244
100
AcDbEntity
  8
layer 1
100
AcDbLine
 10
-166.197919092306
 20
475.6593684388398
 30
0.0
 11
-150.197919092306
 21
475.6593684388396
 31
0.0
  0
LINE
  5
D1
330
244
100
AcDbEntity
  8
layer 1
100
AcDbLine
 10
-120.197919092306
 20
475.6593684388395
 30
0.0
 11
-93.19791909230605
 21
475.6593684388396
 31
0.0
  0
LINE
  5
D2
330
244
100
AcDbEntity
  8
layer 1
100
AcDbLine
 10
-166.197919092306
 20
475.6593684388398
 30
0.0
 11
-166.197919092306
 21
455.6593684388398
 31
0.0
  0
LINE
  5
D3
330
244
100
AcDbEntity
  8
layer 1
100
AcDbLine
 10
-166.197919092306
 20
415.6593684388398
 30
0.0
 11
-166.197919092306
 21
350.6593684388399
 31
0.0
  0
LINE
  5
D4
330
244
100
AcDbEntity
  8
layer 1
100
AcDbLine
 10
-166.197919092306
 20
310.6593684388399
 30
0.0
 11
-166.197919092306
 21
245.6593684388398
 31
0.0
  0
LINE
  5
D5
330
244
100
AcDbEntity
  8
layer 1
100
AcDbLine
 10
-166.197919092306
 20
205.6593684388398
 30
0.0
 11
-166.197919092306
 21
185.6593684388398
 31
0.0
  0
LINE
  5
D6
330
244
100
AcDbEntity
  8
layer 1
100
AcDbLine
 10
95.80208090769395
 20
475.6593684388398
 30
0.0
 11
95.80208090769395
 21
455.6593684388398
 31
0.0
  0
LINE
  5
D7
330
244
100
AcDbEntity
  8
layer 1
100
AcDbLine
 10
95.80208090769395
 20
415.6593684388398
 30
0.0
 11
95.80208090769395
 21
350.6593684388399
 31
0.0
  0
LINE
  5
D8
330
244
100
AcDbEntity
  8
layer 1
100
AcDbLine
 10
95.80208090769395
 20
310.6593684388399
 30
0.0
 11
95.80208090769395
 21
245.6593684388398
 31
0.0
  0
LINE
  5
D9
330
244
100
AcDbEntity
  8
layer 1
100
AcDbLine
 10
95.80208090769418
 20
205.6593684388398
 30
0.0
 11
95.80208090769395
 21
185.6593684388398
 31
0.0
  0
LINE
  5
DA
330
244
100
AcDbEntity
  8
layer 1
100
AcDbLine
 10
-150.197919092306
 20
181.6593684388399
 30
0.0
 11
-120.197919092306
 21
181.6593684388399
 31
0.0
  0
LINE
  5
DB
330
244
100
AcDbEntity
  8
layer 1
100
AcDbLine
 10
-150.197919092306
 20
479.6593684388396
 30
0.0
 11
-120.197919092306
 21
479.6593684388396
 31
0.0
  0
LINE
  5
DC
330
244
100
AcDbEntity
  8
layer 1
100
AcDbLine
 10
-120.197919092306
 20
181.6593684388399
 30
0.0
 11
-120.197919092306
 21
185.6593684388399
 31
0.0
  0
LINE
  5
DD
330
244
100
AcDbEntity
  8
layer 1
100
AcDbLine
 10
-120.197919092306
 20
479.6593684388396
 30
0.0
 11
-120.197919092306
 21
475.6593684388395
 31
0.0
  0
LINE
  5
DE
330
244
100
AcDbEntity
  8
layer 1
100
AcDbLine
 10
-150.197919092306
 20
185.6593684388399
 30
0.0
 11
-150.197919092306
 21
181.6593684388399
 31
0.0
  0
LINE
  5
DF
330
244
100
AcDbEntity
  8
layer 1
100
AcDbLine
 10
-150.197919092306
 20
475.6593684388396
 30
0.0
 11
-150.197919092306
 21
479.6593684388396
 31
0.0
  0
LINE
  5
E0
330
244
100
AcDbEntity
  8
layer 1
100
AcDbLine
 10
-93.19791909230605
 20
181.6593684388399
 30
0.0
 11
-63.19791909230605
 21
181.6593684388399
 31
0.0
  0
LINE
  5
E1
330
244
100
AcDbEntity
  8
layer 1
100
AcDbLine
 10
-93.19791909230605
 20
479.6593684388396
 30
0.0
 11
-63.19791909230605
 21
479.6593684388396
 31
0.0
  0
LINE
  5
E2
330
244
100
AcDbEntity
  8
layer 1
100
AcDbLine
 10
-63.19791909230605
 20
181.6593684388399
 30
0.0
 11
-63.19791909230605
 21
185.6593684388399
 31
0.0
  0
LINE
  5
E3
330
244
100
AcDbEntity
  8
layer 1
100
AcDbLine
 10
-63.19791909230605
 20
479.6593684388396
 30
0.0
 11
-63.19791909230605
 21
475.6593684388396
 31
0.0
  0
LINE
  5
E4
330
244
100
AcDbEntity
  8
layer 1
100
AcDbLine
 10
-93.19791909230605
 20
185.6593684388399
 30
0.0
 11
-93.19791909230605
 21
181.6593684388399
 31
0.0
  0
LINE
  5
E5
330
244
100
AcDbEntity
  8
layer 1
100
AcDbLine
 10
-93.19791909230605
 20
475.6593684388396
 30
0.0
 11
-93.19791909230605
 21
479.6593684388396
 31
0.0
  0
LINE
  5
E6
330
244
100
AcDbEntity
  8
layer 1
100
AcDbLine
 10
-170.197919092306
 20
205.6593684388398
 30
0.0
 11
-166.197919092306
 21
205.6593684388398
 31
0.0
  0
LINE
  5
E7
330
244
100
AcDbEntity
  8
layer 1
100
AcDbLine
 10
99.80208090769395
 20
205.6593684388398
 30
0.0
 11
95.80208090769418
 21
205.6593684388398
 31
0.0
  0
LINE
  5
E8
330
244
100
AcDbEntity
  8
layer 1
100
AcDbLine
 10
-166.197919092306
 20
245.6593684388398
 30
0.0
 11
-170.197919092306
 21
245.6593684388398
 31
0.0
  0
LINE
  5
E9
330
244
100
AcDbEntity
  8
layer 1
100
AcDbLine
 10
95.80208090769395
 20
245.6593684388398
 30
0.0
 11
99.80208090769395
 21
245.6593684388398
 31
0.0
  0
LINE
  5
EA
330
244
100
AcDbEntity
  8
layer 1
100
AcDbLine
 10
-170.197919092306
 20
245.6593684388398
 30
0.0
 11
-170.197919092306
 21
205.6593684388398
 31
0.0
  0
LINE
  5
EB
330
244
100
AcDbEntity
  8
layer 1
100
AcDbLine
 10
99.80208090769395
 20
245.6593684388398
 30
0.0
 11
99.80208090769395
 21
205.6593684388398
 31
0.0
  0
LINE
  5
EC
330
244
100
AcDbEntity
  8
layer 1
100
AcDbLine
 10
-170.197919092306
 20
415.6593684388399
 30
0.0
 11
-166.197919092306
 21
415.6593684388399
 31
0.0
  0
LINE
  5
ED
330
244
100
AcDbEntity
  8
layer 1
100
AcDbLine
 10
99.80208090769395
 20
415.6593684388399
 30
0.0
 11
95.80208090769395
 21
415.6593684388399
 31
0.0
  0
LINE
  5
EE
330
244
100
AcDbEntity
  8
layer 1
100
AcDbLine
 10
-166.197919092306
 20
455.6593684388398
 30
0.0
 11
-170.197919092306
 21
455.6593684388398
 31
0.0
  0
LINE
  5
EF
330
244
100
AcDbEntity
  8
layer 1
100
AcDbLine
 10
95.80208090769395
 20
455.6593684388398
 30
0.0
 11
99.80208090769395
 21
455.6593684388398
 31
0.0
  0
LINE
  5
F0
330
244
100
AcDbEntity
  8
layer 1
100
AcDbLine
 10
-170.197919092306
 20
455.6593684388398
 30
0.0
 11
-170.197919092306
 21
415.6593684388399
 31
0.0
  0
LINE
  5
F1
330
244
100
AcDbEntity
  8
layer 1
100
AcDbLine
 10
99.80208090769395
 20
455.6593684388398
 30
0.0
 11
99.80208090769395
 21
415.6593684388399
 31
0.0
  0
LINE
  5
F2
330
244
100
AcDbEntity
  8
layer 1
100
AcDbLine
 10
-170.197919092306
 20
310.6593684388399
 30
0.0
 11
-166.197919092306
 21
310.6593684388399
 31
0.0
  0
LINE
  5
F3
330
244
100
AcDbEntity
  8
layer 1
100
AcDbLine
 10
99.80208090769395
 20
310.6593684388399
 30
0.0
 11
95.80208090769395
 21
310.6593684388399
 31
0.0
  0
LINE
  5
F4
330
244
100
AcDbEntity
  8
layer 1
100
AcDbLine
 10
-166.197919092306
 20
350.6593684388399
 30
0.0
 11
-170.197919092306
 21
350.6593684388399
 31
0.0
  0
LINE
  5
F5
330
244
100
AcDbEntity
  8
layer 1
100
AcDbLine
 10
95.80208090769395
 20
350.6593684388399
 30
0.0
 11
99.80208090769395
 21
350.6593684388399
 31
0.0
  0
LINE
  5
F6
330
244
100
AcDbEntity
  8
layer 1
100
AcDbLine
 10
-170.197919092306
 20
350.6593684388399
 30
0.0
 11
-170.197919092306
 21
310.6593684388399
 31
0.0
  0
LINE
  5
F7
330
244
100
AcDbEntity
  8
layer 1
100
AcDbLine
 10
99.80208090769395
 20
350.6593684388399
 30
0.0
 11
99.80208090769395
 21
310.6593684388399
 31
0.0
  0
LINE
  5
F8
330
244
100
AcDbEntity
  8
layer 2
100
AcDbLine
 10
-153.197919092306
 20
430.6593684388399
 30
0.0
 11
-153.197919092306
 21
230.6593684388399
 31
0.0
  0
LINE
  5
F9
330
244
100
AcDbEntity
  8
layer 2
100
AcDbLine
 10
-9.197919092305938
 20
200.6593684388399
 30
0.0
 11
-5.197919092305938
 21
200.6593684388399
 31
0.0
  0
LINE
  5
FA
330
244
100
AcDbEntity
  8
layer 2
100
AcDbLine
 10
-5.197919092305938
 20
200.6593684388399
 30
0.0
 11
-5.197919092305938
 21
220.6593684388399
 31
0.0
  0
LINE
  5
FB
330
244
100
AcDbEntity
  8
layer 2
100
AcDbLine
 10
-5.197919092305938
 20
220.6593684388399
 30
0.0
 11
-9.197919092305938
 21
220.6593684388399
 31
0.0
  0
LINE
  5
FC
330
244
100
AcDbEntity
  8
layer 2
100
AcDbLine
 10
-9.197919092305938
 20
220.6593684388399
 30
0.0
 11
-9.197919092305938
 21
200.6593684388399
 31
0.0
  0
LINE
  5
FD
330
244
100
AcDbEntity
  8
layer 2
100
AcDbLine
 10
-9.197919092305938
 20
440.65936843884
 30
0.0
 11
-5.197919092305938
 21
440.65936843884
 31
0.0
  0
LINE
  5
FE
330
244
100
AcDbEntity
  8
layer 2
100
AcDbLine
 10
-5.197919092305938
 20
440.65936843884
 30
0.0
 11
-5.197919092305938
 21
460.6593684388399
 31
0.0
  0
LINE
  5
FF
330
244
100
AcDbEntity
  8
layer 2
100
AcDbLine
 10
-5.197919092305938
 20
460.6593684388399
 30
0.0
 11
-9.197919092305938
 21
460.6593684388399
 31
0.0
  0
LINE
  5
100
330
244
100
AcDbEntity
  8
layer 2
100
AcDbLine
 10
-9.197919092305938
 20
460.6593684388399
 30
0.0
 11
-9.197919092305938
 21
440.65936843884
 31
0.0
  0
LINE
  5
101
330
244
100
AcDbEntity
  8
layer 2
100
AcDbLine
 10
-9.197919092305938
 20
365.6593684388398
 30
0.0
 11
-5.197919092305938
 21
365.6593684388398
 31
0.0
  0
LINE
  5
102
330
244
100
AcDbEntity
  8
layer 2
100
AcDbLine
 10
-5.197919092305938
 20
365.6593684388398
 30
0.0
 11
-5.197919092305938
 21
405.6593684388398
 31
0.0
  0
LINE
  5
103
330
244
100
AcDbEntity
  8
layer 2
100
AcDbLine
 10
-5.197919092305938
 20
405.6593684388398
 30
0.0
 11
-9.197919092305938
 21
405.6593684388398
 31
0.0
  0
LINE
  5
104
330
244
100
AcDbEntity
  8
layer 2
100
AcDbLine
 10
-9.197919092305938
 20
405.6593684388398
 30
0.0
 11
-9.197919092305938
 21
365.6593684388398
 31
0.0
  0
LINE
  5
105
330
244
100
AcDbEntity
  8
layer 2
100
AcDbLine
 10
-9.197919092305938
 20
255.6593684388399
 30
0.0
 11
-5.197919092305938
 21
255.6593684388399
 31
0.0
  0
LINE
  5
106
330
244
100
AcDbEntity
  8
layer 2
100
AcDbLine
 10
-5.197919092305938
 20
255.6593684388399
 30
0.0
 11
-5.197919092305938
 21
295.6593684388399
 31
0.0
  0
LINE
  5
107
330
244
100
AcDbEntity
  8
layer 2
100
AcDbLine
 10
-5.197919092305938
 20
295.6593684388399
 30
0.0
 11
-9.197919092305938
 21
295.6593684388399
 31
0.0
  0
LINE
  5
108
330
244
100
AcDbEntity
  8
layer 2
100
AcDbLine
 10
-9.197919092305938
 20
295.6593684388399
 30
0.0
 11
-9.197919092305938
 21
255.6593684388399
 31
0.0
  0
LINE
  5
109
330
244
100
AcDbEntity
  8
layer 1
100
AcDbLine
 10
-243.197919092306
 20
185.6593684388399
 30
0.0
 11
-236.697919092306
 21
185.6593684388399
 31
0.0
  0
LINE
  5
10A
330
244
100
AcDbEntity
  8
layer 1
100
AcDbLine
 10
-224.697919092306
 20
185.6593684388399
 30
0.0
 11
-218.197919092306
 21
185.6593684388399
 31
0.0
  0
LINE
  5
10B
330
244
100
AcDbEntity
  8
layer 1
100
AcDbLine
 10
-218.197919092306
 20
185.6593684388399
 30
0.0
 11
-218.197919092306
 21
475.6593684388398
 31
0.0
  0
LINE
  5
10C
330
244
100
AcDbEntity
  8
layer 1
100
AcDbLine
 10
-218.197919092306
 20
475.6593684388398
 30
0.0
 11
-224.697919092306
 21
475.6593684388398
 31
0.0
  0
LINE
  5
10D
330
244
100
AcDbEntity
  8
layer 1
100
AcDbLine
 10
-236.697919092306
 20
475.6593684388398
 30
0.0
 11
-243.197919092306
 21
475.6593684388398
 31
0.0
  0
LINE
  5
10E
330
244
100
AcDbEntity
  8
layer 1
100
AcDbLine
 10
-243.197919092306
 20
475.6593684388398
 30
0.0
 11
-243.197919092306
 21
185.6593684388399
 31
0.0
  0
LINE
  5
10F
330
244
100
AcDbEntity
  8
layer 1
100
AcDbLine
 10
-275.4822199618714
 20
-147.4756213906244
 30
0.0
 11
-275.4822199618714
 21
-437.4756213906244
 31
0.0
  0
LINE
  5
110
330
244
100
AcDbEntity
  8
layer 1
100
AcDbLine
 10
-224.697919092306
 20
475.6593684388398
 30
0.0
 11
-224.697919092306
 21
479.6593684388398
 31
0.0
  0
LINE
  5
111
330
244
100
AcDbEntity
  8
layer 1
100
AcDbLine
 10
-224.697919092306
 20
479.6593684388398
 30
0.0
 11
-236.697919092306
 21
479.6593684388398
 31
0.0
  0
LINE
  5
112
330
244
100
AcDbEntity
  8
layer 1
100
AcDbLine
 10
-236.697919092306
 20
479.6593684388398
 30
0.0
 11
-236.697919092306
 21
475.6593684388398
 31
0.0
  0
LINE
  5
113
330
244
100
AcDbEntity
  8
layer 1
100
AcDbLine
 10
-236.697919092306
 20
181.6593684388399
 30
0.0
 11
-224.697919092306
 21
181.6593684388399
 31
0.0
  0
LINE
  5
114
330
244
100
AcDbEntity
  8
layer 1
100
AcDbLine
 10
-224.697919092306
 20
181.6593684388399
 30
0.0
 11
-224.697919092306
 21
185.6593684388399
 31
0.0
  0
LINE
  5
115
330
244
100
AcDbEntity
  8
layer 1
100
AcDbLine
 10
-236.697919092306
 20
185.6593684388399
 30
0.0
 11
-236.697919092306
 21
181.6593684388399
 31
0.0
  0
LINE
  5
116
330
244
100
AcDbEntity
  8
layer 2
100
AcDbLine
 10
-239.197919092306
 20
415.6593684388399
 30
0.0
 11
-235.197919092306
 21
415.6593684388399
 31
0.0
  0
LINE
  5
117
330
244
100
AcDbEntity
  8
layer 2
100
AcDbLine
 10
-271.4822199618714
 20
-207.4756213906244
 30
0.0
 11
-267.4822199618714
 21
-207.4756213906244
 31
0.0
  0
LINE
  5
118
330
244
100
AcDbEntity
  8
layer 2
100
AcDbLine
 10
-235.197919092306
 20
415.6593684388399
 30
0.0
 11
-235.197919092306
 21
455.6593684388398
 31
0.0
  0
LINE
  5
119
330
244
100
AcDbEntity
  8
layer 2
100
AcDbLine
 10
-267.4822199618714
 20
-207.4756213906244
 30
0.0
 11
-267.4822199618714
 21
-167.4756213906244
 31
0.0
  0
LINE
  5
11A
330
244
100
AcDbEntity
  8
layer 2
100
AcDbLine
 10
-235.197919092306
 20
455.6593684388398
 30
0.0
 11
-239.197919092306
 21
455.6593684388398
 31
0.0
  0
LINE
  5
11B
330
244
100
AcDbEntity
  8
layer 2
100
AcDbLine
 10
-267.4822199618714
 20
-167.4756213906244
 30
0.0
 11
-271.4822199618714
 21
-167.4756213906244
 31
0.0
  0
LINE
  5
11C
330
244
100
AcDbEntity
  8
layer 2
100
AcDbLine
 10
-239.197919092306
 20
455.6593684388398
 30
0.0
 11
-239.197919092306
 21
415.6593684388399
 31
0.0
  0
LINE
  5
11D
330
244
100
AcDbEntity
  8
layer 2
100
AcDbLine
 10
-271.4822199618714
 20
-167.4756213906244
 30
0.0
 11
-271.4822199618714
 21
-207.4756213906244
 31
0.0
  0
LINE
  5
11E
330
244
100
AcDbEntity
  8
layer 2
100
AcDbLine
 10
-239.197919092306
 20
310.6593684388398
 30
0.0
 11
-235.197919092306
 21
310.6593684388398
 31
0.0
  0
LINE
  5
11F
330
244
100
AcDbEntity
  8
layer 2
100
AcDbLine
 10
-271.4822199618714
 20
-312.4756213906244
 30
0.0
 11
-267.4822199618714
 21
-312.4756213906244
 31
0.0
  0
LINE
  5
120
330
244
100
AcDbEntity
  8
layer 2
100
AcDbLine
 10
-235.197919092306
 20
310.6593684388398
 30
0.0
 11
-235.197919092306
 21
350.6593684388398
 31
0.0
  0
LINE
  5
121
330
244
100
AcDbEntity
  8
layer 2
100
AcDbLine
 10
-267.4822199618714
 20
-312.4756213906244
 30
0.0
 11
-267.4822199618714
 21
-272.4756213906244
 31
0.0
  0
LINE
  5
122
330
244
100
AcDbEntity
  8
layer 2
100
AcDbLine
 10
-235.197919092306
 20
350.6593684388398
 30
0.0
 11
-239.197919092306
 21
350.6593684388398
 31
0.0
  0
LINE
  5
123
330
244
100
AcDbEntity
  8
layer 2
100
AcDbLine
 10
-267.4822199618714
 20
-272.4756213906244
 30
0.0
 11
-271.4822199618714
 21
-272.4756213906244
 31
0.0
  0
LINE
  5
124
330
244
100
AcDbEntity
  8
layer 2
100
AcDbLine
 10
-239.197919092306
 20
350.6593684388398
 30
0.0
 11
-239.197919092306
 21
310.6593684388398
 31
0.0
  0
LINE
  5
125
330
244
100
AcDbEntity
  8
layer 2
100
AcDbLine
 10
-271.4822199618714
 20
-272.4756213906244
 30
0.0
 11
-271.4822199618714
 21
-312.4756213906244
 31
0.0
  0
LINE
  5
126
330
244
100
AcDbEntity
  8
layer 2
100
AcDbLine
 10
-239.197919092306
 20
205.6593684388398
 30
0.0
 11
-235.197919092306
 21
205.6593684388398
 31
0.0
  0
LINE
  5
127
330
244
100
AcDbEntity
  8
layer 2
100
AcDbLine
 10
-271.4822199618714
 20
-417.4756213906244
 30
0.0
 11
-267.4822199618714
 21
-417.4756213906244
 31
0.0
  0
LINE
  5
128
330
244
100
AcDbEntity
  8
layer 2
100
AcDbLine
 10
-235.197919092306
 20
205.6593684388398
 30
0.0
 11
-235.197919092306
 21
245.6593684388398
 31
0.0
  0
LINE
  5
129
330
244
100
AcDbEntity
  8
layer 2
100
AcDbLine
 10
-267.4822199618714
 20
-417.4756213906244
 30
0.0
 11
-267.4822199618714
 21
-377.4756213906244
 31
0.0
  0
LINE
  5
12A
330
244
100
AcDbEntity
  8
layer 2
100
AcDbLine
 10
-235.197919092306
 20
245.6593684388398
 30
0.0
 11
-239.197919092306
 21
245.6593684388398
 31
0.0
  0
LINE
  5
12B
330
244
100
AcDbEntity
  8
layer 2
100
AcDbLine
 10
-267.4822199618714
 20
-377.4756213906244
 30
0.0
 11
-271.4822199618714
 21
-377.4756213906244
 31
0.0
  0
LINE
  5
12C
330
244
100
AcDbEntity
  8
layer 2
100
AcDbLine
 10
-239.197919092306
 20
245.6593684388398
 30
0.0
 11
-239.197919092306
 21
205.6593684388398
 31
0.0
  0
LINE
  5
12D
330
244
100
AcDbEntity
  8
layer 2
100
AcDbLine
 10
-271.4822199618714
 20
-377.4756213906244
 30
0.0
 11
-271.4822199618714
 21
-417.4756213906244
 31
0.0
  0
LINE
  5
12E
330
244
100
AcDbEntity
  8
layer 1
100
AcDbLine
 10
-275.4822199618714
 20
-147.4756213906244
 30
0.0
 11
-270.4822199618714
 21
-147.4756213906244
 31
0.0
  0
LINE
  5
12F
330
244
100
AcDbEntity
  8
layer 1
100
AcDbLine
 10
-260.4822199618714
 20
-147.4756213906244
 30
0.0
 11
-255.4822199618714
 21
-147.4756213906244
 31
0.0
  0
LINE
  5
130
330
244
100
AcDbEntity
  8
layer 1
100
AcDbLine
 10
-275.4822199618714
 20
-437.4756213906244
 30
0.0
 11
-270.4822199618714
 21
-437.4756213906244
 31
0.0
  0
LINE
  5
131
330
244
100
AcDbEntity
  8
layer 1
100
AcDbLine
 10
-260.4822199618714
 20
-437.4756213906244
 30
0.0
 11
-255.4822199618714
 21
-437.4756213906244
 31
0.0
  0
LINE
  5
132
330
244
100
AcDbEntity
  8
layer 1
100
AcDbLine
 10
-255.4822199618714
 20
-437.4756213906244
 30
0.0
 11
-255.4822199618714
 21
-147.4756213906244
 31
0.0
  0
LINE
  5
133
330
244
100
AcDbEntity
  8
layer 1
100
AcDbLine
 10
-260.4822199618714
 20
-147.4756213906244
 30
0.0
 11
-260.4822199618714
 21
-143.4756213906244
 31
0.0
  0
LINE
  5
134
330
244
100
AcDbEntity
  8
layer 1
100
AcDbLine
 10
-260.4822199618714
 20
-143.4756213906244
 30
0.0
 11
-270.4822199618714
 21
-143.4756213906244
 31
0.0
  0
LINE
  5
135
330
244
100
AcDbEntity
  8
layer 1
100
AcDbLine
 10
-270.4822199618714
 20
-143.4756213906244
 30
0.0
 11
-270.4822199618714
 21
-147.4756213906244
 31
0.0
  0
LINE
  5
136
330
244
100
AcDbEntity
  8
layer 1
100
AcDbLine
 10
-270.4822199618714
 20
-441.4756213906244
 30
0.0
 11
-260.4822199618714
 21
-441.4756213906244
 31
0.0
  0
LINE
  5
137
330
244
100
AcDbEntity
  8
layer 1
100
AcDbLine
 10
-260.4822199618714
 20
-441.4756213906244
 30
0.0
 11
-260.4822199618714
 21
-437.4756213906244
 31
0.0
  0
LINE
  5
138
330
244
100
AcDbEntity
  8
layer 1
100
AcDbLine
 10
-270.4822199618714
 20
-437.4756213906244
 30
0.0
 11
-270.4822199618714
 21
-441.4756213906244
 31
0.0
  0
LINE
  5
149
330
244
100
AcDbEntity
  8
layer 1
100
AcDbLine
 10
13.80208090769406
 20
-69.08629196233079
 30
0.0
 11
53.80208090769406
 21
-69.08629196233079
 31
0.0
  0
LINE
  5
14A
330
244
100
AcDbEntity
  8
layer 1
100
AcDbLine
 10
-380.7914010905457
 20
178.9980420764722
 30
0.0
 11
-360.7914010905457
 21
178.9980420764722
 31
0.0
  0
LINE
  5
14B
330
244
100
AcDbEntity
  8
layer 1
100
AcDbLine
 10
-360.7914010905457
 20
453.9980420764723
 30
0.0
 11
-360.7914010905457
 21
468.9980420764722
 31
0.0
  0
LINE
  5
14C
330
244
100
AcDbEntity
  8
layer 1
100
AcDbLine
 10
-360.7914010905457
 20
398.9980420764722
 30
0.0
 11
-360.7914010905457
 21
433.9980420764723
 31
0.0
  0
LINE
  5
14D
330
244
100
AcDbEntity
  8
layer 1
100
AcDbLine
 10
-360.7914010905457
 20
288.9980420764723
 30
0.0
 11
-360.7914010905457
 21
358.9980420764722
 31
0.0
  0
LINE
  5
14E
330
244
100
AcDbEntity
  8
layer 1
100
AcDbLine
 10
-360.7914010905457
 20
178.9980420764722
 30
0.0
 11
-360.7914010905457
 21
193.9980420764723
 31
0.0
  0
LINE
  5
14F
330
244
100
AcDbEntity
  8
layer 1
100
AcDbLine
 10
-360.7914010905457
 20
213.9980420764723
 30
0.0
 11
-360.7914010905457
 21
248.9980420764723
 31
0.0
  0
LINE
  5
150
330
244
100
AcDbEntity
  8
layer 1
100
AcDbLine
 10
-360.7914010905457
 20
468.9980420764722
 30
0.0
 11
-380.7914010905457
 21
468.9980420764722
 31
0.0
  0
LINE
  5
151
330
244
100
AcDbEntity
  8
layer 1
100
AcDbLine
 10
-380.7914010905457
 20
468.9980420764722
 30
0.0
 11
-380.7914010905457
 21
178.9980420764722
 31
0.0
  0
LINE
  5
152
330
244
100
AcDbEntity
  8
layer 1
100
AcDbLine
 10
-360.7914010905457
 20
433.9980420764723
 30
0.0
 11
-356.7914010905457
 21
433.9980420764723
 31
0.0
  0
LINE
  5
153
330
244
100
AcDbEntity
  8
layer 1
100
AcDbLine
 10
-356.7914010905457
 20
433.9980420764723
 30
0.0
 11
-356.7914010905457
 21
453.9980420764723
 31
0.0
  0
LINE
  5
154
330
244
100
AcDbEntity
  8
layer 1
100
AcDbLine
 10
-356.7914010905457
 20
453.9980420764723
 30
0.0
 11
-360.7914010905457
 21
453.9980420764723
 31
0.0
  0
LINE
  5
155
330
244
100
AcDbEntity
  8
layer 1
100
AcDbLine
 10
-360.7914010905457
 20
193.9980420764723
 30
0.0
 11
-356.7914010905457
 21
193.9980420764723
 31
0.0
  0
LINE
  5
156
330
244
100
AcDbEntity
  8
layer 1
100
AcDbLine
 10
-356.7914010905457
 20
193.9980420764723
 30
0.0
 11
-356.7914010905457
 21
213.9980420764723
 31
0.0
  0
LINE
  5
157
330
244
100
AcDbEntity
  8
layer 1
100
AcDbLine
 10
-356.7914010905457
 20
213.9980420764723
 30
0.0
 11
-360.7914010905457
 21
213.9980420764723
 31
0.0
  0
LINE
  5
158
330
244
100
AcDbEntity
  8
layer 1
100
AcDbLine
 10
-360.7914010905457
 20
358.9980420764722
 30
0.0
 11
-356.7914010905457
 21
358.9980420764722
 31
0.0
  0
LINE
  5
159
330
244
100
AcDbEntity
  8
layer 1
100
AcDbLine
 10
-356.7914010905457
 20
358.9980420764722
 30
0.0
 11
-356.7914010905457
 21
398.9980420764722
 31
0.0
  0
LINE
  5
15A
330
244
100
AcDbEntity
  8
layer 1
100
AcDbLine
 10
-356.7914010905457
 20
398.9980420764722
 30
0.0
 11
-360.7914010905457
 21
398.9980420764722
 31
0.0
  0
LINE
  5
15B
330
244
100
AcDbEntity
  8
layer 1
100
AcDbLine
 10
-360.7914010905457
 20
248.9980420764723
 30
0.0
 11
-356.7914010905457
 21
248.9980420764723
 31
0.0
  0
LINE
  5
15C
330
244
100
AcDbEntity
  8
layer 1
100
AcDbLine
 10
-356.7914010905457
 20
248.9980420764723
 30
0.0
 11
-356.7914010905457
 21
288.9980420764723
 31
0.0
  0
LINE
  5
15D
330
244
100
AcDbEntity
  8
layer 1
100
AcDbLine
 10
-356.7914010905457
 20
288.9980420764723
 30
0.0
 11
-360.7914010905457
 21
288.9980420764723
 31
0.0
  0
CIRCLE
  5
15E
330
244
100
AcDbEntity
  8
layer 2
100
AcDbCircle
 10
13.71417406244376
 20
455.3842403570608
 30
0.0
 40
6.0
  0
CIRCLE
  5
15F
330
244
100
AcDbEntity
  8
layer 2
100
AcDbCircle
 10
13.71417406244376
 20
205.3842403570608
 30
0.0
 40
6.0
  0
LINE
  5
160
330
244
100
AcDbEntity
  8
layer 1
100
AcDbLine
 10
-170.197919092306
 20
112.4137080376692
 30
0.0
 11
-170.197919092306
 21
-54.08629196233079
 31
0.0
  0
LINE
  5
161
330
244
100
AcDbEntity
  8
layer 1
100
AcDbLine
 10
95.80208090769395
 20
62.91370803766922
 30
0.0
 11
95.80208090769406
 21
2.913708037669217
 31
0.0
  0
LINE
  5
162
330
244
100
AcDbEntity
  8
layer 2
100
AcDbLine
 10
-153.197919092306
 20
430.6593684388399
 30
0.0
 11
-29.19791909230605
 21
430.6593684388399
 31
0.0
  0
LINE
  5
163
330
244
100
AcDbEntity
  8
layer 2
100
AcDbLine
 10
-153.197919092306
 20
230.6593684388399
 30
0.0
 11
-29.19791909230605
 21
230.6593684388399
 31
0.0
  0
LINE
  5
164
330
244
100
AcDbEntity
  8
layer 2
100
AcDbLine
 10
-29.19791909230605
 20
430.6593684388399
 30
0.0
 11
-29.19791909230605
 21
230.6593684388399
 31
0.0
  0
LINE
  5
167
330
244
100
AcDbEntity
  8
layer 1
100
AcDbLine
 10
220.3677172160474
 20
-444.022459498066
 30
0.0
 11
438.3677172160473
 21
-444.022459498066
 31
0.0
  0
LINE
  5
168
330
244
100
AcDbEntity
  8
layer 1
100
AcDbLine
 10
438.3677172160473
 20
-444.022459498066
 30
0.0
 11
438.3677172160473
 21
-154.0224594980661
 31
0.0
  0
LINE
  5
169
330
244
100
AcDbEntity
  8
layer 1
100
AcDbLine
 10
438.3677172160473
 20
-154.0224594980661
 30
0.0
 11
220.3677172160474
 21
-154.0224594980661
 31
0.0
  0
LINE
  5
16A
330
244
100
AcDbEntity
  8
layer 1
100
AcDbLine
 10
220.3677172160474
 20
-154.0224594980661
 30
0.0
 11
220.3677172160474
 21
-444.022459498066
 31
0.0
  0
LINE
  5
16B
330
244
100
AcDbEntity
  8
layer 1
100
AcDbLine
 10
53.80208090769395
 20
-69.0862919623308
 30
0.0
 11
99.80208090769395
 21
-69.0862919623308
 31
0.0
  0
LINE
  5
16C
330
244
100
AcDbEntity
  8
layer 2
100
AcDbLine
 10
49.80208090769406
 20
109.9137080376692
 30
0.0
 11
79.80208090769406
 21
109.9137080376692
 31
0.0
  0
LINE
  5
16D
330
244
100
AcDbEntity
  8
layer 2
100
AcDbLine
 10
79.80208090769406
 20
109.9137080376692
 30
0.0
 11
79.80208090769406
 21
113.9137080376692
 31
0.0
  0
LINE
  5
16E
330
244
100
AcDbEntity
  8
layer 2
100
AcDbLine
 10
79.80208090769406
 20
113.9137080376692
 30
0.0
 11
49.80208090769406
 21
113.9137080376692
 31
0.0
  0
LINE
  5
16F
330
244
100
AcDbEntity
  8
layer 2
100
AcDbLine
 10
49.80208090769406
 20
113.9137080376692
 30
0.0
 11
49.80208090769406
 21
109.9137080376692
 31
0.0
  0
LINE
  5
170
330
244
100
AcDbEntity
  8
layer 2
100
AcDbLine
 10
49.80208090769406
 20
-57.08629196233079
 30
0.0
 11
79.80208090769406
 21
-57.08629196233079
 31
0.0
  0
LINE
  5
171
330
244
100
AcDbEntity
  8
layer 2
100
AcDbLine
 10
79.80208090769406
 20
-57.08629196233079
 30
0.0
 11
79.80208090769406
 21
-53.08629196233079
 31
0.0
  0
LINE
  5
172
330
244
100
AcDbEntity
  8
layer 2
100
AcDbLine
 10
79.80208090769406
 20
-53.08629196233079
 30
0.0
 11
49.80208090769406
 21
-53.08629196233079
 31
0.0
  0
LINE
  5
173
330
244
100
AcDbEntity
  8
layer 2
100
AcDbLine
 10
49.80208090769406
 20
-53.08629196233079
 30
0.0
 11
49.80208090769406
 21
-57.08629196233079
 31
0.0
  0
LINE
  5
174
330
244
100
AcDbEntity
  8
layer 1
100
AcDbLine
 10
-63.19791909230605
 20
475.6593684388396
 30
0.0
 11
-7.197919092306051
 21
475.6593684388397
 31
0.0
  0
LINE
  5
175
330
244
100
AcDbEntity
  8
layer 1
100
AcDbLine
 10
22.80208090769395
 20
475.6593684388397
 30
0.0
 11
49.80208090769395
 21
475.6593684388397
 31
0.0
  0
LINE
  5
176
330
244
100
AcDbEntity
  8
layer 1
100
AcDbLine
 10
79.80208090769395
 20
475.6593684388398
 30
0.0
 11
95.80208090769395
 21
475.6593684388398
 31
0.0
  0
LINE
  5
177
330
244
100
AcDbEntity
  8
layer 1
100
AcDbLine
 10
79.80208090769395
 20
185.6593684388398
 30
0.0
 11
95.80208090769395
 21
185.6593684388398
 31
0.0
  0
LINE
  5
178
330
244
100
AcDbEntity
  8
layer 1
100
AcDbLine
 10
-63.19791909230605
 20
185.6593684388399
 30
0.0
 11
-7.197919092306051
 21
185.6593684388399
 31
0.0
  0
LINE
  5
179
330
244
100
AcDbEntity
  8
layer 1
100
AcDbLine
 10
22.80208090769395
 20
185.6593684388398
 30
0.0
 11
49.80208090769395
 21
185.6593684388398
 31
0.0
  0
LINE
  5
17A
330
244
100
AcDbEntity
  8
layer 1
100
AcDbLine
 10
-7.197919092306051
 20
181.6593684388399
 30
0.0
 11
22.80208090769395
 21
181.6593684388399
 31
0.0
  0
LINE
  5
17B
330
244
100
AcDbEntity
  8
layer 1
100
AcDbLine
 10
22.80208090769395
 20
181.6593684388399
 30
0.0
 11
22.80208090769395
 21
185.6593684388399
 31
0.0
  0
LINE
  5
17C
330
244
100
AcDbEntity
  8
layer 1
100
AcDbLine
 10
-7.197919092306051
 20
185.6593684388399
 30
0.0
 11
-7.197919092306051
 21
181.6593684388399
 31
0.0
  0
LINE
  5
17D
330
244
100
AcDbEntity
  8
layer 1
100
AcDbLine
 10
49.80208090769395
 20
181.6593684388398
 30
0.0
 11
79.80208090769395
 21
181.6593684388398
 31
0.0
  0
LINE
  5
17E
330
244
100
AcDbEntity
  8
layer 1
100
AcDbLine
 10
79.80208090769395
 20
181.6593684388398
 30
0.0
 11
79.80208090769395
 21
185.6593684388398
 31
0.0
  0
LINE
  5
17F
330
244
100
AcDbEntity
  8
layer 1
100
AcDbLine
 10
49.80208090769395
 20
185.6593684388398
 30
0.0
 11
49.80208090769395
 21
181.6593684388398
 31
0.0
  0
LINE
  5
180
330
244
100
AcDbEntity
  8
layer 1
100
AcDbLine
 10
22.80208090769395
 20
475.6593684388396
 30
0.0
 11
22.80208090769395
 21
479.6593684388396
 31
0.0
  0
LINE
  5
181
330
244
100
AcDbEntity
  8
layer 1
100
AcDbLine
 10
22.80208090769395
 20
479.6593684388396
 30
0.0
 11
-7.197919092306051
 21
479.6593684388396
 31
0.0
  0
LINE
  5
182
330
244
100
AcDbEntity
  8
layer 1
100
AcDbLine
 10
-7.197919092306051
 20
479.6593684388396
 30
0.0
 11
-7.197919092306051
 21
475.6593684388396
 31
0.0
  0
LINE
  5
183
330
244
100
AcDbEntity
  8
layer 1
100
AcDbLine
 10
79.80208090769395
 20
475.6593684388397
 30
0.0
 11
79.80208090769395
 21
479.6593684388397
 31
0.0
  0
LINE
  5
184
330
244
100
AcDbEntity
  8
layer 1
100
AcDbLine
 10
79.80208090769395
 20
479.6593684388397
 30
0.0
 11
49.80208090769395
 21
479.6593684388397
 31
0.0
  0
LINE
  5
185
330
244
100
AcDbEntity
  8
layer 1
100
AcDbLine
 10
49.80208090769395
 20
479.6593684388397
 30
0.0
 11
49.80208090769395
 21
475.6593684388397
 31
0.0
  0
LINE
  5
186
330
244
100
AcDbEntity
  8
layer 1
100
AcDbLine
 10
-63.19791909230594
 20
-149.0862919623308
 30
0.0
 11
-7.197919092306051
 21
-149.0862919623308
 31
0.0
  0
LINE
  5
187
330
244
100
AcDbEntity
  8
layer 1
100
AcDbLine
 10
22.80208090769395
 20
-149.0862919623308
 30
0.0
 11
49.80208090769395
 21
-149.0862919623308
 31
0.0
  0
LINE
  5
188
330
244
100
AcDbEntity
  8
layer 1
100
AcDbLine
 10
79.80208090769395
 20
-149.0862919623308
 30
0.0
 11
95.80208090769406
 21
-149.0862919623308
 31
0.0
  0
LINE
  5
189
330
244
100
AcDbEntity
  8
layer 1
100
AcDbLine
 10
-63.19791909230594
 20
-439.0862919623307
 30
0.0
 11
-7.197919092306051
 21
-439.0862919623307
 31
0.0
  0
LINE
  5
18A
330
244
100
AcDbEntity
  8
layer 1
100
AcDbLine
 10
22.80208090769395
 20
-439.0862919623307
 30
0.0
 11
49.80208090769395
 21
-439.0862919623307
 31
0.0
  0
LINE
  5
18B
330
244
100
AcDbEntity
  8
layer 1
100
AcDbLine
 10
79.80208090769395
 20
-439.0862919623307
 30
0.0
 11
95.80208090769406
 21
-439.0862919623307
 31
0.0
  0
LINE
  5
18C
330
244
100
AcDbEntity
  8
layer 1
100
AcDbLine
 10
22.80208090769395
 20
-149.0862919623308
 30
0.0
 11
22.80208090769395
 21
-145.0862919623308
 31
0.0
  0
LINE
  5
18D
330
244
100
AcDbEntity
  8
layer 1
100
AcDbLine
 10
22.80208090769395
 20
-145.0862919623308
 30
0.0
 11
-7.197919092306051
 21
-145.0862919623308
 31
0.0
  0
LINE
  5
18E
330
244
100
AcDbEntity
  8
layer 1
100
AcDbLine
 10
-7.197919092306051
 20
-145.0862919623308
 30
0.0
 11
-7.197919092306051
 21
-149.0862919623308
 31
0.0
  0
LINE
  5
18F
330
244
100
AcDbEntity
  8
layer 1
100
AcDbLine
 10
79.80208090769395
 20
-149.0862919623308
 30
0.0
 11
79.80208090769395
 21
-145.0862919623308
 31
0.0
  0
LINE
  5
190
330
244
100
AcDbEntity
  8
layer 1
100
AcDbLine
 10
79.80208090769395
 20
-145.0862919623308
 30
0.0
 11
49.80208090769395
 21
-145.0862919623308
 31
0.0
  0
LINE
  5
191
330
244
100
AcDbEntity
  8
layer 1
100
AcDbLine
 10
49.80208090769395
 20
-145.0862919623308
 30
0.0
 11
49.80208090769395
 21
-149.0862919623308
 31
0.0
  0
LINE
  5
192
330
244
100
AcDbEntity
  8
layer 1
100
AcDbLine
 10
-7.197919092306051
 20
-443.0862919623307
 30
0.0
 11
22.80208090769395
 21
-443.0862919623307
 31
0.0
  0
LINE
  5
193
330
244
100
AcDbEntity
  8
layer 1
100
AcDbLine
 10
22.80208090769395
 20
-443.0862919623307
 30
0.0
 11
22.80208090769395
 21
-439.0862919623307
 31
0.0
  0
LINE
  5
194
330
244
100
AcDbEntity
  8
layer 1
100
AcDbLine
 10
-7.197919092306051
 20
-439.0862919623307
 30
0.0
 11
-7.197919092306051
 21
-443.0862919623307
 31
0.0
  0
LINE
  5
195
330
244
100
AcDbEntity
  8
layer 1
100
AcDbLine
 10
49.80208090769395
 20
-443.0862919623307
 30
0.0
 11
79.80208090769395
 21
-443.0862919623307
 31
0.0
  0
LINE
  5
196
330
244
100
AcDbEntity
  8
layer 1
100
AcDbLine
 10
79.80208090769395
 20
-443.0862919623307
 30
0.0
 11
79.80208090769395
 21
-439.0862919623307
 31
0.0
  0
LINE
  5
197
330
244
100
AcDbEntity
  8
layer 1
100
AcDbLine
 10
49.80208090769395
 20
-439.0862919623307
 30
0.0
 11
49.80208090769395
 21
-443.0862919623307
 31
0.0
  0
LINE
  5
198
330
244
100
AcDbEntity
  8
layer 1
100
AcDbLine
 10
47.80208090769395
 20
130.9137080376692
 30
0.0
 11
99.80208090769395
 21
130.9137080376692
 31
0.0
  0
LINE
  5
199
330
244
100
AcDbEntity
  8
layer 1
100
AcDbLine
 10
-118.1979190923061
 20
126.9137080376692
 30
0.0
 11
47.80208090769395
 21
126.9137080376692
 31
0.0
  0
MTEXT
  5
225
330
244
100
AcDbEntity
  8
0
100
AcDbMText
 10
-68.67931296683787
 20
28.82491053361218
 30
0.0
 40
10.0
 41
0.0
 46
0.0
 71
     1
 72
     1
  1
\fArial|b1|i0|c0|p0;\H22;2x
  7
textstyle11
 73
     1
 44
1.0
  0
MTEXT
  5
226
330
244
100
AcDbEntity
  8
0
100
AcDbMText
 10
259.2532373637044
 20
-236.2272457915885
 30
0.0
 40
10.0
 41
0.0
 46
0.0
 71
     1
 72
     1
  1
\fArial|b1|i0|c0|p0;\H22;Plexiglas
  7
textstyle12
 73
     1
 44
1.0
  0
VIEWPORT
  5
303
330
240
100
AcDbEntity
 67
     1
  8
0
100
AcDbViewport
 10
128.5
 20
97.5
 30
0.0
 40
314.226
 41
222.18
 68
     1
 69
     1
 12
128.5
 22
97.5
 13
0.0
 23
0.0
 14
10.0
 24
10.0
 15
10.0
 25
10.0
 16
0.0
 26
0.0
 36
1.0
 17
0.0
 27
0.0
 37
0.0
 42
50.0
 43
0.0
 44
0.0
 45
222.18
 50
0.0
 51
0.0
 72
   100
 90
   557152
  1

281
     0
 71
     1
 74
     0
110
0.0
120
0.0
130
0.0
111
1.0
121
0.0
131
0.0
112
0.0
122
1.0
132
0.0
 79
     0
146
0.0
170
     0
 61
     5
348
254
292
     1
282
     1
141
0.0
142
0.0
 63
   256
361
304
  0
ENDSEC
  0
SECTION
  2
OBJECTS
  0
DICTIONARY
  5
232
330
0
100
AcDbDictionary
281
     1
  3
ACAD_DETAILVIEWSTYLE
350
30E
  3
ACAD_GROUP
350
233
  3
ACAD_LAYOUT
350
23F
  3
ACAD_MATERIAL
350
268
  3
ACAD_MLEADERSTYLE
350
290
  3
ACAD_MLINESTYLE
350
23C
  3
ACAD_PLOTSETTINGS
350
23E
  3
ACAD_PLOTSTYLENAME
350
234
  3
ACAD_SCALELIST
350
26C
  3
ACAD_SECTIONVIEWSTYLE
350
30F
  3
ACAD_TABLESTYLE
350
28E
  3
ACAD_VISUALSTYLE
350
24F
  3
ACDB_RECOMPOSE_DATA
350
30B
  3
AcDbVariableDictionary
350
307
  3
QCAD_OBJECTS
350
294
  0
SUN
  5
292
330
24E
100
AcDbSun
 90
        1
290
     0
 63
     7
421
 16777215
 40
1.0
291
     1
 91
  2455826
 92
 54000000
292
     0
 70
     2
 71
   256
280
     1
  0
SUN
  5
304
330
303
100
AcDbSun
 90
        1
290
     0
 63
     7
421
 16777215
 40
1.0
291
     1
 91
  2455826
 92
 54000000
292
     0
 70
     2
 71
   256
280
     1
  0
DICTIONARY
  5
30E
102
{ACAD_REACTORS
330
232
102
}
330
232
100
AcDbDictionary
281
     1
  0
DICTIONARY
  5
233
102
{ACAD_REACTORS
330
232
102
}
330
232
100
AcDbDictionary
281
     1
  0
DICTIONARY
  5
23F
102
{ACAD_REACTORS
330
232
102
}
330
232
100
AcDbDictionary
281
     1
  3
Layout1
350
243
  3
Model
350
247
  0
DICTIONARY
  5
268
102
{ACAD_REACTORS
330
232
102
}
330
232
100
AcDbDictionary
281
     1
  3
ByBlock
350
26A
  3
ByLayer
350
269
  3
Global
350
26B
  0
DICTIONARY
  5
290
102
{ACAD_REACTORS
330
232
102
}
330
232
100
AcDbDictionary
281
     1
  3
Standard
350
291
  0
DICTIONARY
  5
23C
102
{ACAD_REACTORS
330
232
102
}
330
232
100
AcDbDictionary
281
     1
  3
Standard
350
23D
  0
DICTIONARY
  5
23E
102
{ACAD_REACTORS
330
232
102
}
330
232
100
AcDbDictionary
281
     1
  0
ACDBDICTIONARYWDFLT
  5
234
102
{ACAD_REACTORS
330
232
102
}
330
232
100
AcDbDictionary
281
     1
  3
Normal
350
235
100
AcDbDictionaryWithDefault
340
235
  0
DICTIONARY
  5
26C
102
{ACAD_REACTORS
330
232
102
}
330
232
100
AcDbDictionary
281
     1
  3
A0
350
26D
  3
A1
350
26E
  3
A2
350
26F
  3
A3
350
270
  3
A4
350
271
  3
A5
350
272
  3
A6
350
273
  3
A7
350
274
  3
A8
350
275
  3
A9
350
276
  3
B0
350
277
  3
B1
350
278
  3
B2
350
279
  3
B3
350
27A
  3
B4
350
27B
  3
B5
350
27C
  3
B6
350
27D
  3
B7
350
27E
  3
B8
350
27F
  3
B9
350
280
  3
C0
350
281
  3
C1
350
282
  3
C2
350
283
  3
C3
350
284
  3
C4
350
285
  3
C5
350
286
  3
C6
350
287
  3
C7
350
288
  3
C8
350
289
  3
C9
350
28A
  3
D0
350
28B
  3
D1
350
28C
  3
D2
350
28D
  0
DICTIONARY
  5
30F
102
{ACAD_REACTORS
330
232
102
}
330
232
100
AcDbDictionary
281
     1
  0
DICTIONARY
  5
28E
102
{ACAD_REACTORS
330
232
102
}
330
232
100
AcDbDictionary
281
     1
  3
Standard
350
28F
  0
DICTIONARY
  5
24F
102
{ACAD_REACTORS
330
232
102
}
330
232
100
AcDbDictionary
281
     1
  3
2dWireframe
350
254
  3
Basic
350
257
  3
Brighten
350
25B
  3
ColorChange
350
25F
  3
Conceptual
350
259
  3
Dim
350
25A
  3
EdgeColorOff
350
262
  3
Facepattern
350
25E
  3
Flat
350
250
  3
FlatWithEdges
350
251
  3
Gouraud
350
252
  3
GouraudWithEdges
350
253
  3
Hidden
350
256
  3
JitterOff
350
260
  3
Linepattern
350
25D
  3
OverhangOff
350
261
  3
Realistic
350
258
  3
Shaded
350
267
  3
Shaded with edges
350
266
  3
Shades of Gray
350
263
  3
Sketchy
350
264
  3
Thicken
350
25C
  3
Wireframe
350
255
  3
X-Ray
350
265
  0
XRECORD
  5
30B
102
{ACAD_REACTORS
330
232
102
}
330
232
100
AcDbXrecord
280
     1
 90
        1
330
28F
  0
DICTIONARY
  5
307
102
{ACAD_REACTORS
330
232
102
}
330
232
100
AcDbDictionary
281
     1
  3
CANNOSCALE
350
308
  3
CMLEADERSTYLE
350
30D
  3
CTABLESTYLE
350
30C
  0
DICTIONARY
  5
294
102
{ACAD_REACTORS
330
232
102
}
330
232
100
AcDbDictionary
281
     1
  3
ColorSettings/BackgroundColor
350
296
  3
ColorSettings/ColorMode
350
297
  3
Grid/DisplayGrid00
350
298
  3
Grid/DisplayGrid01
350
299
  3
Grid/DisplayGrid02
350
29A
  3
Grid/DisplayGrid03
350
29B
  3
Grid/GridSpacingX00
350
29C
  3
Grid/GridSpacingX01
350
29D
  3
Grid/GridSpacingX02
350
29E
  3
Grid/GridSpacingX03
350
29F
  3
Grid/GridSpacingY00
350
2A0
  3
Grid/GridSpacingY01
350
2A1
  3
Grid/GridSpacingY02
350
2A2
  3
Grid/GridSpacingY03
350
2A3
  3
Grid/IsometricGrid00
350
2A4
  3
Grid/IsometricGrid01
350
2A5
  3
Grid/IsometricGrid02
350
2A6
  3
Grid/IsometricGrid03
350
2A7
  3
Grid/IsometricProjection00
350
2A8
  3
Grid/IsometricProjection01
350
2A9
  3
Grid/IsometricProjection02
350
2AA
  3
Grid/IsometricProjection03
350
2AB
  3
Grid/MetaGridSpacingX00
350
2AC
  3
Grid/MetaGridSpacingX01
350
2AD
  3
Grid/MetaGridSpacingX02
350
2AE
  3
Grid/MetaGridSpacingX03
350
2AF
  3
Grid/MetaGridSpacingY00
350
2B0
  3
Grid/MetaGridSpacingY01
350
2B1
  3
Grid/MetaGridSpacingY02
350
2B2
  3
Grid/MetaGridSpacingY03
350
2B3
  3
MultiPageSettings/Columns
350
2B4
  3
MultiPageSettings/GlueMarginsBottom
350
2B5
  3
MultiPageSettings/GlueMarginsLeft
350
2B6
  3
MultiPageSettings/GlueMarginsRight
350
2B7
  3
MultiPageSettings/GlueMarginsTop
350
2B8
  3
MultiPageSettings/PrintCropMarks
350
2B9
  3
MultiPageSettings/Rows
350
2BA
  3
PageSettings/OffsetX
350
2BB
  3
PageSettings/OffsetY
350
2BC
  3
PageSettings/PageOrientation
350
2BD
  3
PageSettings/PaperHeight
350
2BE
  3
PageSettings/PaperWidth
350
2BF
  3
PageSettings/Scale
350
2C0
  3
PageSettings/ShowPaperBorders
350
2C1
  3
QCADVersion
350
295
  3
UnitSettings/PaperUnit
350
2C2
  3
ViewportCenter
350
2C3
  3
ViewportHeight
350
2C4
  3
ViewportWidth
350
2C5
  0
LAYOUT
  5
243
102
{ACAD_REACTORS
330
23F
102
}
330
23F
100
AcDbPlotSettings
  1

  2
none_device
  4
ISO_A4_(210.00_x_297.00_MM)
  6

 40
7.5
 41
20.0
 42
7.5
 43
20.0
 44
210.0
 45
297.0
 46
0.0
 47
0.0
 48
0.0
 49
0.0
140
0.0
141
0.0
142
1.0
143
1.0
 70
   688
 72
     1
 73
     1
 74
     5
  7

 75
     0
 76
     0
 77
     2
 78
   300
147
1.0
148
0.0
149
0.0
100
AcDbLayout
  1
Layout1
 70
     1
 71
     0
 10
-20.0
 20
-7.5
 11
277.0
 21
202.5
 12
0.0
 22
0.0
 32
0.0
 14
0.0
 24
0.0
 34
0.0
 15
0.0
 25
0.0
 35
0.0
146
0.0
 13
0.0
 23
0.0
 33
0.0
 16
1.0
 26
0.0
 36
0.0
 17
0.0
 27
1.0
 37
0.0
 76
     0
330
240
331
303
  0
LAYOUT
  5
247
102
{ACAD_REACTORS
330
23F
102
}
330
23F
100
AcDbPlotSettings
  1

  2
none_device
  4
Letter_(8.50_x_11.00_Inches)
  6

 40
6.35
 41
6.35
 42
6.35000508
 43
6.35000508
 44
215.9
 45
279.4
 46
0.0
 47
0.0
 48
0.0
 49
0.0
140
0.0
141
0.0
142
1.0
143
1.0
 70
  1712
 72
     0
 73
     0
 74
     0
  7

 75
     0
 76
     0
 77
     2
 78
   300
147
1.0
148
0.0
149
0.0
100
AcDbLayout
  1
Model
 70
     1
 71
     0
 10
0.0
 20
0.0
 11
12.0
 21
9.0
 12
0.0
 22
0.0
 32
0.0
 14
1.000000000000000E+20
 24
1.000000000000000E+20
 34
1.000000000000000E+20
 15
-1.000000000000000E+20
 25
-1.000000000000000E+20
 35
-1.000000000000000E+20
146
0.0
 13
0.0
 23
0.0
 33
0.0
 16
1.0
 26
0.0
 36
0.0
 17
0.0
 27
1.0
 37
0.0
 76
     0
330
244
331
24E
  0
MATERIAL
  5
26A
102
{ACAD_REACTORS
330
268
102
}
330
268
100
AcDbMaterial
  1
ByBlock
 72
     1
 94
      127
  0
MATERIAL
  5
269
102
{ACAD_REACTORS
330
268
102
}
330
268
100
AcDbMaterial
  1
ByLayer
 72
     1
 94
      127
  0
MATERIAL
  5
26B
102
{ACAD_REACTORS
330
268
102
}
330
268
100
AcDbMaterial
  1
Global
 72
     1
 94
      127
  0
MLEADERSTYLE
  5
291
102
{ACAD_REACTORS
330
290
102
}
330
290
100
AcDbMLeaderStyle
179
     2
170
     2
171
     1
172
     0
 90
        2
 40
0.0
 41
0.0
173
     1
 91
-1056964608
340
239
 92
       -2
290
     1
 42
0.09
291
     1
 43
0.36
  3
Standard
341
0
 44
0.18
300

342
237
174
     1
178
     6
175
     1
176
     0
 93
-1056964608
 45
0.18
292
     0
297
     0
 46
0.18
343
0
 94
-1056964608
 47
1.0
 49
1.0
140
1.0
293
     1
141
0.0
294
     1
177
     0
142
1.0
295
     0
296
     0
143
0.125
271
     0
272
     9
273
     9
298
     0
  0
MLINESTYLE
  5
23D
102
{ACAD_REACTORS
330
23C
102
}
330
23C
100
AcDbMlineStyle
  2
Standard
 70
     0
  3

 62
   256
 51
90.0
 52
90.0
 71
     2
 49
0.5
 62
   256
  6
BYLAYER
 49
-0.5
 62
   256
  6
BYLAYER
  0
ACDBPLACEHOLDER
  5
235
102
{ACAD_REACTORS
330
234
102
}
330
234
  0
SCALE
  5
26D
102
{ACAD_REACTORS
330
26C
102
}
330
26C
100
AcDbScale
 70
     0
300
1:1
140
1.0
141
1.0
290
     1
  0
SCALE
  5
26E
102
{ACAD_REACTORS
330
26C
102
}
330
26C
100
AcDbScale
 70
     0
300
1:2
140
1.0
141
2.0
290
     0
  0
SCALE
  5
26F
102
{ACAD_REACTORS
330
26C
102
}
330
26C
100
AcDbScale
 70
     0
300
1:4
140
1.0
141
4.0
290
     0
  0
SCALE
  5
270
102
{ACAD_REACTORS
330
26C
102
}
330
26C
100
AcDbScale
 70
     0
300
1:5
140
1.0
141
5.0
290
     0
  0
SCALE
  5
271
102
{ACAD_REACTORS
330
26C
102
}
330
26C
100
AcDbScale
 70
     0
300
1:8
140
1.0
141
8.0
290
     0
  0
SCALE
  5
272
102
{ACAD_REACTORS
330
26C
102
}
330
26C
100
AcDbScale
 70
     0
300
1:10
140
1.0
141
10.0
290
     0
  0
SCALE
  5
273
102
{ACAD_REACTORS
330
26C
102
}
330
26C
100
AcDbScale
 70
     0
300
1:16
140
1.0
141
16.0
290
     0
  0
SCALE
  5
274
102
{ACAD_REACTORS
330
26C
102
}
330
26C
100
AcDbScale
 70
     0
300
1:20
140
1.0
141
20.0
290
     0
  0
SCALE
  5
275
102
{ACAD_REACTORS
330
26C
102
}
330
26C
100
AcDbScale
 70
     0
300
1:30
140
1.0
141
30.0
290
     0
  0
SCALE
  5
276
102
{ACAD_REACTORS
330
26C
102
}
330
26C
100
AcDbScale
 70
     0
300
1:40
140
1.0
141
40.0
290
     0
  0
SCALE
  5
277
102
{ACAD_REACTORS
330
26C
102
}
330
26C
100
AcDbScale
 70
     0
300
1:50
140
1.0
141
50.0
290
     0
  0
SCALE
  5
278
102
{ACAD_REACTORS
330
26C
102
}
330
26C
100
AcDbScale
 70
     0
300
1:100
140
1.0
141
100.0
290
     0
  0
SCALE
  5
279
102
{ACAD_REACTORS
330
26C
102
}
330
26C
100
AcDbScale
 70
     0
300
2:1
140
2.0
141
1.0
290
     0
  0
SCALE
  5
27A
102
{ACAD_REACTORS
330
26C
102
}
330
26C
100
AcDbScale
 70
     0
300
4:1
140
4.0
141
1.0
290
     0
  0
SCALE
  5
27B
102
{ACAD_REACTORS
330
26C
102
}
330
26C
100
AcDbScale
 70
     0
300
8:1
140
8.0
141
1.0
290
     0
  0
SCALE
  5
27C
102
{ACAD_REACTORS
330
26C
102
}
330
26C
100
AcDbScale
 70
     0
300
10:1
140
10.0
141
1.0
290
     0
  0
SCALE
  5
27D
102
{ACAD_REACTORS
330
26C
102
}
330
26C
100
AcDbScale
 70
     0
300
100:1
140
100.0
141
1.0
290
     0
  0
SCALE
  5
27E
102
{ACAD_REACTORS
330
26C
102
}
330
26C
100
AcDbScale
 70
     0
300
1/128" = 1'-0"
140
0.0078125
141
12.0
290
     0
  0
SCALE
  5
27F
102
{ACAD_REACTORS
330
26C
102
}
330
26C
100
AcDbScale
 70
     0
300
1/64" = 1'-0"
140
0.015625
141
12.0
290
     0
  0
SCALE
  5
280
102
{ACAD_REACTORS
330
26C
102
}
330
26C
100
AcDbScale
 70
     0
300
1/32" = 1'-0"
140
0.03125
141
12.0
290
     0
  0
SCALE
  5
281
102
{ACAD_REACTORS
330
26C
102
}
330
26C
100
AcDbScale
 70
     0
300
1/16" = 1'-0"
140
0.0625
141
12.0
290
     0
  0
SCALE
  5
282
102
{ACAD_REACTORS
330
26C
102
}
330
26C
100
AcDbScale
 70
     0
300
3/32" = 1'-0"
140
0.09375
141
12.0
290
     0
  0
SCALE
  5
283
102
{ACAD_REACTORS
330
26C
102
}
330
26C
100
AcDbScale
 70
     0
300
1/8" = 1'-0"
140
0.125
141
12.0
290
     0
  0
SCALE
  5
284
102
{ACAD_REACTORS
330
26C
102
}
330
26C
100
AcDbScale
 70
     0
300
3/16" = 1'-0"
140
0.1875
141
12.0
290
     0
  0
SCALE
  5
285
102
{ACAD_REACTORS
330
26C
102
}
330
26C
100
AcDbScale
 70
     0
300
1/4" = 1'-0"
140
0.25
141
12.0
290
     0
  0
SCALE
  5
286
102
{ACAD_REACTORS
330
26C
102
}
330
26C
100
AcDbScale
 70
     0
300
3/8" = 1'-0"
140
0.375
141
12.0
290
     0
  0
SCALE
  5
287
102
{ACAD_REACTORS
330
26C
102
}
330
26C
100
AcDbScale
 70
     0
300
1/2" = 1'-0"
140
0.5
141
12.0
290
     0
  0
SCALE
  5
288
102
{ACAD_REACTORS
330
26C
102
}
330
26C
100
AcDbScale
 70
     0
300
3/4" = 1'-0"
140
0.75
141
12.0
290
     0
  0
SCALE
  5
289
102
{ACAD_REACTORS
330
26C
102
}
330
26C
100
AcDbScale
 70
     0
300
1" = 1'-0"
140
1.0
141
12.0
290
     0
  0
SCALE
  5
28A
102
{ACAD_REACTORS
330
26C
102
}
330
26C
100
AcDbScale
 70
     0
300
1-1/2" = 1'-0"
140
1.5
141
12.0
290
     0
  0
SCALE
  5
28B
102
{ACAD_REACTORS
330
26C
102
}
330
26C
100
AcDbScale
 70
     0
300
3" = 1'-0"
140
3.0
141
12.0
290
     0
  0
SCALE
  5
28C
102
{ACAD_REACTORS
330
26C
102
}
330
26C
100
AcDbScale
 70
     0
300
6" = 1'-0"
140
6.0
141
12.0
290
     0
  0
SCALE
  5
28D
102
{ACAD_REACTORS
330
26C
102
}
330
26C
100
AcDbScale
 70
     0
300
1'-0" = 1'-0"
140
12.0
141
12.0
290
     0
  0
TABLESTYLE
  5
28F
102
{ACAD_REACTORS
330
28E
102
}
102
{ACAD_XDICTIONARY
360
309
102
}
330
28E
100
AcDbTableStyle
  3
Standard
 70
     0
 71
     0
 40
0.06
 41
0.06
280
     0
281
     0
  7
Standard
140
0.18
170
     2
 62
     0
 63
   257
283
     0
 90
        4
 91
        0
  1

274
    -2
284
     1
 64
     0
275
    -2
285
     1
 65
     0
276
    -2
286
     1
 66
     0
277
    -2
287
     1
 67
     0
278
    -2
288
     1
 68
     0
279
    -2
289
     1
 69
     0
  7
Standard
140
0.25
170
     5
 62
     0
 63
   257
283
     0
 90
        4
 91
        0
  1

274
    -2
284
     1
 64
     0
275
    -2
285
     1
 65
     0
276
    -2
286
     1
 66
     0
277
    -2
287
     1
 67
     0
278
    -2
288
     1
 68
     0
279
    -2
289
     1
 69
     0
  7
Standard
140
0.18
170
     5
 62
     0
 63
   257
283
     0
 90
        4
 91
        0
  1

274
    -2
284
     1
 64
     0
275
    -2
285
     1
 65
     0
276
    -2
286
     1
 66
     0
277
    -2
287
     1
 67
     0
278
    -2
288
     1
 68
     0
279
    -2
289
     1
 69
     0
  0
VISUALSTYLE
  5
254
102
{ACAD_REACTORS
330
24F
102
}
330
24F
100
AcDbVisualStyle
  2
2dWireframe
 70
     4
177
     3
291
     0
 70
    58
 90
        0
176
     1
 90
        2
176
     1
 90
        0
176
     1
 90
        0
176
     1
 40
0.6
176
     1
 40
30.0
176
     1
 62
     7
420
 16777215
176
     1
 90
        1
176
     1
 90
        4
176
     1
 62
     7
176
     1
 62
   257
176
     1
 90
        1
176
     1
 90
        1
176
     1
 40
1.0
176
     1
 90
        0
176
     1
 62
   257
176
     1
 40
1.0
176
     1
 90
        1
176
     1
 90
        6
176
     1
 90
        2
176
     1
 62
     7
176
     1
 90
        5
176
     1
 90
        0
176
     1
 90
        0
176
     1
290
     0
176
     1
 90
        1
176
     1
 40
0.0
176
     1
 90
        0
176
     1
290
     1
176
     1
290
     1
176
     1
290
     0
176
     1
290
     0
176
     1
290
     0
176
     1
290
     0
176
     1
290
     0
176
     1
290
     0
176
     1
290
     0
176
     1
 90
       50
176
     1
 40
0.0
176
     1
 40
1.0
176
     1
 90
        0
176
     1
 62
    18
420
        0
176
     1
 90
       50
176
     1
 90
        3
176
     1
 62
     5
420
      255
176
     1
290
     0
176
     1
 90
       50
176
     1
 90
       50
176
     1
 90
       50
176
     1
290
     0
176
     1
 90
       50
176
     1
 62
   256
176
     0
 40
1.0
176
     0
 90
        2
176
     1
  1
strokes_ogs.tif
176
     1
290
     0
176
     1
 40
1.0
176
     1
 40
1.0
176
     1
  0
VISUALSTYLE
  5
257
102
{ACAD_REACTORS
330
24F
102
}
330
24F
100
AcDbVisualStyle
  2
Basic
 70
     7
177
     3
291
     1
 70
    58
 90
        1
176
     1
 90
        0
176
     1
 90
        1
176
     1
 90
        0
176
     1
 40
0.6
176
     1
 40
30.0
176
     1
 62
     7
420
 16777215
176
     1
 90
        0
176
     1
 90
        4
176
     1
 62
     7
176
     1
 62
   257
176
     1
 90
        1
176
     1
 90
        1
176
     1
 40
1.0
176
     1
 90
        8
176
     1
 62
     7
176
     1
 40
1.0
176
     1
 90
        1
176
     1
 90
        6
176
     1
 90
        2
176
     1
 62
     7
176
     1
 90
        5
176
     1
 90
        0
176
     1
 90
        0
176
     1
290
     0
176
     1
 90
        1
176
     1
 40
0.0
176
     1
 90
        0
176
     1
290
     0
176
     1
290
     1
176
     1
290
     1
176
     1
290
     0
176
     1
290
     0
176
     1
290
     0
176
     1
290
     0
176
     1
290
     0
176
     1
290
     0
176
     1
 90
       50
176
     1
 40
0.0
176
     1
 40
1.0
176
     1
 90
        0
176
     1
 62
    18
420
        0
176
     1
 90
       50
176
     1
 90
        3
176
     1
 62
     5
420
      255
176
     1
290
     0
176
     1
 90
       50
176
     1
 90
       50
176
     1
 90
       50
176
     1
290
     0
176
     1
 90
       50
176
     1
 62
   256
176
     0
 40
1.0
176
     0
 90
        2
176
     1
  1
strokes_ogs.tif
176
     1
290
     0
176
     1
 40
1.0
176
     1
 40
1.0
176
     1
  0
VISUALSTYLE
  5
25B
102
{ACAD_REACTORS
330
24F
102
}
330
24F
100
AcDbVisualStyle
  2
Brighten
 70
    12
177
     3
291
     1
 70
    58
 90
        2
176
     1
 90
        2
176
     1
 90
        0
176
     1
 90
        0
176
     1
 40
0.6
176
     1
 40
30.0
176
     1
 62
     7
420
 16777215
176
     1
 90
        1
176
     1
 90
        4
176
     1
 62
     7
176
     1
 62
   257
176
     1
 90
        1
176
     1
 90
        1
176
     1
 40
1.0
176
     1
 90
        8
176
     1
 62
     7
176
     1
 40
1.0
176
     1
 90
        1
176
     1
 90
        6
176
     1
 90
        2
176
     1
 62
     7
176
     1
 90
        5
176
     1
 90
        0
176
     1
 90
        0
176
     1
290
     0
176
     1
 90
        1
176
     1
 40
50.0
176
     1
 90
        0
176
     1
290
     0
176
     1
290
     1
176
     1
290
     1
176
     1
290
     0
176
     1
290
     0
176
     1
290
     0
176
     1
290
     0
176
     1
290
     0
176
     1
290
     0
176
     1
 90
       50
176
     1
 40
0.0
176
     1
 40
1.0
176
     1
 90
        0
176
     1
 62
    18
420
        0
176
     1
 90
       50
176
     1
 90
        3
176
     1
 62
     5
420
      255
176
     1
290
     0
176
     1
 90
       50
176
     1
 90
       50
176
     1
 90
       50
176
     1
290
     0
176
     1
 90
       50
176
     1
 62
   256
176
     0
 40
1.0
176
     0
 90
        2
176
     1
  1
strokes_ogs.tif
176
     1
290
     0
176
     1
 40
1.0
176
     1
 40
1.0
176
     1
  0
VISUALSTYLE
  5
25F
102
{ACAD_REACTORS
330
24F
102
}
330
24F
100
AcDbVisualStyle
  2
ColorChange
 70
    16
177
     3
291
     1
 70
    58
 90
        2
176
     1
 90
        2
176
     1
 90
        3
176
     1
 90
        0
176
     1
 40
0.6
176
     1
 40
30.0
176
     1
 62
     8
420
  8421504
176
     1
 90
        1
176
     1
 90
        4
176
     1
 62
     7
176
     1
 62
   257
176
     1
 90
        1
176
     1
 90
        1
176
     1
 40
1.0
176
     1
 90
        8
176
     1
 62
     8
420
  8421504
176
     1
 40
1.0
176
     1
 90
        1
176
     1
 90
        6
176
     1
 90
        2
176
     1
 62
     7
176
     1
 90
        5
176
     1
 90
        0
176
     1
 90
        0
176
     1
290
     0
176
     1
 90
        1
176
     1
 40
0.0
176
     1
 90
        0
176
     1
290
     0
176
     1
290
     1
176
     1
290
     1
176
     1
290
     0
176
     1
290
     0
176
     1
290
     0
176
     1
290
     0
176
     1
290
     0
176
     1
290
     0
176
     1
 90
       50
176
     1
 40
0.0
176
     1
 40
1.0
176
     1
 90
        0
176
     1
 62
    18
420
        0
176
     1
 90
       50
176
     1
 90
        3
176
     1
 62
     5
420
      255
176
     1
290
     0
176
     1
 90
       50
176
     1
 90
       50
176
     1
 90
       50
176
     1
290
     0
176
     1
 90
       50
176
     1
 62
   256
176
     0
 40
1.0
176
     0
 90
        2
176
     1
  1
strokes_ogs.tif
176
     1
290
     0
176
     1
 40
1.0
176
     1
 40
1.0
176
     1
  0
VISUALSTYLE
  5
259
102
{ACAD_REACTORS
330
24F
102
}
330
24F
100
AcDbVisualStyle
  2
Conceptual
 70
     9
177
     3
291
     0
 70
    58
 90
        3
176
     1
 90
        2
176
     1
 90
        0
176
     1
 90
        0
176
     1
 40
0.6
176
     1
 40
30.0
176
     1
 62
     7
420
 16777215
176
     1
 90
        2
176
     1
 90
        2
176
     1
 62
     7
176
     1
 62
   257
176
     1
 90
        1
176
     1
 90
        1
176
     1
 40
179.0
176
     1
 90
        8
176
     1
 62
     7
176
     1
 40
1.0
176
     1
 90
        1
176
     1
 90
        6
176
     1
 90
        2
176
     1
 62
     7
176
     1
 90
        3
176
     1
 90
        0
176
     1
 90
        0
176
     1
290
     0
176
     1
 90
        1
176
     1
 40
0.0
176
     1
 90
        0
176
     1
290
     0
176
     1
290
     1
176
     1
290
     1
176
     1
290
     0
176
     1
290
     0
176
     1
290
     0
176
     1
290
     0
176
     1
290
     0
176
     1
290
     0
176
     1
 90
       50
176
     1
 40
0.0
176
     1
 40
1.0
176
     1
 90
        0
176
     1
 62
    18
420
        0
176
     1
 90
       50
176
     1
 90
        3
176
     1
 62
     5
420
      255
176
     1
290
     0
176
     1
 90
       50
176
     1
 90
       50
176
     1
 90
       50
176
     1
290
     0
176
     1
 90
       50
176
     1
 62
   256
176
     0
 40
1.0
176
     0
 90
        2
176
     1
  1
strokes_ogs.tif
176
     1
290
     0
176
     1
 40
1.0
176
     1
 40
1.0
176
     1
  0
VISUALSTYLE
  5
25A
102
{ACAD_REACTORS
330
24F
102
}
330
24F
100
AcDbVisualStyle
  2
Dim
 70
    11
177
     3
291
     1
 70
    58
 90
        2
176
     1
 90
        2
176
     1
 90
        0
176
     1
 90
        0
176
     1
 40
0.6
176
     1
 40
30.0
176
     1
 62
     7
420
 16777215
176
     1
 90
        1
176
     1
 90
        4
176
     1
 62
     7
176
     1
 62
   257
176
     1
 90
        1
176
     1
 90
        1
176
     1
 40
1.0
176
     1
 90
        8
176
     1
 62
     7
176
     1
 40
1.0
176
     1
 90
        1
176
     1
 90
        6
176
     1
 90
        2
176
     1
 62
     7
176
     1
 90
        5
176
     1
 90
        0
176
     1
 90
        0
176
     1
290
     0
176
     1
 90
        1
176
     1
 40
-50.0
176
     1
 90
        0
176
     1
290
     0
176
     1
290
     1
176
     1
290
     1
176
     1
290
     0
176
     1
290
     0
176
     1
290
     0
176
     1
290
     0
176
     1
290
     0
176
     1
290
     0
176
     1
 90
       50
176
     1
 40
0.0
176
     1
 40
1.0
176
     1
 90
        0
176
     1
 62
    18
420
        0
176
     1
 90
       50
176
     1
 90
        3
176
     1
 62
     5
420
      255
176
     1
290
     0
176
     1
 90
       50
176
     1
 90
       50
176
     1
 90
       50
176
     1
290
     0
176
     1
 90
       50
176
     1
 62
   256
176
     0
 40
1.0
176
     0
 90
        2
176
     1
  1
strokes_ogs.tif
176
     1
290
     0
176
     1
 40
1.0
176
     1
 40
1.0
176
     1
  0
VISUALSTYLE
  5
262
102
{ACAD_REACTORS
330
24F
102
}
330
24F
100
AcDbVisualStyle
  2
EdgeColorOff
 70
    22
177
     3
291
     1
 70
    58
 90
        2
176
     0
 90
        2
176
     0
 90
        0
176
     0
 90
        0
176
     0
 40
0.6
176
     0
 40
30.0
176
     0
 62
     7
420
 16777215
176
     0
 90
        1
176
     0
 90
        4
176
     0
 62
     7
176
     0
 62
   257
176
     0
 90
        1
176
     0
 90
        1
176
     0
 40
1.0
176
     0
 90
        8
176
     2
 62
     7
176
     0
 40
1.0
176
     0
 90
        1
176
     0
 90
        6
176
     0
 90
        2
176
     0
 62
     7
176
     0
 90
        5
176
     0
 90
        0
176
     0
 90
        0
176
     0
290
     0
176
     0
 90
        1
176
     0
 40
0.0
176
     0
 90
        0
176
     0
290
     0
176
     0
290
     1
176
     0
290
     1
176
     0
290
     0
176
     0
290
     0
176
     0
290
     0
176
     0
290
     0
176
     0
290
     0
176
     0
290
     0
176
     0
 90
       50
176
     0
 40
0.0
176
     0
 40
1.0
176
     0
 90
        0
176
     0
 62
    18
420
        0
176
     0
 90
       50
176
     0
 90
        3
176
     0
 62
     5
420
      255
176
     0
290
     0
176
     0
 90
       50
176
     0
 90
       50
176
     0
 90
       50
176
     0
290
     0
176
     0
 90
       50
176
     0
 62
   256
176
     0
 40
1.0
176
     0
 90
        2
176
     0
  1
strokes_ogs.tif
176
     0
290
     0
176
     0
 40
1.0
176
     0
 40
1.0
176
     0
  0
VISUALSTYLE
  5
25E
102
{ACAD_REACTORS
330
24F
102
}
330
24F
100
AcDbVisualStyle
  2
Facepattern
 70
    15
177
     3
291
     1
 70
    58
 90
        2
176
     1
 90
        2
176
     1
 90
        0
176
     1
 90
        0
176
     1
 40
0.6
176
     1
 40
30.0
176
     1
 62
     7
420
 16777215
176
     1
 90
        1
176
     1
 90
        4
176
     1
 62
     7
176
     1
 62
   257
176
     1
 90
        1
176
     1
 90
        1
176
     1
 40
1.0
176
     1
 90
        8
176
     1
 62
     7
176
     1
 40
1.0
176
     1
 90
        1
176
     1
 90
        6
176
     1
 90
        2
176
     1
 62
     7
176
     1
 90
        5
176
     1
 90
        0
176
     1
 90
        0
176
     1
290
     0
176
     1
 90
        1
176
     1
 40
0.0
176
     1
 90
        0
176
     1
290
     0
176
     1
290
     1
176
     1
290
     1
176
     1
290
     0
176
     1
290
     0
176
     1
290
     0
176
     1
290
     0
176
     1
290
     0
176
     1
290
     0
176
     1
 90
       50
176
     1
 40
0.0
176
     1
 40
1.0
176
     1
 90
        0
176
     1
 62
    18
420
        0
176
     1
 90
       50
176
     1
 90
        3
176
     1
 62
     5
420
      255
176
     1
290
     0
176
     1
 90
       50
176
     1
 90
       50
176
     1
 90
       50
176
     1
290
     0
176
     1
 90
       50
176
     1
 62
   256
176
     0
 40
1.0
176
     0
 90
        2
176
     1
  1
strokes_ogs.tif
176
     1
290
     0
176
     1
 40
1.0
176
     1
 40
1.0
176
     1
  0
VISUALSTYLE
  5
250
102
{ACAD_REACTORS
330
24F
102
}
330
24F
100
AcDbVisualStyle
  2
Flat
 70
     0
177
     3
291
     1
 70
    58
 90
        2
176
     1
 90
        1
176
     1
 90
        1
176
     1
 90
        2
176
     1
 40
0.6
176
     1
 40
30.0
176
     1
 62
     7
420
 16777215
176
     1
 90
        0
176
     1
 90
        0
176
     1
 62
     7
176
     1
 62
   257
176
     1
 90
        1
176
     1
 90
        1
176
     1
 40
1.0
176
     1
 90
        8
176
     1
 62
     7
176
     1
 40
1.0
176
     1
 90
        1
176
     1
 90
        6
176
     1
 90
        2
176
     1
 62
     7
176
     1
 90
        5
176
     1
 90
        0
176
     1
 90
        0
176
     1
290
     0
176
     1
 90
       13
176
     1
 40
0.0
176
     1
 90
        0
176
     1
290
     0
176
     1
290
     1
176
     1
290
     1
176
     1
290
     0
176
     1
290
     0
176
     1
290
     0
176
     1
290
     0
176
     1
290
     0
176
     1
290
     0
176
     1
 90
       50
176
     1
 40
0.0
176
     1
 40
1.0
176
     1
 90
        0
176
     1
 62
    18
420
        0
176
     1
 90
       50
176
     1
 90
        3
176
     1
 62
     5
420
      255
176
     1
290
     0
176
     1
 90
       50
176
     1
 90
       50
176
     1
 90
       50
176
     1
290
     0
176
     1
 90
       50
176
     1
 62
   256
176
     0
 40
1.0
176
     0
 90
        2
176
     1
  1
strokes_ogs.tif
176
     1
290
     0
176
     1
 40
1.0
176
     1
 40
1.0
176
     1
  0
VISUALSTYLE
  5
251
102
{ACAD_REACTORS
330
24F
102
}
330
24F
100
AcDbVisualStyle
  2
FlatWithEdges
 70
     1
177
     3
291
     1
 70
    58
 90
        2
176
     1
 90
        1
176
     1
 90
        1
176
     1
 90
        2
176
     1
 40
0.6
176
     1
 40
30.0
176
     1
 62
     7
420
 16777215
176
     1
 90
        1
176
     1
 90
        0
176
     1
 62
     7
176
     1
 62
   257
176
     1
 90
        1
176
     1
 90
        1
176
     1
 40
1.0
176
     1
 90
        0
176
     1
 62
   257
176
     1
 40
1.0
176
     1
 90
        1
176
     1
 90
        6
176
     1
 90
        2
176
     1
 62
     7
176
     1
 90
        5
176
     1
 90
        0
176
     1
 90
        0
176
     1
290
     0
176
     1
 90
       13
176
     1
 40
0.0
176
     1
 90
        0
176
     1
290
     0
176
     1
290
     1
176
     1
290
     1
176
     1
290
     0
176
     1
290
     0
176
     1
290
     0
176
     1
290
     0
176
     1
290
     0
176
     1
290
     0
176
     1
 90
       50
176
     1
 40
0.0
176
     1
 40
1.0
176
     1
 90
        0
176
     1
 62
    18
420
        0
176
     1
 90
       50
176
     1
 90
        3
176
     1
 62
     5
420
      255
176
     1
290
     0
176
     1
 90
       50
176
     1
 90
       50
176
     1
 90
       50
176
     1
290
     0
176
     1
 90
       50
176
     1
 62
   256
176
     0
 40
1.0
176
     0
 90
        2
176
     1
  1
strokes_ogs.tif
176
     1
290
     0
176
     1
 40
1.0
176
     1
 40
1.0
176
     1
  0
VISUALSTYLE
  5
252
102
{ACAD_REACTORS
330
24F
102
}
330
24F
100
AcDbVisualStyle
  2
Gouraud
 70
     2
177
     3
291
     1
 70
    58
 90
        2
176
     1
 90
        2
176
     1
 90
        1
176
     1
 90
        2
176
     1
 40
0.6
176
     1
 40
30.0
176
     1
 62
     7
420
 16777215
176
     1
 90
        0
176
     1
 90
        0
176
     1
 62
     7
176
     1
 62
   257
176
     1
 90
        1
176
     1
 90
        1
176
     1
 40
1.0
176
     1
 90
        0
176
     1
 62
     7
176
     1
 40
1.0
176
     1
 90
        1
176
     1
 90
        6
176
     1
 90
        2
176
     1
 62
     7
176
     1
 90
        5
176
     1
 90
        0
176
     1
 90
        0
176
     1
290
     0
176
     1
 90
       13
176
     1
 40
0.0
176
     1
 90
        0
176
     1
290
     0
176
     1
290
     1
176
     1
290
     1
176
     1
290
     0
176
     1
290
     0
176
     1
290
     0
176
     1
290
     0
176
     1
290
     0
176
     1
290
     0
176
     1
 90
       50
176
     1
 40
0.0
176
     1
 40
1.0
176
     1
 90
        0
176
     1
 62
    18
420
        0
176
     1
 90
       50
176
     1
 90
        3
176
     1
 62
     5
420
      255
176
     1
290
     0
176
     1
 90
       50
176
     1
 90
       50
176
     1
 90
       50
176
     1
290
     0
176
     1
 90
       50
176
     1
 62
   256
176
     0
 40
1.0
176
     0
 90
        2
176
     1
  1
strokes_ogs.tif
176
     1
290
     0
176
     1
 40
1.0
176
     1
 40
1.0
176
     1
  0
VISUALSTYLE
  5
253
102
{ACAD_REACTORS
330
24F
102
}
330
24F
100
AcDbVisualStyle
  2
GouraudWithEdges
 70
     3
177
     3
291
     1
 70
    58
 90
        2
176
     1
 90
        2
176
     1
 90
        1
176
     1
 90
        2
176
     1
 40
0.6
176
     1
 40
30.0
176
     1
 62
     7
420
 16777215
176
     1
 90
        1
176
     1
 90
        0
176
     1
 62
     7
176
     1
 62
   257
176
     1
 90
        1
176
     1
 90
        1
176
     1
 40
1.0
176
     1
 90
        0
176
     1
 62
   257
176
     1
 40
1.0
176
     1
 90
        1
176
     1
 90
        6
176
     1
 90
        2
176
     1
 62
     7
176
     1
 90
        5
176
     1
 90
        0
176
     1
 90
        0
176
     1
290
     0
176
     1
 90
       13
176
     1
 40
0.0
176
     1
 90
        0
176
     1
290
     0
176
     1
290
     1
176
     1
290
     1
176
     1
290
     0
176
     1
290
     0
176
     1
290
     0
176
     1
290
     0
176
     1
290
     0
176
     1
290
     0
176
     1
 90
       50
176
     1
 40
0.0
176
     1
 40
1.0
176
     1
 90
        0
176
     1
 62
    18
420
        0
176
     1
 90
       50
176
     1
 90
        3
176
     1
 62
     5
420
      255
176
     1
290
     0
176
     1
 90
       50
176
     1
 90
       50
176
     1
 90
       50
176
     1
290
     0
176
     1
 90
       50
176
     1
 62
   256
176
     0
 40
1.0
176
     0
 90
        2
176
     1
  1
strokes_ogs.tif
176
     1
290
     0
176
     1
 40
1.0
176
     1
 40
1.0
176
     1
  0
VISUALSTYLE
  5
256
102
{ACAD_REACTORS
330
24F
102
}
330
24F
100
AcDbVisualStyle
  2
Hidden
 70
     6
177
     3
291
     0
 70
    58
 90
        1
176
     1
 90
        2
176
     1
 90
        2
176
     1
 90
        0
176
     1
 40
0.6
176
     1
 40
30.0
176
     1
 62
     7
420
 16777215
176
     1
 90
        2
176
     1
 90
        2
176
     1
 62
     7
176
     1
 62
   257
176
     1
 90
        2
176
     1
 90
        1
176
     1
 40
40.0
176
     1
 90
        0
176
     1
 62
   257
176
     1
 40
1.0
176
     1
 90
        1
176
     1
 90
        6
176
     1
 90
        2
176
     1
 62
     7
176
     1
 90
        3
176
     1
 90
        0
176
     1
 90
        0
176
     1
290
     0
176
     1
 90
        1
176
     1
 40
0.0
176
     1
 90
        0
176
     1
290
     0
176
     1
290
     1
176
     1
290
     1
176
     1
290
     0
176
     1
290
     0
176
     1
290
     0
176
     1
290
     0
176
     1
290
     0
176
     1
290
     0
176
     1
 90
       50
176
     1
 40
0.0
176
     1
 40
1.0
176
     1
 90
        0
176
     1
 62
    18
420
        0
176
     1
 90
       50
176
     1
 90
        3
176
     1
 62
     5
420
      255
176
     1
290
     0
176
     1
 90
       50
176
     1
 90
       50
176
     1
 90
       50
176
     1
290
     0
176
     1
 90
       50
176
     1
 62
   256
176
     0
 40
1.0
176
     0
 90
        2
176
     1
  1
strokes_ogs.tif
176
     1
290
     0
176
     1
 40
1.0
176
     1
 40
1.0
176
     1
  0
VISUALSTYLE
  5
260
102
{ACAD_REACTORS
330
24F
102
}
330
24F
100
AcDbVisualStyle
  2
JitterOff
 70
    20
177
     3
291
     1
 70
    58
 90
        2
176
     0
 90
        2
176
     0
 90
        0
176
     0
 90
        0
176
     0
 40
0.6
176
     0
 40
30.0
176
     0
 62
     7
420
 16777215
176
     0
 90
        1
176
     0
 90
        4
176
     0
 62
     7
176
     0
 62
   257
176
     0
 90
        1
176
     0
 90
        1
176
     0
 40
1.0
176
     0
 90
       10
176
     2
 62
     7
176
     0
 40
1.0
176
     0
 90
        1
176
     0
 90
        6
176
     0
 90
        2
176
     0
 62
     7
176
     0
 90
        5
176
     0
 90
        0
176
     0
 90
        0
176
     0
290
     0
176
     0
 90
        1
176
     0
 40
0.0
176
     0
 90
        0
176
     0
290
     0
176
     0
290
     1
176
     0
290
     1
176
     0
290
     0
176
     0
290
     0
176
     0
290
     0
176
     0
290
     0
176
     0
290
     0
176
     0
290
     0
176
     0
 90
       50
176
     0
 40
0.0
176
     0
 40
1.0
176
     0
 90
        0
176
     0
 62
    18
420
        0
176
     0
 90
       50
176
     0
 90
        3
176
     0
 62
     5
420
      255
176
     0
290
     0
176
     0
 90
       50
176
     0
 90
       50
176
     0
 90
       50
176
     0
290
     0
176
     0
 90
       50
176
     0
 62
   256
176
     0
 40
1.0
176
     0
 90
        2
176
     0
  1
strokes_ogs.tif
176
     0
290
     0
176
     0
 40
1.0
176
     0
 40
1.0
176
     0
  0
VISUALSTYLE
  5
25D
102
{ACAD_REACTORS
330
24F
102
}
330
24F
100
AcDbVisualStyle
  2
Linepattern
 70
    14
177
     3
291
     1
 70
    58
 90
        2
176
     1
 90
        2
176
     1
 90
        0
176
     1
 90
        0
176
     1
 40
0.6
176
     1
 40
30.0
176
     1
 62
     7
420
 16777215
176
     1
 90
        1
176
     1
 90
        4
176
     1
 62
     7
176
     1
 62
   257
176
     1
 90
        7
176
     1
 90
        7
176
     1
 40
1.0
176
     1
 90
        8
176
     1
 62
     7
176
     1
 40
1.0
176
     1
 90
        1
176
     1
 90
        6
176
     1
 90
        2
176
     1
 62
     7
176
     1
 90
        5
176
     1
 90
        0
176
     1
 90
        0
176
     1
290
     0
176
     1
 90
        1
176
     1
 40
0.0
176
     1
 90
        0
176
     1
290
     0
176
     1
290
     1
176
     1
290
     1
176
     1
290
     0
176
     1
290
     0
176
     1
290
     0
176
     1
290
     0
176
     1
290
     0
176
     1
290
     0
176
     1
 90
       50
176
     1
 40
0.0
176
     1
 40
1.0
176
     1
 90
        0
176
     1
 62
    18
420
        0
176
     1
 90
       50
176
     1
 90
        3
176
     1
 62
     5
420
      255
176
     1
290
     0
176
     1
 90
       50
176
     1
 90
       50
176
     1
 90
       50
176
     1
290
     0
176
     1
 90
       50
176
     1
 62
   256
176
     0
 40
1.0
176
     0
 90
        2
176
     1
  1
strokes_ogs.tif
176
     1
290
     0
176
     1
 40
1.0
176
     1
 40
1.0
176
     1
  0
VISUALSTYLE
  5
261
102
{ACAD_REACTORS
330
24F
102
}
330
24F
100
AcDbVisualStyle
  2
OverhangOff
 70
    21
177
     3
291
     1
 70
    58
 90
        2
176
     0
 90
        2
176
     0
 90
        0
176
     0
 90
        0
176
     0
 40
0.6
176
     0
 40
30.0
176
     0
 62
     7
420
 16777215
176
     0
 90
        1
176
     0
 90
        4
176
     0
 62
     7
176
     0
 62
   257
176
     0
 90
        1
176
     0
 90
        1
176
     0
 40
1.0
176
     0
 90
        9
176
     2
 62
     7
176
     0
 40
1.0
176
     0
 90
        1
176
     0
 90
        6
176
     0
 90
        2
176
     0
 62
     7
176
     0
 90
        5
176
     0
 90
        0
176
     0
 90
        0
176
     0
290
     0
176
     0
 90
        1
176
     0
 40
0.0
176
     0
 90
        0
176
     0
290
     0
176
     0
290
     1
176
     0
290
     1
176
     0
290
     0
176
     0
290
     0
176
     0
290
     0
176
     0
290
     0
176
     0
290
     0
176
     0
290
     0
176
     0
 90
       50
176
     0
 40
0.0
176
     0
 40
1.0
176
     0
 90
        0
176
     0
 62
    18
420
        0
176
     0
 90
       50
176
     0
 90
        3
176
     0
 62
     5
420
      255
176
     0
290
     0
176
     0
 90
       50
176
     0
 90
       50
176
     0
 90
       50
176
     0
290
     0
176
     0
 90
       50
176
     0
 62
   256
176
     0
 40
1.0
176
     0
 90
        2
176
     0
  1
strokes_ogs.tif
176
     0
290
     0
176
     0
 40
1.0
176
     0
 40
1.0
176
     0
  0
VISUALSTYLE
  5
258
102
{ACAD_REACTORS
330
24F
102
}
330
24F
100
AcDbVisualStyle
  2
Realistic
 70
     8
177
     3
291
     0
 70
    58
 90
        2
176
     1
 90
        3
176
     1
 90
        0
176
     1
 90
        2
176
     1
 40
0.6
176
     1
 40
30.0
176
     1
 62
     7
420
 16777215
176
     1
 90
        0
176
     1
 90
        0
176
     1
 62
     7
176
     1
 62
   257
176
     1
 90
        1
176
     1
 90
        1
176
     1
 40
1.0
176
     1
 90
        8
176
     1
 62
   257
176
     1
 40
1.0
176
     1
 90
        1
176
     1
 90
        6
176
     1
 90
        2
176
     1
 62
     7
176
     1
 90
        3
176
     1
 90
        0
176
     1
 90
        0
176
     1
290
     0
176
     1
 90
       13
176
     1
 40
0.0
176
     1
 90
        0
176
     1
290
     0
176
     1
290
     1
176
     1
290
     1
176
     1
290
     0
176
     1
290
     0
176
     1
290
     0
176
     1
290
     0
176
     1
290
     0
176
     1
290
     0
176
     1
 90
       50
176
     1
 40
0.0
176
     1
 40
1.0
176
     1
 90
        0
176
     1
 62
    18
420
        0
176
     1
 90
       50
176
     1
 90
        3
176
     1
 62
     5
420
      255
176
     1
290
     0
176
     1
 90
       50
176
     1
 90
       50
176
     1
 90
       50
176
     1
290
     0
176
     1
 90
       50
176
     1
 62
   256
176
     0
 40
1.0
176
     0
 90
        2
176
     1
  1
strokes_ogs.tif
176
     1
290
     0
176
     1
 40
1.0
176
     1
 40
1.0
176
     1
  0
VISUALSTYLE
  5
267
102
{ACAD_REACTORS
330
24F
102
}
330
24F
100
AcDbVisualStyle
  2
Shaded
 70
    27
177
     3
291
     0
 70
    58
 90
        2
176
     1
 90
        2
176
     1
 90
        1
176
     1
 90
        2
176
     1
 40
0.6
176
     1
 40
30.0
176
     1
 62
     7
420
 16777215
176
     1
 90
        0
176
     1
 90
        4
176
     1
 62
     7
176
     1
 62
   257
176
     1
 90
        1
176
     1
 90
        1
176
     1
 40
1.0
176
     1
 90
        8
176
     1
 62
   257
176
     1
 40
1.0
176
     1
 90
        1
176
     1
 90
        6
176
     1
 90
        2
176
     1
 62
     8
420
  7895160
176
     1
 90
        3
176
     1
 90
        0
176
     1
 90
        0
176
     1
290
     0
176
     1
 90
        5
176
     1
 40
0.0
176
     1
 90
        0
176
     1
290
     0
176
     1
290
     1
176
     1
290
     1
176
     1
290
     0
176
     1
290
     0
176
     1
290
     0
176
     1
290
     0
176
     1
290
     0
176
     1
290
     0
176
     1
 90
       50
176
     1
 40
0.0
176
     1
 40
1.0
176
     1
 90
        0
176
     1
 62
    18
420
        0
176
     1
 90
       50
176
     1
 90
        3
176
     1
 62
     5
420
      255
176
     1
290
     0
176
     1
 90
       50
176
     1
 90
       50
176
     1
 90
       50
176
     1
290
     0
176
     1
 90
       50
176
     1
 62
   256
176
     0
 40
1.0
176
     0
 90
        2
176
     1
  1
strokes_ogs.tif
176
     1
290
     0
176
     1
 40
1.0
176
     1
 40
1.0
176
     1
  0
VISUALSTYLE
  5
266
102
{ACAD_REACTORS
330
24F
102
}
330
24F
100
AcDbVisualStyle
  2
Shaded with edges
 70
    26
177
     3
291
     0
 70
    58
 90
        2
176
     1
 90
        2
176
     1
 90
        1
176
     1
 90
        2
176
     1
 40
0.6
176
     1
 40
30.0
176
     1
 62
     7
420
 16777215
176
     1
 90
        1
176
     1
 90
       10
176
     1
 62
     7
176
     1
 62
   257
176
     1
 90
        2
176
     1
 90
        1
176
     1
 40
1.0
176
     1
 90
        8
176
     1
 62
   257
176
     1
 40
1.0
176
     1
 90
        1
176
     1
 90
        6
176
     1
 90
        2
176
     1
 62
     7
176
     1
 90
        3
176
     1
 90
        0
176
     1
 90
        0
176
     1
290
     0
176
     1
 90
        5
176
     1
 40
0.0
176
     1
 90
        0
176
     1
290
     0
176
     1
290
     1
176
     1
290
     1
176
     1
290
     0
176
     1
290
     0
176
     1
290
     0
176
     1
290
     0
176
     1
290
     0
176
     1
290
     0
176
     1
 90
       50
176
     1
 40
0.0
176
     1
 40
1.0
176
     1
 90
        0
176
     1
 62
    18
420
        0
176
     1
 90
       50
176
     1
 90
        3
176
     1
 62
     5
420
      255
176
     1
290
     0
176
     1
 90
       50
176
     1
 90
       50
176
     1
 90
       50
176
     1
290
     0
176
     1
 90
       50
176
     1
 62
   256
176
     0
 40
1.0
176
     0
 90
        2
176
     1
  1
strokes_ogs.tif
176
     1
290
     0
176
     1
 40
1.0
176
     1
 40
1.0
176
     1
  0
VISUALSTYLE
  5
263
102
{ACAD_REACTORS
330
24F
102
}
330
24F
100
AcDbVisualStyle
  2
Shades of Gray
 70
    23
177
     3
291
     0
 70
    58
 90
        2
176
     1
 90
        2
176
     1
 90
        3
176
     1
 90
        0
176
     1
 40
0.6
176
     1
 40
30.0
176
     1
 62
     7
420
 16777215
176
     1
 90
        2
176
     1
 90
        2
176
     1
 62
     7
176
     1
 62
     7
176
     1
 90
        1
176
     1
 90
        1
176
     1
 40
40.0
176
     1
 90
        8
176
     1
 62
     7
176
     1
 40
1.0
176
     1
 90
        1
176
     1
 90
        6
176
     1
 90
        2
176
     1
 62
     7
176
     1
 90
        3
176
     1
 90
        0
176
     1
 90
        0
176
     1
290
     0
176
     1
 90
        1
176
     1
 40
0.0
176
     1
 90
        0
176
     1
290
     0
176
     1
290
     1
176
     1
290
     1
176
     1
290
     0
176
     1
290
     0
176
     1
290
     0
176
     1
290
     0
176
     1
290
     0
176
     1
290
     0
176
     1
 90
       50
176
     1
 40
0.0
176
     1
 40
1.0
176
     1
 90
        0
176
     1
 62
    18
420
        0
176
     1
 90
       50
176
     1
 90
        3
176
     1
 62
     5
420
      255
176
     1
290
     0
176
     1
 90
       50
176
     1
 90
       50
176
     1
 90
       50
176
     1
290
     0
176
     1
 90
       50
176
     1
 62
   256
176
     0
 40
1.0
176
     0
 90
        2
176
     1
  1
strokes_ogs.tif
176
     1
290
     0
176
     1
 40
1.0
176
     1
 40
1.0
176
     1
  0
VISUALSTYLE
  5
264
102
{ACAD_REACTORS
330
24F
102
}
330
24F
100
AcDbVisualStyle
  2
Sketchy
 70
    24
177
     3
291
     0
 70
    58
 90
        1
176
     1
 90
        2
176
     1
 90
        2
176
     1
 90
        0
176
     1
 40
0.6
176
     1
 40
30.0
176
     1
 62
     7
420
 16777215
176
     1
 90
        2
176
     1
 90
        2
176
     1
 62
     7
176
     1
 62
     7
176
     1
 90
        1
176
     1
 90
        1
176
     1
 40
40.0
176
     1
 90
       11
176
     1
 62
     7
176
     1
 40
1.0
176
     1
 90
        1
176
     1
 90
        6
176
     1
 90
        2
176
     1
 62
     7
176
     1
 90
        6
176
     1
 90
        0
176
     1
 90
        0
176
     1
290
     0
176
     1
 90
        1
176
     1
 40
0.0
176
     1
 90
        0
176
     1
290
     0
176
     1
290
     1
176
     1
290
     1
176
     1
290
     0
176
     1
290
     0
176
     1
290
     0
176
     1
290
     0
176
     1
290
     0
176
     1
290
     0
176
     1
 90
       50
176
     1
 40
0.0
176
     1
 40
1.0
176
     1
 90
        0
176
     1
 62
    18
420
        0
176
     1
 90
       50
176
     1
 90
        3
176
     1
 62
     5
420
      255
176
     1
290
     0
176
     1
 90
       50
176
     1
 90
       50
176
     1
 90
       50
176
     1
290
     0
176
     1
 90
       50
176
     1
 62
   256
176
     0
 40
1.0
176
     0
 90
        2
176
     1
  1
strokes_ogs.tif
176
     1
290
     0
176
     1
 40
1.0
176
     1
 40
1.0
176
     1
  0
VISUALSTYLE
  5
25C
102
{ACAD_REACTORS
330
24F
102
}
330
24F
100
AcDbVisualStyle
  2
Thicken
 70
    13
177
     3
291
     1
 70
    58
 90
        2
176
     1
 90
        2
176
     1
 90
        0
176
     1
 90
        0
176
     1
 40
0.6
176
     1
 40
30.0
176
     1
 62
     7
420
 16777215
176
     1
 90
        1
176
     1
 90
        4
176
     1
 62
     7
176
     1
 62
   257
176
     1
 90
        1
176
     1
 90
        1
176
     1
 40
1.0
176
     1
 90
       12
176
     1
 62
     7
176
     1
 40
1.0
176
     1
 90
        1
176
     1
 90
        6
176
     1
 90
        2
176
     1
 62
     7
176
     1
 90
        5
176
     1
 90
        0
176
     1
 90
        0
176
     1
290
     0
176
     1
 90
        1
176
     1
 40
0.0
176
     1
 90
        0
176
     1
290
     0
176
     1
290
     1
176
     1
290
     1
176
     1
290
     0
176
     1
290
     0
176
     1
290
     0
176
     1
290
     0
176
     1
290
     0
176
     1
290
     0
176
     1
 90
       50
176
     1
 40
0.0
176
     1
 40
1.0
176
     1
 90
        0
176
     1
 62
    18
420
        0
176
     1
 90
       50
176
     1
 90
        3
176
     1
 62
     5
420
      255
176
     1
290
     0
176
     1
 90
       50
176
     1
 90
       50
176
     1
 90
       50
176
     1
290
     0
176
     1
 90
       50
176
     1
 62
   256
176
     0
 40
1.0
176
     0
 90
        2
176
     1
  1
strokes_ogs.tif
176
     1
290
     0
176
     1
 40
1.0
176
     1
 40
1.0
176
     1
  0
VISUALSTYLE
  5
255
102
{ACAD_REACTORS
330
24F
102
}
330
24F
100
AcDbVisualStyle
  2
Wireframe
 70
     5
177
     3
291
     0
 70
    58
 90
        0
176
     1
 90
        2
176
     1
 90
        0
176
     1
 90
        0
176
     1
 40
0.6
176
     1
 40
30.0
176
     1
 62
     7
420
 16777215
176
     1
 90
        1
176
     1
 90
        4
176
     1
 62
     7
176
     1
 62
   257
176
     1
 90
        1
176
     1
 90
        1
176
     1
 40
1.0
176
     1
 90
        0
176
     1
 62
   257
176
     1
 40
1.0
176
     1
 90
        1
176
     1
 90
        6
176
     1
 90
        2
176
     1
 62
     7
176
     1
 90
        3
176
     1
 90
        0
176
     1
 90
        0
176
     1
290
     0
176
     1
 90
        1
176
     1
 40
0.0
176
     1
 90
        0
176
     1
290
     0
176
     1
290
     1
176
     1
290
     1
176
     1
290
     0
176
     1
290
     0
176
     1
290
     0
176
     1
290
     0
176
     1
290
     0
176
     1
290
     0
176
     1
 90
       50
176
     1
 40
0.0
176
     1
 40
1.0
176
     1
 90
        0
176
     1
 62
    18
420
        0
176
     1
 90
       50
176
     1
 90
        3
176
     1
 62
     5
420
      255
176
     1
290
     0
176
     1
 90
       50
176
     1
 90
       50
176
     1
 90
       50
176
     1
290
     0
176
     1
 90
       50
176
     1
 62
   256
176
     0
 40
1.0
176
     0
 90
        2
176
     1
  1
strokes_ogs.tif
176
     1
290
     0
176
     1
 40
1.0
176
     1
 40
1.0
176
     1
  0
VISUALSTYLE
  5
265
102
{ACAD_REACTORS
330
24F
102
}
330
24F
100
AcDbVisualStyle
  2
X-Ray
 70
    25
177
     3
291
     0
 70
    58
 90
        2
176
     1
 90
        2
176
     1
 90
        1
176
     1
 90
        1
176
     1
 40
0.5
176
     1
 40
30.0
176
     1
 62
     7
420
 16777215
176
     1
 90
        1
176
     1
 90
        0
176
     1
 62
     7
176
     1
 62
   257
176
     1
 90
        1
176
     1
 90
        1
176
     1
 40
1.0
176
     1
 90
        8
176
     1
 62
     7
176
     1
 40
1.0
176
     1
 90
        1
176
     1
 90
        6
176
     1
 90
        2
176
     1
 62
     7
176
     1
 90
        3
176
     1
 90
        0
176
     1
 90
        0
176
     1
290
     0
176
     1
 90
       13
176
     1
 40
0.0
176
     1
 90
        0
176
     1
290
     0
176
     1
290
     1
176
     1
290
     1
176
     1
290
     0
176
     1
290
     0
176
     1
290
     0
176
     1
290
     0
176
     1
290
     0
176
     1
290
     0
176
     1
 90
       50
176
     1
 40
0.0
176
     1
 40
1.0
176
     1
 90
        0
176
     1
 62
    18
420
        0
176
     1
 90
       50
176
     1
 90
        3
176
     1
 62
     5
420
      255
176
     1
290
     0
176
     1
 90
       50
176
     1
 90
       50
176
     1
 90
       50
176
     1
290
     0
176
     1
 90
       50
176
     1
 62
   256
176
     0
 40
1.0
176
     0
 90
        2
176
     1
  1
strokes_ogs.tif
176
     1
290
     0
176
     1
 40
1.0
176
     1
 40
1.0
176
     1
  0
DICTIONARYVAR
  5
308
102
{ACAD_REACTORS
330
307
102
}
330
307
100
DictionaryVariables
280
     0
  1
1:1
  0
DICTIONARYVAR
  5
30D
102
{ACAD_REACTORS
330
307
102
}
330
307
100
DictionaryVariables
280
     0
  1
Standard
  0
DICTIONARYVAR
  5
30C
102
{ACAD_REACTORS
330
307
102
}
330
307
100
DictionaryVariables
280
     0
  1
Standard
  0
XRECORD
  5
296
102
{ACAD_REACTORS
330
294
102
}
330
294
100
AcDbXrecord
280
     1
1000
#ffffff
  0
XRECORD
  5
297
102
{ACAD_REACTORS
330
294
102
}
330
294
100
AcDbXrecord
280
     1
1000
FullColor
  0
XRECORD
  5
298
102
{ACAD_REACTORS
330
294
102
}
330
294
100
AcDbXrecord
280
     1
290
     1
  0
XRECORD
  5
299
102
{ACAD_REACTORS
330
294
102
}
330
294
100
AcDbXrecord
280
     1
290
     1
  0
XRECORD
  5
29A
102
{ACAD_REACTORS
330
294
102
}
330
294
100
AcDbXrecord
280
     1
290
     1
  0
XRECORD
  5
29B
102
{ACAD_REACTORS
330
294
102
}
330
294
100
AcDbXrecord
280
     1
290
     1
  0
XRECORD
  5
29C
102
{ACAD_REACTORS
330
294
102
}
330
294
100
AcDbXrecord
280
     1
1000
auto
  0
XRECORD
  5
29D
102
{ACAD_REACTORS
330
294
102
}
330
294
100
AcDbXrecord
280
     1
1000
auto
  0
XRECORD
  5
29E
102
{ACAD_REACTORS
330
294
102
}
330
294
100
AcDbXrecord
280
     1
1000
auto
  0
XRECORD
  5
29F
102
{ACAD_REACTORS
330
294
102
}
330
294
100
AcDbXrecord
280
     1
1000
auto
  0
XRECORD
  5
2A0
102
{ACAD_REACTORS
330
294
102
}
330
294
100
AcDbXrecord
280
     1
1000
auto
  0
XRECORD
  5
2A1
102
{ACAD_REACTORS
330
294
102
}
330
294
100
AcDbXrecord
280
     1
1000
auto
  0
XRECORD
  5
2A2
102
{ACAD_REACTORS
330
294
102
}
330
294
100
AcDbXrecord
280
     1
1000
auto
  0
XRECORD
  5
2A3
102
{ACAD_REACTORS
330
294
102
}
330
294
100
AcDbXrecord
280
     1
1000
auto
  0
XRECORD
  5
2A4
102
{ACAD_REACTORS
330
294
102
}
330
294
100
AcDbXrecord
280
     1
290
     0
  0
XRECORD
  5
2A5
102
{ACAD_REACTORS
330
294
102
}
330
294
100
AcDbXrecord
280
     1
290
     0
  0
XRECORD
  5
2A6
102
{ACAD_REACTORS
330
294
102
}
330
294
100
AcDbXrecord
280
     1
290
     0
  0
XRECORD
  5
2A7
102
{ACAD_REACTORS
330
294
102
}
330
294
100
AcDbXrecord
280
     1
290
     0
  0
XRECORD
  5
2A8
102
{ACAD_REACTORS
330
294
102
}
330
294
100
AcDbXrecord
280
     1
 90
    65537
  0
XRECORD
  5
2A9
102
{ACAD_REACTORS
330
294
102
}
330
294
100
AcDbXrecord
280
     1
 90
    65537
  0
XRECORD
  5
2AA
102
{ACAD_REACTORS
330
294
102
}
330
294
100
AcDbXrecord
280
     1
 90
    65537
  0
XRECORD
  5
2AB
102
{ACAD_REACTORS
330
294
102
}
330
294
100
AcDbXrecord
280
     1
 90
    65537
  0
XRECORD
  5
2AC
102
{ACAD_REACTORS
330
294
102
}
330
294
100
AcDbXrecord
280
     1
1000
auto
  0
XRECORD
  5
2AD
102
{ACAD_REACTORS
330
294
102
}
330
294
100
AcDbXrecord
280
     1
1000
auto
  0
XRECORD
  5
2AE
102
{ACAD_REACTORS
330
294
102
}
330
294
100
AcDbXrecord
280
     1
1000
auto
  0
XRECORD
  5
2AF
102
{ACAD_REACTORS
330
294
102
}
330
294
100
AcDbXrecord
280
     1
1000
auto
  0
XRECORD
  5
2B0
102
{ACAD_REACTORS
330
294
102
}
330
294
100
AcDbXrecord
280
     1
1000
auto
  0
XRECORD
  5
2B1
102
{ACAD_REACTORS
330
294
102
}
330
294
100
AcDbXrecord
280
     1
1000
auto
  0
XRECORD
  5
2B2
102
{ACAD_REACTORS
330
294
102
}
330
294
100
AcDbXrecord
280
     1
1000
auto
  0
XRECORD
  5
2B3
102
{ACAD_REACTORS
330
294
102
}
330
294
100
AcDbXrecord
280
     1
1000
auto
  0
XRECORD
  5
2B4
102
{ACAD_REACTORS
330
294
102
}
330
294
100
AcDbXrecord
280
     1
 90
        1
  0
XRECORD
  5
2B5
102
{ACAD_REACTORS
330
294
102
}
330
294
100
AcDbXrecord
280
     1
 40
10.0
  0
XRECORD
  5
2B6
102
{ACAD_REACTORS
330
294
102
}
330
294
100
AcDbXrecord
280
     1
 40
10.0
  0
XRECORD
  5
2B7
102
{ACAD_REACTORS
330
294
102
}
330
294
100
AcDbXrecord
280
     1
 40
10.0
  0
XRECORD
  5
2B8
102
{ACAD_REACTORS
330
294
102
}
330
294
100
AcDbXrecord
280
     1
 40
10.0
  0
XRECORD
  5
2B9
102
{ACAD_REACTORS
330
294
102
}
330
294
100
AcDbXrecord
280
     1
290
     0
  0
XRECORD
  5
2BA
102
{ACAD_REACTORS
330
294
102
}
330
294
100
AcDbXrecord
280
     1
 90
        1
  0
XRECORD
  5
2BB
102
{ACAD_REACTORS
330
294
102
}
330
294
100
AcDbXrecord
280
     1
 40
0.0
  0
XRECORD
  5
2BC
102
{ACAD_REACTORS
330
294
102
}
330
294
100
AcDbXrecord
280
     1
 40
0.0
  0
XRECORD
  5
2BD
102
{ACAD_REACTORS
330
294
102
}
330
294
100
AcDbXrecord
280
     1
1000
Portrait
  0
XRECORD
  5
2BE
102
{ACAD_REACTORS
330
294
102
}
330
294
100
AcDbXrecord
280
     1
 40
297.0
  0
XRECORD
  5
2BF
102
{ACAD_REACTORS
330
294
102
}
330
294
100
AcDbXrecord
280
     1
 40
210.0
  0
XRECORD
  5
2C0
102
{ACAD_REACTORS
330
294
102
}
330
294
100
AcDbXrecord
280
     1
1000
1:1
  0
XRECORD
  5
2C1
102
{ACAD_REACTORS
330
294
102
}
330
294
100
AcDbXrecord
280
     1
290
     1
  0
XRECORD
  5
295
102
{ACAD_REACTORS
330
294
102
}
330
294
100
AcDbXrecord
280
     1
1000
3.21.2
  0
XRECORD
  5
2C2
102
{ACAD_REACTORS
330
294
102
}
330
294
100
AcDbXrecord
280
     1
 90
        4
  0
XRECORD
  5
2C3
102
{ACAD_REACTORS
330
294
102
}
330
294
100
AcDbXrecord
280
     1
  0
XRECORD
  5
2C4
102
{ACAD_REACTORS
330
294
102
}
330
294
100
AcDbXrecord
280
     1
 40
1010.280596902972
  0
XRECORD
  5
2C5
102
{ACAD_REACTORS
330
294
102
}
330
294
100
AcDbXrecord
280
     1
 40
1932.485449460556
  0
DICTIONARY
  5
309
330
28F
100
AcDbDictionary
280
     1
281
     1
  3
ACAD_ROUNDTRIP_2008_TABLESTYLE_CELLSTYLEMAP
360
30A
  0
CELLSTYLEMAP
  5
30A
102
{ACAD_REACTORS
330
309
102
}
330
309
100
AcDbCellStyleMap
 90
        3
300
CELLSTYLE
  1
TABLEFORMAT_BEGIN
 90
        5
170
     1
 91
        0
 92
    32768
 62
   257
 93
        1
300
CONTENTFORMAT
  1
CONTENTFORMAT_BEGIN
 90
        0
 91
        0
 92
        4
 93
        0
300

 40
0.0
140
1.0
 94
        5
 62
     0
340
237
144
0.25
309
CONTENTFORMAT_END
171
     1
301
MARGIN
  1
CELLMARGIN_BEGIN
 40
0.06
 40
0.06
 40
0.06
 40
0.06
 40
0.06
 40
0.06
309
CELLMARGIN_END
 94
        6
 95
        1
302
GRIDFORMAT
  1
GRIDFORMAT_BEGIN
 90
        0
 91
        1
 62
     0
 92
       -2
340
239
 93
        0
 40
0.045
309
GRIDFORMAT_END
 95
        2
302
GRIDFORMAT
  1
GRIDFORMAT_BEGIN
 90
        0
 91
        1
 62
     0
 92
       -2
340
239
 93
        0
 40
0.045
309
GRIDFORMAT_END
 95
        4
302
GRIDFORMAT
  1
GRIDFORMAT_BEGIN
 90
        0
 91
        1
 62
     0
 92
       -2
340
239
 93
        0
 40
0.045
309
GRIDFORMAT_END
 95
        8
302
GRIDFORMAT
  1
GRIDFORMAT_BEGIN
 90
        0
 91
        1
 62
     0
 92
       -2
340
239
 93
        0
 40
0.045
309
GRIDFORMAT_END
 95
       16
302
GRIDFORMAT
  1
GRIDFORMAT_BEGIN
 90
        0
 91
        1
 62
     0
 92
       -2
340
239
 93
        0
 40
0.045
309
GRIDFORMAT_END
 95
       32
302
GRIDFORMAT
  1
GRIDFORMAT_BEGIN
 90
        0
 91
        1
 62
     0
 92
       -2
340
239
 93
        0
 40
0.045
309
GRIDFORMAT_END
309
TABLEFORMAT_END
  1
CELLSTYLE_BEGIN
 90
        1
 91
        1
300
_TITLE
309
CELLSTYLE_END
300
CELLSTYLE
  1
TABLEFORMAT_BEGIN
 90
        5
170
     1
 91
        0
 92
        0
 62
   257
 93
        1
300
CONTENTFORMAT
  1
CONTENTFORMAT_BEGIN
 90
        0
 91
        0
 92
        4
 93
        0
300

 40
0.0
140
1.0
 94
        5
 62
     0
340
237
144
0.18
309
CONTENTFORMAT_END
171
     1
301
MARGIN
  1
CELLMARGIN_BEGIN
 40
0.06
 40
0.06
 40
0.06
 40
0.06
 40
0.06
 40
0.06
309
CELLMARGIN_END
 94
        6
 95
        1
302
GRIDFORMAT
  1
GRIDFORMAT_BEGIN
 90
        0
 91
        1
 62
     0
 92
       -2
340
239
 93
        0
 40
0.045
309
GRIDFORMAT_END
 95
        2
302
GRIDFORMAT
  1
GRIDFORMAT_BEGIN
 90
        0
 91
        1
 62
     0
 92
       -2
340
239
 93
        0
 40
0.045
309
GRIDFORMAT_END
 95
        4
302
GRIDFORMAT
  1
GRIDFORMAT_BEGIN
 90
        0
 91
        1
 62
     0
 92
       -2
340
239
 93
        0
 40
0.045
309
GRIDFORMAT_END
 95
        8
302
GRIDFORMAT
  1
GRIDFORMAT_BEGIN
 90
        0
 91
        1
 62
     0
 92
       -2
340
239
 93
        0
 40
0.045
309
GRIDFORMAT_END
 95
       16
302
GRIDFORMAT
  1
GRIDFORMAT_BEGIN
 90
        0
 91
        1
 62
     0
 92
       -2
340
239
 93
        0
 40
0.045
309
GRIDFORMAT_END
 95
       32
302
GRIDFORMAT
  1
GRIDFORMAT_BEGIN
 90
        0
 91
        1
 62
     0
 92
       -2
340
239
 93
        0
 40
0.045
309
GRIDFORMAT_END
309
TABLEFORMAT_END
  1
CELLSTYLE_BEGIN
 90
        2
 91
        1
300
_HEADER
309
CELLSTYLE_END
300
CELLSTYLE
  1
TABLEFORMAT_BEGIN
 90
        5
170
     1
 91
        0
 92
        0
 62
   257
 93
        1
300
CONTENTFORMAT
  1
CONTENTFORMAT_BEGIN
 90
        0
 91
        0
 92
        4
 93
        0
300

 40
0.0
140
1.0
 94
        2
 62
     0
340
237
144
0.18
309
CONTENTFORMAT_END
171
     1
301
MARGIN
  1
CELLMARGIN_BEGIN
 40
0.06
 40
0.06
 40
0.06
 40
0.06
 40
0.06
 40
0.06
309
CELLMARGIN_END
 94
        6
 95
        1
302
GRIDFORMAT
  1
GRIDFORMAT_BEGIN
 90
        0
 91
        1
 62
     0
 92
       -2
340
239
 93
        0
 40
0.045
309
GRIDFORMAT_END
 95
        2
302
GRIDFORMAT
  1
GRIDFORMAT_BEGIN
 90
        0
 91
        1
 62
     0
 92
       -2
340
239
 93
        0
 40
0.045
309
GRIDFORMAT_END
 95
        4
302
GRIDFORMAT
  1
GRIDFORMAT_BEGIN
 90
        0
 91
        1
 62
     0
 92
       -2
340
239
 93
        0
 40
0.045
309
GRIDFORMAT_END
 95
        8
302
GRIDFORMAT
  1
GRIDFORMAT_BEGIN
 90
        0
 91
        1
 62
     0
 92
       -2
340
239
 93
        0
 40
0.045
309
GRIDFORMAT_END
 95
       16
302
GRIDFORMAT
  1
GRIDFORMAT_BEGIN
 90
        0
 91
        1
 62
     0
 92
       -2
340
239
 93
        0
 40
0.045
309
GRIDFORMAT_END
 95
       32
302
GRIDFORMAT
  1
GRIDFORMAT_BEGIN
 90
        0
 91
        1
 62
     0
 92
       -2
340
239
 93
        0
 40
0.045
309
GRIDFORMAT_END
309
TABLEFORMAT_END
  1
CELLSTYLE_BEGIN
 90
        3
 91
        2
300
_DATA
309
CELLSTYLE_END
  0
ENDSEC
  0
EOF
